<svg width="172" height="24" viewBox="0 0 172 24" fill="none" xmlns="http://www.w3.org/2000/svg">
<mask id="mask0_1_263" style="mask-type:luminance" maskUnits="userSpaceOnUse" x="0" y="0" width="172" height="24">
<path d="M172 0H0V24H172V0Z" fill="white"/>
</mask>
<g mask="url(#mask0_1_263)">
<path d="M2.09205 16.1103L2.01495 8.63059C2.01495 7.08498 2.03974 6.00305 2.09205 5.38734C2.10582 5.30119 2.36741 5.25559 2.87407 5.25559C3.38073 5.25559 3.67261 5.28346 3.75522 5.33667C3.83507 5.39241 3.87638 5.48363 3.87638 5.61032C3.87638 8.02248 3.89841 9.6441 3.94246 10.4752C4.21232 10.2927 5.07143 9.56809 6.51982 8.29613C7.96545 7.0191 8.83559 6.2539 9.13022 5.99545C9.43036 5.73954 9.62586 5.56977 9.71398 5.48869C9.80209 5.40254 9.87369 5.32653 9.93427 5.26572C10.1105 5.13143 10.2537 5.06302 10.3638 5.06302C10.474 5.06302 10.6116 5.14917 10.7824 5.3164C10.9586 5.47856 11.0467 5.60018 11.0467 5.68126C11.0467 5.75727 11.0082 5.83329 10.9366 5.91437C10.8622 5.99545 10.7631 6.09173 10.6392 6.19815C10.5125 6.30711 10.4327 6.37805 10.3969 6.41099C9.25138 7.52586 7.77545 8.86369 5.9691 10.4245C5.59462 10.7235 5.40737 10.9009 5.40737 10.9617C5.40737 11.0225 5.46795 11.0934 5.59462 11.1745C5.71853 11.2556 5.86447 11.3443 6.03519 11.438C6.21142 11.5343 6.39316 11.6509 6.58591 11.7927C6.7759 11.9296 7.19445 12.2564 7.84154 12.7759C8.49414 13.2902 8.90993 13.6069 9.08616 13.7286C11.2009 15.3578 12.2583 16.3029 12.2583 16.5664C12.2583 16.6956 12.1206 16.8705 11.8508 17.0934C11.5782 17.3088 11.3827 17.4177 11.267 17.4177C11.1569 17.4177 11.0495 17.3924 10.9476 17.3468C10.8512 17.3063 10.7741 17.2607 10.7163 17.215C10.4299 16.9667 10.2564 16.8248 10.1986 16.7894H10.2206L9.32848 16.09C8.74747 15.6314 8.00951 15.0563 7.11459 14.3671C6.22519 13.6728 5.63867 13.2117 5.3523 12.9887C5.07143 12.7607 4.88144 12.6036 4.77955 12.5225C4.68318 12.4414 4.60332 12.3781 4.53724 12.3299C4.38855 12.183 4.22333 12.0867 4.04159 12.0461C3.95348 12.0867 3.90942 12.4515 3.90942 13.1407C3.90942 13.1407 3.92043 13.726 3.94246 14.8941L4.01956 16.3738C4.01956 16.7336 3.95898 16.9617 3.84333 17.063C3.72493 17.1644 3.49363 17.215 3.14943 17.215C2.81074 17.215 2.57669 17.1948 2.44451 17.1542C2.31785 17.1137 2.22973 17.0275 2.18017 16.8907C2.11959 16.7235 2.09205 16.4625 2.09205 16.1103Z" fill="#0CABC6"/>
<path d="M20.5992 11.9245L17.372 11.9042C16.0503 14.1137 15.3068 15.34 15.1471 15.5833C14.9847 15.8215 14.8305 16.085 14.6845 16.3738C14.3376 17.0706 14.0567 17.4177 13.8364 17.4177C13.2995 17.4177 12.9222 17.3063 12.7019 17.0833C12.6854 17.0579 12.6799 17.0225 12.6799 16.9819C12.6799 16.9363 12.7185 16.8476 12.8011 16.7184C12.8809 16.5841 13.0103 16.4042 13.1866 16.1813C13.3683 15.9532 13.4895 15.7911 13.55 15.6948C15.0315 13.2699 16.3752 11.1188 17.5813 9.23869C18.7929 7.35355 19.4785 6.26656 19.641 5.97518C19.8089 5.68632 19.9549 5.46588 20.0815 5.31639C20.3018 5.19477 20.5579 5.13396 20.8526 5.13396C21.1444 5.13396 21.3317 5.14409 21.4143 5.16436C21.5024 5.18463 21.574 5.23024 21.6346 5.29612C21.7007 5.35693 21.7475 5.41268 21.7778 5.45828C21.8053 5.49882 21.8493 5.58497 21.9099 5.71166C21.976 5.84088 22.0751 6.04105 22.2073 6.30963C22.345 6.58075 22.7856 7.36876 23.529 8.67112C24.2698 9.97602 24.7654 10.8856 25.016 11.3975C25.2638 11.9118 25.5061 12.4186 25.7429 12.9177C26.2331 13.9515 26.6819 14.7978 27.0867 15.4515C27.4887 16.1078 27.6925 16.536 27.6925 16.7387C27.6925 16.8603 27.4997 17.0073 27.1197 17.1745C26.7452 17.3367 26.4836 17.4177 26.3377 17.4177C26.0734 17.4177 25.831 17.1112 25.6107 16.4954L25.2583 15.8468C25.0215 15.3806 24.7076 14.7699 24.3111 14.0123C23.9145 13.2573 23.5345 12.5427 23.1766 11.8738C22.8957 11.889 22.6066 11.8941 22.3064 11.8941C22.0201 11.9144 21.4501 11.9245 20.5992 11.9245ZM18.0769 10.7488L20.1036 10.7286H22.5818C22.4634 10.5005 22.3202 10.2167 22.1522 9.8772C21.9815 9.53261 21.8824 9.33751 21.8549 9.28936C21.8246 9.23615 21.7778 9.14747 21.7117 9.02585C21.6511 8.89916 21.5905 8.77754 21.5244 8.66099C21.4638 8.54697 21.395 8.41268 21.3152 8.25558C21.2325 8.09342 21.1554 7.94899 21.0839 7.81977C21.0095 7.69308 20.9352 7.57146 20.8636 7.4549C20.7011 7.19139 20.5882 7.05963 20.5221 7.05963C20.4615 7.05963 20.3817 7.12045 20.2798 7.24207C20.1834 7.35862 20.0705 7.51318 19.9384 7.70828C19.8117 7.90592 19.696 8.09342 19.5859 8.27585C19.2472 8.84342 19.049 9.16774 18.9911 9.24882C18.9388 9.32484 18.8727 9.43126 18.7929 9.57315C18.7103 9.70997 18.5974 9.89241 18.4514 10.1204C18.311 10.3434 18.1871 10.5537 18.0769 10.7488Z" fill="#0CABC6"/>
<path d="M29.5658 13.465L29.5438 11.3569C29.6016 8.7218 29.6319 7.21673 29.6319 6.83666C29.6319 6.45153 29.6236 6.16774 29.6099 5.98531C29.6016 5.80288 29.6016 5.68126 29.6099 5.62045C29.6236 5.55457 29.6484 5.46842 29.687 5.36707C29.753 5.21251 29.9513 5.13396 30.2817 5.13396C30.458 5.13396 30.7278 5.31639 31.0968 5.68126C31.6172 6.12213 32.212 6.66183 32.8811 7.30288C33.5475 7.93886 33.9826 8.34173 34.1808 8.50896C34.3791 8.67112 35.4943 9.7049 37.5292 11.6103C39.5613 13.5157 40.6628 14.5546 40.8335 14.7218C40.8996 14.2708 40.9326 13.7235 40.9326 13.0799L40.9546 10.9313C40.9546 9.70237 40.9767 7.83751 41.0207 5.33666C41.6293 5.25558 41.9817 5.21504 42.0781 5.21504C42.18 5.21504 42.2543 5.24291 42.2984 5.29612C42.3479 5.34426 42.3755 5.48362 42.3755 5.71166L42.2653 11.0529C42.2653 12.5681 42.2378 14.0731 42.1882 15.5731L42.1772 16.2725C42.1772 16.7336 42.1332 17.0326 42.0451 17.1745C41.9569 17.3164 41.7587 17.3873 41.4503 17.3873C41.252 17.3873 41.0593 17.3164 40.8775 17.1745C40.7013 17.0326 40.5691 16.9262 40.481 16.8502C40.3984 16.7767 40.2965 16.6779 40.1726 16.5563C40.0459 16.4296 39.9578 16.3409 39.9083 16.2927L38.0138 14.5191C34.8857 11.5799 33.0353 9.8468 32.4626 9.31977C31.8898 8.79274 31.5704 8.49376 31.5043 8.41774C31.4437 8.34426 31.3887 8.28345 31.3391 8.23531C31.2124 8.12129 31.0968 8.06301 30.9867 8.06301C30.9123 8.06301 30.8765 8.17197 30.8765 8.38734L30.9096 11.3569L30.8545 16.2623V16.688C30.8545 17.0731 30.5598 17.2657 29.9733 17.2657C29.7751 17.2657 29.6484 17.2201 29.5988 17.134C29.5465 17.0402 29.5217 16.8274 29.5217 16.4954L29.5658 13.465Z" fill="#0CABC6"/>
<path d="M52.1495 11.9245L48.9223 11.9042C47.6006 14.1137 46.8571 15.34 46.6974 15.5833C46.5349 15.8215 46.3807 16.085 46.2348 16.3738C45.8878 17.0706 45.607 17.4177 45.3867 17.4177C44.8497 17.4177 44.4725 17.3063 44.2522 17.0833C44.2357 17.0579 44.2302 17.0225 44.2302 16.9819C44.2302 16.9363 44.2687 16.8476 44.3513 16.7184C44.4312 16.5841 44.5606 16.4042 44.7368 16.1813C44.9186 15.9532 45.0397 15.7911 45.1003 15.6948C46.5817 13.2699 47.9255 11.1188 49.1316 9.23869C50.3431 7.35355 51.0288 6.26656 51.1913 5.97518C51.3592 5.68632 51.5052 5.46588 51.6318 5.31639C51.8521 5.19477 52.1082 5.13396 52.4028 5.13396C52.6947 5.13396 52.882 5.14409 52.9646 5.16436C53.0527 5.18463 53.1243 5.23024 53.1848 5.29612C53.2509 5.35693 53.2977 5.41268 53.328 5.45828C53.3556 5.49882 53.3996 5.58497 53.4602 5.71166C53.5263 5.84088 53.6254 6.04105 53.7576 6.30963C53.8953 6.58075 54.3358 7.36876 55.0793 8.67112C55.82 9.97602 56.3157 10.8856 56.5663 11.3975C56.8141 11.9118 57.0564 12.4186 57.2932 12.9177C57.7833 13.9515 58.2322 14.7978 58.6369 15.4515C59.039 16.1078 59.2427 16.536 59.2427 16.7387C59.2427 16.8603 59.05 17.0073 58.67 17.1745C58.2955 17.3367 58.0339 17.4177 57.888 17.4177C57.6236 17.4177 57.3813 17.1112 57.161 16.4954L56.8086 15.8468C56.5718 15.3806 56.2579 14.7699 55.8613 14.0123C55.4648 13.2573 55.0848 12.5427 54.7269 11.8738C54.446 11.889 54.1569 11.8941 53.8567 11.8941C53.5704 11.9144 53.0004 11.9245 52.1495 11.9245ZM49.6272 10.7488L51.6539 10.7286H54.1321C54.0137 10.5005 53.8705 10.2167 53.7025 9.8772C53.5318 9.53261 53.4327 9.33751 53.4051 9.28936C53.3748 9.23615 53.328 9.14747 53.2619 9.02585C53.2014 8.89916 53.1408 8.77754 53.0747 8.66099C53.0141 8.54697 52.9453 8.41268 52.8654 8.25558C52.7828 8.09342 52.7057 7.94899 52.6341 7.81977C52.5598 7.69308 52.4854 7.57146 52.4138 7.4549C52.2514 7.19139 52.1385 7.05963 52.0724 7.05963C52.0118 7.05963 51.932 7.12045 51.8301 7.24207C51.7337 7.35862 51.6208 7.51318 51.4886 7.70828C51.362 7.90592 51.2463 8.09342 51.1362 8.27585C50.7975 8.84342 50.5992 9.16774 50.5414 9.24882C50.4891 9.32484 50.423 9.43126 50.3431 9.57315C50.2605 9.70997 50.1476 9.89241 50.0017 10.1204C49.8613 10.3434 49.7374 10.5537 49.6272 10.7488Z" fill="#0CABC6"/>
<path d="M61.1491 16.1103L61.072 8.63059C61.072 7.08498 61.0968 6.00305 61.1491 5.38734C61.1629 5.30119 61.4245 5.25559 61.9311 5.25559C62.4378 5.25559 62.7297 5.28346 62.8123 5.33667C62.8921 5.39241 62.9335 5.48363 62.9335 5.61032C62.9335 8.02248 62.9555 9.6441 62.9995 10.4752C63.2694 10.2927 64.1285 9.56809 65.5769 8.29613C67.0225 7.0191 67.8927 6.2539 68.1873 5.99545C68.4874 5.73954 68.6829 5.56977 68.7711 5.48869C68.8592 5.40254 68.9308 5.32653 68.9913 5.26572C69.1676 5.13143 69.3108 5.06302 69.4209 5.06302C69.531 5.06302 69.6687 5.14917 69.8394 5.3164C70.0157 5.47856 70.1038 5.60018 70.1038 5.68126C70.1038 5.75727 70.0652 5.83329 69.9936 5.91437C69.9193 5.99545 69.8202 6.09173 69.6963 6.19815C69.5696 6.30711 69.4897 6.37805 69.4539 6.41099C68.3085 7.52586 66.8325 8.86369 65.0262 10.4245C64.6517 10.7235 64.4644 10.9009 64.4644 10.9617C64.4644 11.0225 64.525 11.0934 64.6517 11.1745C64.7756 11.2556 64.9215 11.3443 65.0923 11.438C65.2685 11.5343 65.4502 11.6509 65.643 11.7927C65.833 11.9296 66.2515 12.2564 66.8986 12.7759C67.5512 13.2902 67.967 13.6069 68.1432 13.7286C70.258 15.3578 71.3154 16.3029 71.3154 16.5664C71.3154 16.6956 71.1777 16.8705 70.9078 17.0934C70.6352 17.3088 70.4397 17.4177 70.3241 17.4177C70.2139 17.4177 70.1065 17.3924 70.0047 17.3468C69.9083 17.3063 69.8312 17.2607 69.7734 17.215C69.487 16.9667 69.3135 16.8248 69.2557 16.7894H69.2777L68.3856 16.09C67.8045 15.6314 67.0666 15.0563 66.1717 14.3671C65.2823 13.6728 64.6957 13.2117 64.4094 12.9887C64.1285 12.7607 63.9385 12.6036 63.8366 12.5225C63.7403 12.4414 63.6604 12.3781 63.5943 12.3299C63.4456 12.183 63.2804 12.0867 63.0987 12.0461C63.0106 12.0867 62.9665 12.4515 62.9665 13.1407C62.9665 13.1407 62.9775 13.726 62.9995 14.8941L63.0766 16.3738C63.0766 16.7336 63.0161 16.9617 62.9004 17.063C62.782 17.1644 62.5507 17.215 62.2065 17.215C61.8678 17.215 61.6338 17.1948 61.5016 17.1542C61.3749 17.1137 61.2868 17.0275 61.2372 16.8907C61.1767 16.7235 61.1491 16.4625 61.1491 16.1103Z" fill="#0CABC6"/>
<path d="M84.2933 11.9245L81.0661 11.9042C79.7444 14.1137 79.0009 15.34 78.8412 15.5833C78.6787 15.8215 78.5245 16.085 78.3786 16.3738C78.0317 17.0706 77.7508 17.4177 77.5305 17.4177C76.9935 17.4177 76.6163 17.3063 76.396 17.0833C76.3795 17.0579 76.374 17.0225 76.374 16.9819C76.374 16.9363 76.4125 16.8476 76.4952 16.7184C76.575 16.5841 76.7044 16.4042 76.8807 16.1813C77.0624 15.9532 77.1835 15.7911 77.2441 15.6948C78.7256 13.2699 80.0693 11.1188 81.2754 9.23869C82.487 7.35355 83.1726 6.26656 83.3351 5.97518C83.503 5.68632 83.649 5.46588 83.7756 5.31639C83.9959 5.19477 84.252 5.13396 84.5466 5.13396C84.8385 5.13396 85.0258 5.14409 85.1084 5.16436C85.1965 5.18463 85.2681 5.23024 85.3287 5.29612C85.3947 5.35693 85.4416 5.41268 85.4718 5.45828C85.4994 5.49882 85.5434 5.58497 85.604 5.71166C85.6701 5.84088 85.7692 6.04105 85.9014 6.30963C86.0391 6.58075 86.4797 7.36876 87.2231 8.67112C87.9638 9.97602 88.4595 10.8856 88.7101 11.3975C88.9579 11.9118 89.2002 12.4186 89.437 12.9177C89.9271 13.9515 90.376 14.7978 90.7808 15.4515C91.1828 16.1078 91.3865 16.536 91.3865 16.7387C91.3865 16.8603 91.1938 17.0073 90.8138 17.1745C90.4393 17.3367 90.1777 17.4177 90.0318 17.4177C89.7674 17.4177 89.5251 17.1112 89.3048 16.4954L88.9524 15.8468C88.7156 15.3806 88.4017 14.7699 88.0051 14.0123C87.6086 13.2573 87.2286 12.5427 86.8707 11.8738C86.5898 11.889 86.3007 11.8941 86.0005 11.8941C85.7142 11.9144 85.1442 11.9245 84.2933 11.9245ZM81.771 10.7488L83.7977 10.7286H86.2759C86.1575 10.5005 86.0143 10.2167 85.8463 9.8772C85.6756 9.53261 85.5765 9.33751 85.5489 9.28936C85.5187 9.23615 85.4718 9.14747 85.4058 9.02585C85.3452 8.89916 85.2846 8.77754 85.2185 8.66099C85.1579 8.54697 85.0891 8.41268 85.0092 8.25558C84.9266 8.09342 84.8495 7.94899 84.7779 7.81977C84.7036 7.69308 84.6292 7.57146 84.5577 7.4549C84.3952 7.19139 84.2823 7.05963 84.2162 7.05963C84.1556 7.05963 84.0758 7.12045 83.9739 7.24207C83.8775 7.35862 83.7646 7.51318 83.6324 7.70828C83.5058 7.90592 83.3901 8.09342 83.28 8.27585C82.9413 8.84342 82.743 9.16774 82.6852 9.24882C82.6329 9.32484 82.5668 9.43126 82.487 9.57315C82.4043 9.70997 82.2914 9.89241 82.1455 10.1204C82.0051 10.3434 81.8812 10.5537 81.771 10.7488Z" fill="#0CABC6"/>
<path d="M94.2402 17.2454L93.6234 17.2353C93.549 17.2353 93.4582 17.2277 93.348 17.215C93.2737 16.6829 93.2379 15.9177 93.2379 14.9245L93.2158 12.6542V10.6982C93.2158 9.76572 93.2296 8.44562 93.2599 6.73531V5.86369C93.2599 5.67619 93.337 5.53683 93.4912 5.44815C93.6509 5.3544 93.8134 5.30119 93.9758 5.28599C94.1355 5.27332 94.3173 5.26572 94.5155 5.26572H94.89C96.6578 5.26572 98.1282 5.60018 99.2958 6.2691C100.463 6.93295 101.047 7.83497 101.047 8.97518C101.047 9.69984 100.81 10.3738 100.342 11.0022L98.7671 12.4515C98.7671 12.4997 99.1581 12.8823 99.9456 13.5968C101.207 14.7269 101.945 15.3983 102.159 15.6137C102.372 15.8316 102.515 15.976 102.589 16.0495C102.669 16.1255 102.735 16.1813 102.787 16.2218C102.911 16.3637 102.969 16.4752 102.964 16.5563C102.955 16.6323 102.823 16.7944 102.567 17.0427C102.316 17.2911 102.129 17.4177 102.005 17.4177C101.887 17.4177 101.735 17.3291 101.554 17.1542C101.377 16.9794 101.204 16.8248 101.036 16.688C100.865 16.5537 100.551 16.2623 100.089 15.8164C99.6262 15.3704 99.0424 14.8282 98.3375 14.1846C97.6326 13.5436 97.2526 13.2218 97.203 13.2218L95.1433 13.6171C95.1213 13.7058 95.1103 14.286 95.1103 15.3603C95.1103 16.4346 95.058 17.0199 94.9561 17.1137C94.8597 17.2024 94.6202 17.2454 94.2402 17.2454ZM95.1103 6.54274C95.0718 6.72518 95.0552 7.42197 95.0552 8.63058C95.0552 9.83413 95.08 11.1593 95.1323 12.6036C96.1814 12.5503 97.1314 12.1956 97.985 11.5394C98.8359 10.8857 99.2627 10.1483 99.2627 9.32991C99.2627 8.51403 98.9047 7.84004 98.1943 7.31301C97.4894 6.78092 96.6027 6.51234 95.5399 6.51234C95.4517 6.51234 95.3086 6.52247 95.1103 6.54274Z" fill="#0CABC6"/>
<path d="M107.255 12.5934L107.299 9.68463V8.42788C107.299 8.13143 107.313 7.7843 107.343 7.38396C107.371 6.98616 107.376 6.74291 107.354 6.65423C107.302 6.58075 106.825 6.55034 105.922 6.56301L103.323 6.58328C103.284 6.58328 103.196 6.59089 103.058 6.60355C102.926 6.61116 102.811 6.61369 102.717 6.61369C102.629 6.60862 102.535 6.59089 102.442 6.56301C102.205 6.53007 102.089 6.40845 102.089 6.19815C102.089 5.99038 102.106 5.82315 102.144 5.70153C102.18 5.57991 102.232 5.49376 102.298 5.43801C102.365 5.3848 102.455 5.35187 102.574 5.33666C102.689 5.32399 102.833 5.32146 103.003 5.32653C103.171 5.33413 103.416 5.32653 103.741 5.30626C104.072 5.28092 104.989 5.26572 106.495 5.26572L110.229 5.28599L113.731 5.26572L114.513 5.25558H114.789C115.023 5.25558 115.169 5.32399 115.229 5.45828C115.243 5.49882 115.251 5.55963 115.251 5.64072C115.251 6.04105 115.188 6.28683 115.064 6.38058C114.981 6.45659 114.673 6.49207 114.139 6.49207H113.269C112.688 6.49207 112.17 6.5098 111.716 6.54274C111.267 6.57061 110.562 6.58328 109.601 6.58328C109.408 6.58328 109.295 6.61369 109.26 6.6745C109.221 6.73531 109.204 6.86453 109.204 7.05963L109.182 10.1509V12.6441C109.182 14.1644 109.166 15.1525 109.138 15.6036C109.108 16.0495 109.089 16.3409 109.083 16.4752C109.075 16.6044 109.067 16.6855 109.061 16.7184C109.061 16.7463 109.05 16.7995 109.028 16.8806C109.012 16.9566 108.987 17.0022 108.951 17.0225C108.921 17.0377 108.88 17.063 108.83 17.1036C108.786 17.1441 108.723 17.1694 108.643 17.1745C108.56 17.1821 108.466 17.1922 108.356 17.2049C108.246 17.2125 108.084 17.215 107.872 17.215C107.657 17.215 107.519 17.1948 107.453 17.1542C107.393 17.1086 107.349 16.987 107.321 16.7894C107.291 16.5867 107.271 16.2978 107.266 15.9177C107.258 15.5326 107.249 15.2286 107.244 15.0056C107.244 14.7826 107.244 14.5698 107.244 14.3671L107.255 12.5934Z" fill="#0CABC6"/>
<path d="M117.164 7.51572L117.142 6.11707C117.142 5.66606 117.167 5.39494 117.219 5.30626C117.241 5.28092 117.357 5.26572 117.572 5.26572C117.784 5.26572 117.968 5.26572 118.123 5.26572H118.497C118.761 5.26572 118.91 5.30119 118.949 5.36707C118.984 5.42788 119.004 5.49376 119.004 5.55964V9.68464L119.015 12.3806L119.004 14.2454V16.1103C119.004 16.1863 119.004 16.2927 119.004 16.4346C119.009 16.5765 119.009 16.6677 119.004 16.7083C119.004 16.7488 118.993 16.8147 118.971 16.9009C118.954 16.9819 118.927 17.0326 118.883 17.0529C118.844 17.0731 118.789 17.1036 118.717 17.1441C118.607 17.1922 118.365 17.215 117.99 17.215C117.616 17.215 117.374 17.1948 117.263 17.1542C117.159 17.1137 117.109 17.0098 117.109 16.84L117.142 16.2725L117.131 14.4177L117.109 12.1779C117.093 11.9144 117.087 11.6204 117.087 11.2961L117.164 7.51572Z" fill="#0CABC6"/>
<path d="M127.513 6.4414C127.108 6.31977 126.615 6.25896 126.037 6.25896C125.464 6.25896 124.946 6.39579 124.484 6.66437C124.026 6.92788 123.801 7.31048 123.801 7.80964C123.801 8.30373 123.96 8.73194 124.285 9.0968C124.607 9.4566 124.996 9.78599 125.453 10.09C125.907 10.3941 126.359 10.7159 126.808 11.0529C127.262 11.3848 127.65 11.8003 127.975 12.2995C128.297 12.8012 128.46 13.3637 128.46 13.9921C128.46 14.6154 128.176 15.2463 127.612 15.8873C126.678 16.9085 125.144 17.4177 123.008 17.4177C122.705 17.4177 122.44 17.4025 122.215 17.3772C121.986 17.3493 121.81 17.3291 121.686 17.3164C121.559 17.3012 121.433 17.286 121.3 17.2657C121.006 17.2176 120.86 17.1517 120.86 17.063C120.86 16.4625 120.975 16.09 121.212 15.9482C121.719 16.0976 122.237 16.1711 122.765 16.1711C125.334 16.1711 126.62 15.4971 126.62 14.1441C126.62 13.4346 126.075 12.7125 124.99 11.9752C124.533 11.6711 124.079 11.3544 123.624 11.0225C123.176 10.6931 122.79 10.2801 122.468 9.78599C122.143 9.28684 121.983 8.74207 121.983 8.15423C121.983 7.25727 122.405 6.51741 123.25 5.93464C124.101 5.3544 125.095 5.06302 126.235 5.06302C126.483 5.06302 126.813 5.09089 127.226 5.1441C127.636 5.19224 127.857 5.25559 127.887 5.33667C127.923 5.41775 127.942 5.50896 127.942 5.61032C127.942 5.71167 127.904 5.86369 127.832 6.0664C127.758 6.26403 127.65 6.38819 127.513 6.4414Z" fill="#0CABC6"/>
<path d="M135.058 12.5934L135.103 9.68463V8.42788C135.103 8.13143 135.116 7.7843 135.147 7.38396C135.174 6.98616 135.18 6.74291 135.158 6.65423C135.105 6.58075 134.629 6.55034 133.726 6.56301L131.126 6.58328C131.088 6.58328 131 6.59089 130.862 6.60355C130.73 6.61116 130.614 6.61369 130.521 6.61369C130.432 6.60862 130.339 6.59089 130.245 6.56301C130.008 6.53007 129.893 6.40845 129.893 6.19815C129.893 5.99038 129.909 5.82315 129.948 5.70153C129.984 5.57991 130.036 5.49376 130.102 5.43801C130.168 5.3848 130.259 5.35187 130.377 5.33666C130.493 5.32399 130.636 5.32146 130.807 5.32653C130.975 5.33413 131.22 5.32653 131.545 5.30626C131.875 5.28092 132.792 5.26572 134.298 5.26572L138.032 5.28599L141.535 5.26572L142.317 5.25558H142.592C142.826 5.25558 142.972 5.32399 143.033 5.45828C143.047 5.49882 143.055 5.55963 143.055 5.64072C143.055 6.04105 142.992 6.28683 142.868 6.38058C142.785 6.45659 142.477 6.49207 141.942 6.49207H141.072C140.491 6.49207 139.974 6.5098 139.519 6.54274C139.07 6.57061 138.366 6.58328 137.405 6.58328C137.212 6.58328 137.099 6.61369 137.063 6.6745C137.025 6.73531 137.008 6.86453 137.008 7.05963L136.986 10.1509V12.6441C136.986 14.1644 136.969 15.1525 136.942 15.6036C136.912 16.0495 136.892 16.3409 136.887 16.4752C136.879 16.6044 136.87 16.6855 136.865 16.7184C136.865 16.7463 136.854 16.7995 136.832 16.8806C136.815 16.9566 136.79 17.0022 136.755 17.0225C136.724 17.0377 136.683 17.063 136.634 17.1036C136.589 17.1441 136.526 17.1694 136.446 17.1745C136.364 17.1821 136.27 17.1922 136.16 17.2049C136.05 17.2125 135.887 17.215 135.675 17.215C135.46 17.215 135.323 17.1948 135.257 17.1542C135.196 17.1086 135.152 16.987 135.125 16.7894C135.094 16.5867 135.075 16.2978 135.069 15.9177C135.061 15.5326 135.053 15.2286 135.047 15.0056C135.047 14.7826 135.047 14.5698 135.047 14.3671L135.058 12.5934Z" fill="#0CABC6"/>
<path d="M145.915 17.2454L145.298 17.2353C145.224 17.2353 145.133 17.2277 145.023 17.215C144.949 16.6829 144.913 15.9177 144.913 14.9245L144.891 12.6542V10.6982C144.891 9.76572 144.905 8.44562 144.935 6.73531V5.86369C144.935 5.67619 145.012 5.53683 145.166 5.44815C145.326 5.3544 145.488 5.30119 145.651 5.28599C145.811 5.27332 145.992 5.26572 146.191 5.26572H146.565C148.333 5.26572 149.803 5.60018 150.971 6.2691C152.138 6.93295 152.722 7.83497 152.722 8.97518C152.722 9.69984 152.485 10.3738 152.017 11.0022L150.442 12.4515C150.442 12.4997 150.833 12.8823 151.621 13.5968C152.882 14.7269 153.62 15.3983 153.834 15.6137C154.046 15.8316 154.19 15.976 154.264 16.0495C154.344 16.1255 154.41 16.1813 154.462 16.2218C154.586 16.3637 154.644 16.4752 154.639 16.5563C154.63 16.6323 154.498 16.7944 154.242 17.0427C153.991 17.2911 153.804 17.4177 153.68 17.4177C153.562 17.4177 153.41 17.3291 153.229 17.1542C153.052 16.9794 152.879 16.8248 152.711 16.688C152.54 16.5537 152.226 16.2623 151.764 15.8164C151.301 15.3704 150.717 14.8282 150.012 14.1846C149.308 13.5436 148.928 13.2218 148.878 13.2218L146.818 13.6171C146.796 13.7058 146.785 14.286 146.785 15.3603C146.785 16.4346 146.733 17.0199 146.631 17.1137C146.535 17.2024 146.295 17.2454 145.915 17.2454ZM146.785 6.54274C146.747 6.72518 146.73 7.42197 146.73 8.63058C146.73 9.83413 146.755 11.1593 146.807 12.6036C147.856 12.5503 148.806 12.1956 149.66 11.5394C150.511 10.8857 150.938 10.1483 150.938 9.32991C150.938 8.51403 150.58 7.84004 149.869 7.31301C149.164 6.78092 148.278 6.51234 147.215 6.51234C147.127 6.51234 146.984 6.52247 146.785 6.54274Z" fill="#0CABC6"/>
<path d="M159.235 13.0799L159.268 11.3265C159.268 11.1796 159.248 11.0782 159.213 11.0225C159.174 10.9617 159.149 10.9211 159.136 10.9009C159.127 10.8806 159.105 10.8552 159.07 10.8198C159.039 10.7792 159.014 10.7488 158.992 10.7286C158.976 10.7083 158.948 10.6779 158.904 10.6373C158.86 10.5968 158.827 10.5715 158.805 10.5563C158.731 10.5031 158.334 10.1661 157.616 9.54275C156.894 8.91437 156.498 8.56471 156.426 8.48869C156.352 8.41521 156.173 8.25305 155.886 8.00221C155.606 7.7539 155.38 7.55119 155.203 7.3941C155.033 7.23954 154.843 7.05457 154.631 6.83667C154.182 6.41859 153.959 6.14241 153.959 6.00559C153.951 5.99292 153.948 5.98025 153.948 5.96504C153.948 5.8789 154.105 5.71167 154.421 5.46842C154.744 5.22011 154.986 5.08329 155.148 5.06302C155.33 5.06302 155.6 5.25559 155.952 5.64072C156.046 5.74207 156.696 6.36032 157.902 7.49545C159.105 8.63059 159.741 9.23363 159.807 9.2995C159.879 9.36792 159.973 9.46167 160.083 9.58329C160.303 9.83413 160.449 9.95829 160.523 9.95829C160.603 9.95829 161 9.60103 161.713 8.88396C162.432 8.16944 162.936 7.64494 163.222 7.31302C163.514 6.98363 163.952 6.52755 164.533 5.94477C165.111 5.35694 165.452 5.06302 165.557 5.06302C165.667 5.06302 165.824 5.1517 166.031 5.32653C166.243 5.4963 166.353 5.60778 166.361 5.66099C166.367 5.71673 166.344 5.77755 166.295 5.84342C166.243 5.90423 166.168 5.98025 166.075 6.0664C165.987 6.14748 165.893 6.2463 165.799 6.36032C165.513 6.67957 164.907 7.29275 163.982 8.20491C162.071 10.0368 161.118 11.0503 161.118 11.2455V14.438L161.162 15.938C161.162 16.3916 161.14 16.6677 161.096 16.7691C161.052 16.8705 160.986 16.9617 160.898 17.0427C160.771 17.1593 160.54 17.215 160.204 17.215C159.874 17.215 159.656 17.2125 159.554 17.2049C159.458 17.1998 159.361 17.1644 159.268 17.1036C159.18 17.0427 159.136 16.9465 159.136 16.8096L159.191 15.7455L159.235 13.0799Z" fill="#0CABC6"/>
</g>
</svg>
