<svg xmlns="http://www.w3.org/2000/svg" xmlns:xlink="http://www.w3.org/1999/xlink" width="255" zoomAndPan="magnify" viewBox="65 175 255 25" height="25" preserveAspectRatio="xMidYMid meet" version="1.0"><defs><g/><clipPath id="2b0e38bbf9"><rect x="0" width="244" y="0" height="37"/></clipPath></defs><g transform="matrix(1, 0, 0, 1, 68, 169)"><g clip-path="url(#2b0e38bbf9)"><g fill="#0cabc6" fill-opacity="1"><g transform="translate(0.54592, 26.539877)"><g><path d="M 2.421875 -1.703125 L 2.3125 -13.234375 C 2.3125 -15.617188 2.347656 -17.285156 2.421875 -18.234375 C 2.441406 -18.367188 2.8125 -18.4375 3.53125 -18.4375 C 4.25 -18.4375 4.664062 -18.394531 4.78125 -18.3125 C 4.894531 -18.226562 4.953125 -18.085938 4.953125 -17.890625 C 4.953125 -14.171875 4.984375 -11.671875 5.046875 -10.390625 C 5.429688 -10.671875 6.648438 -11.789062 8.703125 -13.75 C 10.753906 -15.71875 11.988281 -16.898438 12.40625 -17.296875 C 12.832031 -17.691406 13.109375 -17.953125 13.234375 -18.078125 C 13.359375 -18.210938 13.460938 -18.328125 13.546875 -18.421875 C 13.796875 -18.628906 14 -18.734375 14.15625 -18.734375 C 14.3125 -18.734375 14.507812 -18.601562 14.75 -18.34375 C 15 -18.09375 15.125 -17.90625 15.125 -17.78125 C 15.125 -17.664062 15.070312 -17.546875 14.96875 -17.421875 C 14.863281 -17.296875 14.722656 -17.148438 14.546875 -16.984375 C 14.367188 -16.816406 14.253906 -16.707031 14.203125 -16.65625 C 12.578125 -14.9375 10.484375 -12.875 7.921875 -10.46875 C 7.390625 -10.007812 7.125 -9.734375 7.125 -9.640625 C 7.125 -9.546875 7.210938 -9.4375 7.390625 -9.3125 C 7.566406 -9.1875 7.773438 -9.050781 8.015625 -8.90625 C 8.265625 -8.757812 8.523438 -8.578125 8.796875 -8.359375 C 9.066406 -8.148438 9.660156 -7.644531 10.578125 -6.84375 C 11.503906 -6.050781 12.09375 -5.5625 12.34375 -5.375 C 15.34375 -2.863281 16.84375 -1.40625 16.84375 -1 C 16.84375 -0.800781 16.648438 -0.53125 16.265625 -0.1875 C 15.878906 0.144531 15.601562 0.3125 15.4375 0.3125 C 15.28125 0.3125 15.128906 0.273438 14.984375 0.203125 C 14.847656 0.140625 14.738281 0.0703125 14.65625 0 C 14.25 -0.382812 14.003906 -0.601562 13.921875 -0.65625 L 13.953125 -0.65625 L 12.6875 -1.734375 C 11.863281 -2.441406 10.816406 -3.328125 9.546875 -4.390625 C 8.285156 -5.460938 7.453125 -6.171875 7.046875 -6.515625 C 6.648438 -6.867188 6.378906 -7.109375 6.234375 -7.234375 C 6.097656 -7.359375 5.984375 -7.457031 5.890625 -7.53125 C 5.679688 -7.757812 5.445312 -7.90625 5.1875 -7.96875 C 5.0625 -7.90625 5 -7.34375 5 -6.28125 C 5 -6.28125 5.015625 -5.378906 5.046875 -3.578125 L 5.15625 -1.296875 C 5.15625 -0.742188 5.070312 -0.390625 4.90625 -0.234375 C 4.738281 -0.078125 4.410156 0 3.921875 0 C 3.441406 0 3.109375 -0.03125 2.921875 -0.09375 C 2.742188 -0.15625 2.617188 -0.289062 2.546875 -0.5 C 2.460938 -0.757812 2.421875 -1.160156 2.421875 -1.703125 Z M 2.421875 -1.703125 "/></g></g></g><g fill="#0cabc6" fill-opacity="1"><g transform="translate(17.675283, 26.539877)"><g><path d="M 11.546875 -8.15625 L 6.96875 -8.1875 C 5.09375 -4.78125 4.039062 -2.890625 3.8125 -2.515625 C 3.582031 -2.148438 3.363281 -1.742188 3.15625 -1.296875 C 2.664062 -0.222656 2.265625 0.3125 1.953125 0.3125 C 1.191406 0.3125 0.65625 0.140625 0.34375 -0.203125 C 0.320312 -0.242188 0.3125 -0.296875 0.3125 -0.359375 C 0.3125 -0.429688 0.367188 -0.566406 0.484375 -0.765625 C 0.597656 -0.972656 0.78125 -1.25 1.03125 -1.59375 C 1.289062 -1.945312 1.460938 -2.195312 1.546875 -2.34375 C 3.648438 -6.082031 5.554688 -9.398438 7.265625 -12.296875 C 8.984375 -15.203125 9.957031 -16.878906 10.1875 -17.328125 C 10.425781 -17.773438 10.632812 -18.113281 10.8125 -18.34375 C 11.125 -18.53125 11.488281 -18.625 11.90625 -18.625 C 12.320312 -18.625 12.585938 -18.609375 12.703125 -18.578125 C 12.828125 -18.546875 12.929688 -18.476562 13.015625 -18.375 C 13.109375 -18.28125 13.175781 -18.195312 13.21875 -18.125 C 13.257812 -18.0625 13.320312 -17.929688 13.40625 -17.734375 C 13.5 -17.535156 13.640625 -17.226562 13.828125 -16.8125 C 14.023438 -16.394531 14.648438 -15.179688 15.703125 -13.171875 C 16.753906 -11.160156 17.457031 -9.757812 17.8125 -8.96875 C 18.164062 -8.175781 18.507812 -7.394531 18.84375 -6.625 C 19.539062 -5.03125 20.175781 -3.726562 20.75 -2.71875 C 21.320312 -1.707031 21.609375 -1.046875 21.609375 -0.734375 C 21.609375 -0.546875 21.335938 -0.320312 20.796875 -0.0625 C 20.265625 0.1875 19.894531 0.3125 19.6875 0.3125 C 19.3125 0.3125 18.96875 -0.160156 18.65625 -1.109375 L 18.15625 -2.109375 C 17.820312 -2.828125 17.375 -3.769531 16.8125 -4.9375 C 16.25 -6.101562 15.710938 -7.203125 15.203125 -8.234375 C 14.804688 -8.210938 14.394531 -8.203125 13.96875 -8.203125 C 13.5625 -8.171875 12.753906 -8.15625 11.546875 -8.15625 Z M 7.96875 -9.96875 L 10.84375 -10 L 14.359375 -10 C 14.191406 -10.351562 13.988281 -10.789062 13.75 -11.3125 C 13.507812 -11.84375 13.367188 -12.144531 13.328125 -12.21875 C 13.285156 -12.300781 13.21875 -12.4375 13.125 -12.625 C 13.039062 -12.820312 12.953125 -13.007812 12.859375 -13.1875 C 12.773438 -13.363281 12.675781 -13.570312 12.5625 -13.8125 C 12.445312 -14.0625 12.335938 -14.285156 12.234375 -14.484375 C 12.128906 -14.679688 12.023438 -14.867188 11.921875 -15.046875 C 11.691406 -15.453125 11.53125 -15.65625 11.4375 -15.65625 C 11.351562 -15.65625 11.238281 -15.5625 11.09375 -15.375 C 10.957031 -15.195312 10.796875 -14.957031 10.609375 -14.65625 C 10.429688 -14.351562 10.265625 -14.0625 10.109375 -13.78125 C 9.628906 -12.90625 9.347656 -12.40625 9.265625 -12.28125 C 9.191406 -12.164062 9.097656 -12 8.984375 -11.78125 C 8.867188 -11.570312 8.707031 -11.289062 8.5 -10.9375 C 8.300781 -10.59375 8.125 -10.269531 7.96875 -9.96875 Z M 7.96875 -9.96875 "/></g></g></g><g fill="#0cabc6" fill-opacity="1"><g transform="translate(39.56719, 26.539877)"><g><path d="M 2.375 -5.78125 L 2.34375 -9.03125 C 2.425781 -13.09375 2.46875 -15.414062 2.46875 -16 C 2.46875 -16.59375 2.457031 -17.03125 2.4375 -17.3125 C 2.425781 -17.59375 2.425781 -17.78125 2.4375 -17.875 C 2.457031 -17.976562 2.492188 -18.109375 2.546875 -18.265625 C 2.640625 -18.503906 2.921875 -18.625 3.390625 -18.625 C 3.640625 -18.625 4.023438 -18.34375 4.546875 -17.78125 C 5.285156 -17.101562 6.128906 -16.269531 7.078125 -15.28125 C 8.023438 -14.300781 8.640625 -13.679688 8.921875 -13.421875 C 9.203125 -13.171875 10.785156 -11.578125 13.671875 -8.640625 C 16.554688 -5.703125 18.117188 -4.101562 18.359375 -3.84375 C 18.453125 -4.539062 18.5 -5.382812 18.5 -6.375 L 18.53125 -9.6875 C 18.53125 -11.582031 18.5625 -14.457031 18.625 -18.3125 C 19.488281 -18.4375 19.988281 -18.5 20.125 -18.5 C 20.269531 -18.5 20.375 -18.457031 20.4375 -18.375 C 20.507812 -18.300781 20.546875 -18.085938 20.546875 -17.734375 L 20.390625 -9.5 C 20.390625 -7.164062 20.351562 -4.84375 20.28125 -2.53125 L 20.265625 -1.453125 C 20.265625 -0.742188 20.203125 -0.28125 20.078125 -0.0625 C 19.953125 0.15625 19.671875 0.265625 19.234375 0.265625 C 18.953125 0.265625 18.679688 0.15625 18.421875 -0.0625 C 18.171875 -0.28125 17.984375 -0.445312 17.859375 -0.5625 C 17.742188 -0.675781 17.597656 -0.828125 17.421875 -1.015625 C 17.242188 -1.210938 17.117188 -1.347656 17.046875 -1.421875 L 14.359375 -4.15625 C 9.921875 -8.6875 7.296875 -11.359375 6.484375 -12.171875 C 5.671875 -12.984375 5.21875 -13.445312 5.125 -13.5625 C 5.039062 -13.675781 4.960938 -13.769531 4.890625 -13.84375 C 4.710938 -14.019531 4.546875 -14.109375 4.390625 -14.109375 C 4.285156 -14.109375 4.234375 -13.941406 4.234375 -13.609375 L 4.28125 -9.03125 L 4.203125 -1.46875 L 4.203125 -0.8125 C 4.203125 -0.21875 3.785156 0.078125 2.953125 0.078125 C 2.671875 0.078125 2.492188 0.0078125 2.421875 -0.125 C 2.347656 -0.269531 2.3125 -0.597656 2.3125 -1.109375 Z M 2.375 -5.78125 "/></g></g></g><g fill="#0cabc6" fill-opacity="1"><g transform="translate(62.432656, 26.539877)"><g><path d="M 11.546875 -8.15625 L 6.96875 -8.1875 C 5.09375 -4.78125 4.039062 -2.890625 3.8125 -2.515625 C 3.582031 -2.148438 3.363281 -1.742188 3.15625 -1.296875 C 2.664062 -0.222656 2.265625 0.3125 1.953125 0.3125 C 1.191406 0.3125 0.65625 0.140625 0.34375 -0.203125 C 0.320312 -0.242188 0.3125 -0.296875 0.3125 -0.359375 C 0.3125 -0.429688 0.367188 -0.566406 0.484375 -0.765625 C 0.597656 -0.972656 0.78125 -1.25 1.03125 -1.59375 C 1.289062 -1.945312 1.460938 -2.195312 1.546875 -2.34375 C 3.648438 -6.082031 5.554688 -9.398438 7.265625 -12.296875 C 8.984375 -15.203125 9.957031 -16.878906 10.1875 -17.328125 C 10.425781 -17.773438 10.632812 -18.113281 10.8125 -18.34375 C 11.125 -18.53125 11.488281 -18.625 11.90625 -18.625 C 12.320312 -18.625 12.585938 -18.609375 12.703125 -18.578125 C 12.828125 -18.546875 12.929688 -18.476562 13.015625 -18.375 C 13.109375 -18.28125 13.175781 -18.195312 13.21875 -18.125 C 13.257812 -18.0625 13.320312 -17.929688 13.40625 -17.734375 C 13.5 -17.535156 13.640625 -17.226562 13.828125 -16.8125 C 14.023438 -16.394531 14.648438 -15.179688 15.703125 -13.171875 C 16.753906 -11.160156 17.457031 -9.757812 17.8125 -8.96875 C 18.164062 -8.175781 18.507812 -7.394531 18.84375 -6.625 C 19.539062 -5.03125 20.175781 -3.726562 20.75 -2.71875 C 21.320312 -1.707031 21.609375 -1.046875 21.609375 -0.734375 C 21.609375 -0.546875 21.335938 -0.320312 20.796875 -0.0625 C 20.265625 0.1875 19.894531 0.3125 19.6875 0.3125 C 19.3125 0.3125 18.96875 -0.160156 18.65625 -1.109375 L 18.15625 -2.109375 C 17.820312 -2.828125 17.375 -3.769531 16.8125 -4.9375 C 16.25 -6.101562 15.710938 -7.203125 15.203125 -8.234375 C 14.804688 -8.210938 14.394531 -8.203125 13.96875 -8.203125 C 13.5625 -8.171875 12.753906 -8.15625 11.546875 -8.15625 Z M 7.96875 -9.96875 L 10.84375 -10 L 14.359375 -10 C 14.191406 -10.351562 13.988281 -10.789062 13.75 -11.3125 C 13.507812 -11.84375 13.367188 -12.144531 13.328125 -12.21875 C 13.285156 -12.300781 13.21875 -12.4375 13.125 -12.625 C 13.039062 -12.820312 12.953125 -13.007812 12.859375 -13.1875 C 12.773438 -13.363281 12.675781 -13.570312 12.5625 -13.8125 C 12.445312 -14.0625 12.335938 -14.285156 12.234375 -14.484375 C 12.128906 -14.679688 12.023438 -14.867188 11.921875 -15.046875 C 11.691406 -15.453125 11.53125 -15.65625 11.4375 -15.65625 C 11.351562 -15.65625 11.238281 -15.5625 11.09375 -15.375 C 10.957031 -15.195312 10.796875 -14.957031 10.609375 -14.65625 C 10.429688 -14.351562 10.265625 -14.0625 10.109375 -13.78125 C 9.628906 -12.90625 9.347656 -12.40625 9.265625 -12.28125 C 9.191406 -12.164062 9.097656 -12 8.984375 -11.78125 C 8.867188 -11.570312 8.707031 -11.289062 8.5 -10.9375 C 8.300781 -10.59375 8.125 -10.269531 7.96875 -9.96875 Z M 7.96875 -9.96875 "/></g></g></g><g fill="#0cabc6" fill-opacity="1"><g transform="translate(84.324563, 26.539877)"><g><path d="M 2.421875 -1.703125 L 2.3125 -13.234375 C 2.3125 -15.617188 2.347656 -17.285156 2.421875 -18.234375 C 2.441406 -18.367188 2.8125 -18.4375 3.53125 -18.4375 C 4.25 -18.4375 4.664062 -18.394531 4.78125 -18.3125 C 4.894531 -18.226562 4.953125 -18.085938 4.953125 -17.890625 C 4.953125 -14.171875 4.984375 -11.671875 5.046875 -10.390625 C 5.429688 -10.671875 6.648438 -11.789062 8.703125 -13.75 C 10.753906 -15.71875 11.988281 -16.898438 12.40625 -17.296875 C 12.832031 -17.691406 13.109375 -17.953125 13.234375 -18.078125 C 13.359375 -18.210938 13.460938 -18.328125 13.546875 -18.421875 C 13.796875 -18.628906 14 -18.734375 14.15625 -18.734375 C 14.3125 -18.734375 14.507812 -18.601562 14.75 -18.34375 C 15 -18.09375 15.125 -17.90625 15.125 -17.78125 C 15.125 -17.664062 15.070312 -17.546875 14.96875 -17.421875 C 14.863281 -17.296875 14.722656 -17.148438 14.546875 -16.984375 C 14.367188 -16.816406 14.253906 -16.707031 14.203125 -16.65625 C 12.578125 -14.9375 10.484375 -12.875 7.921875 -10.46875 C 7.390625 -10.007812 7.125 -9.734375 7.125 -9.640625 C 7.125 -9.546875 7.210938 -9.4375 7.390625 -9.3125 C 7.566406 -9.1875 7.773438 -9.050781 8.015625 -8.90625 C 8.265625 -8.757812 8.523438 -8.578125 8.796875 -8.359375 C 9.066406 -8.148438 9.660156 -7.644531 10.578125 -6.84375 C 11.503906 -6.050781 12.09375 -5.5625 12.34375 -5.375 C 15.34375 -2.863281 16.84375 -1.40625 16.84375 -1 C 16.84375 -0.800781 16.648438 -0.53125 16.265625 -0.1875 C 15.878906 0.144531 15.601562 0.3125 15.4375 0.3125 C 15.28125 0.3125 15.128906 0.273438 14.984375 0.203125 C 14.847656 0.140625 14.738281 0.0703125 14.65625 0 C 14.25 -0.382812 14.003906 -0.601562 13.921875 -0.65625 L 13.953125 -0.65625 L 12.6875 -1.734375 C 11.863281 -2.441406 10.816406 -3.328125 9.546875 -4.390625 C 8.285156 -5.460938 7.453125 -6.171875 7.046875 -6.515625 C 6.648438 -6.867188 6.378906 -7.109375 6.234375 -7.234375 C 6.097656 -7.359375 5.984375 -7.457031 5.890625 -7.53125 C 5.679688 -7.757812 5.445312 -7.90625 5.1875 -7.96875 C 5.0625 -7.90625 5 -7.34375 5 -6.28125 C 5 -6.28125 5.015625 -5.378906 5.046875 -3.578125 L 5.15625 -1.296875 C 5.15625 -0.742188 5.070312 -0.390625 4.90625 -0.234375 C 4.738281 -0.078125 4.410156 0 3.921875 0 C 3.441406 0 3.109375 -0.03125 2.921875 -0.09375 C 2.742188 -0.15625 2.617188 -0.289062 2.546875 -0.5 C 2.460938 -0.757812 2.421875 -1.160156 2.421875 -1.703125 Z M 2.421875 -1.703125 "/></g></g></g><g fill="#0cabc6" fill-opacity="1"><g transform="translate(101.453925, 26.539877)"><g/></g><g transform="translate(108.03202, 26.539877)"><g><path d="M 11.546875 -8.15625 L 6.96875 -8.1875 C 5.09375 -4.78125 4.039062 -2.890625 3.8125 -2.515625 C 3.582031 -2.148438 3.363281 -1.742188 3.15625 -1.296875 C 2.664062 -0.222656 2.265625 0.3125 1.953125 0.3125 C 1.191406 0.3125 0.65625 0.140625 0.34375 -0.203125 C 0.320312 -0.242188 0.3125 -0.296875 0.3125 -0.359375 C 0.3125 -0.429688 0.367188 -0.566406 0.484375 -0.765625 C 0.597656 -0.972656 0.78125 -1.25 1.03125 -1.59375 C 1.289062 -1.945312 1.460938 -2.195312 1.546875 -2.34375 C 3.648438 -6.082031 5.554688 -9.398438 7.265625 -12.296875 C 8.984375 -15.203125 9.957031 -16.878906 10.1875 -17.328125 C 10.425781 -17.773438 10.632812 -18.113281 10.8125 -18.34375 C 11.125 -18.53125 11.488281 -18.625 11.90625 -18.625 C 12.320312 -18.625 12.585938 -18.609375 12.703125 -18.578125 C 12.828125 -18.546875 12.929688 -18.476562 13.015625 -18.375 C 13.109375 -18.28125 13.175781 -18.195312 13.21875 -18.125 C 13.257812 -18.0625 13.320312 -17.929688 13.40625 -17.734375 C 13.5 -17.535156 13.640625 -17.226562 13.828125 -16.8125 C 14.023438 -16.394531 14.648438 -15.179688 15.703125 -13.171875 C 16.753906 -11.160156 17.457031 -9.757812 17.8125 -8.96875 C 18.164062 -8.175781 18.507812 -7.394531 18.84375 -6.625 C 19.539062 -5.03125 20.175781 -3.726562 20.75 -2.71875 C 21.320312 -1.707031 21.609375 -1.046875 21.609375 -0.734375 C 21.609375 -0.546875 21.335938 -0.320312 20.796875 -0.0625 C 20.265625 0.1875 19.894531 0.3125 19.6875 0.3125 C 19.3125 0.3125 18.96875 -0.160156 18.65625 -1.109375 L 18.15625 -2.109375 C 17.820312 -2.828125 17.375 -3.769531 16.8125 -4.9375 C 16.25 -6.101562 15.710938 -7.203125 15.203125 -8.234375 C 14.804688 -8.210938 14.394531 -8.203125 13.96875 -8.203125 C 13.5625 -8.171875 12.753906 -8.15625 11.546875 -8.15625 Z M 7.96875 -9.96875 L 10.84375 -10 L 14.359375 -10 C 14.191406 -10.351562 13.988281 -10.789062 13.75 -11.3125 C 13.507812 -11.84375 13.367188 -12.144531 13.328125 -12.21875 C 13.285156 -12.300781 13.21875 -12.4375 13.125 -12.625 C 13.039062 -12.820312 12.953125 -13.007812 12.859375 -13.1875 C 12.773438 -13.363281 12.675781 -13.570312 12.5625 -13.8125 C 12.445312 -14.0625 12.335938 -14.285156 12.234375 -14.484375 C 12.128906 -14.679688 12.023438 -14.867188 11.921875 -15.046875 C 11.691406 -15.453125 11.53125 -15.65625 11.4375 -15.65625 C 11.351562 -15.65625 11.238281 -15.5625 11.09375 -15.375 C 10.957031 -15.195312 10.796875 -14.957031 10.609375 -14.65625 C 10.429688 -14.351562 10.265625 -14.0625 10.109375 -13.78125 C 9.628906 -12.90625 9.347656 -12.40625 9.265625 -12.28125 C 9.191406 -12.164062 9.097656 -12 8.984375 -11.78125 C 8.867188 -11.570312 8.707031 -11.289062 8.5 -10.9375 C 8.300781 -10.59375 8.125 -10.269531 7.96875 -9.96875 Z M 7.96875 -9.96875 "/></g></g></g><g fill="#0cabc6" fill-opacity="1"><g transform="translate(129.923927, 26.539877)"><g><path d="M 3.765625 0.046875 L 2.890625 0.03125 C 2.785156 0.03125 2.65625 0.0195312 2.5 0 C 2.394531 -0.820312 2.34375 -2 2.34375 -3.53125 L 2.3125 -7.03125 L 2.3125 -10.046875 C 2.3125 -11.484375 2.332031 -13.519531 2.375 -16.15625 L 2.375 -17.5 C 2.375 -17.789062 2.484375 -18.003906 2.703125 -18.140625 C 2.929688 -18.285156 3.160156 -18.367188 3.390625 -18.390625 C 3.617188 -18.410156 3.875 -18.421875 4.15625 -18.421875 L 4.6875 -18.421875 C 7.195312 -18.421875 9.28125 -17.90625 10.9375 -16.875 C 12.59375 -15.851562 13.421875 -14.460938 13.421875 -12.703125 C 13.421875 -11.585938 13.085938 -10.546875 12.421875 -9.578125 L 10.1875 -7.34375 C 10.1875 -7.269531 10.742188 -6.679688 11.859375 -5.578125 C 13.648438 -3.835938 14.695312 -2.800781 15 -2.46875 C 15.300781 -2.132812 15.503906 -1.910156 15.609375 -1.796875 C 15.722656 -1.679688 15.816406 -1.59375 15.890625 -1.53125 C 16.066406 -1.3125 16.148438 -1.140625 16.140625 -1.015625 C 16.128906 -0.898438 15.941406 -0.648438 15.578125 -0.265625 C 15.222656 0.117188 14.957031 0.3125 14.78125 0.3125 C 14.613281 0.3125 14.398438 0.175781 14.140625 -0.09375 C 13.890625 -0.363281 13.644531 -0.601562 13.40625 -0.8125 C 13.164062 -1.019531 12.71875 -1.46875 12.0625 -2.15625 C 11.40625 -2.84375 10.578125 -3.679688 9.578125 -4.671875 C 8.578125 -5.660156 8.039062 -6.15625 7.96875 -6.15625 L 5.046875 -5.546875 C 5.015625 -5.410156 5 -4.515625 5 -2.859375 C 5 -1.203125 4.925781 -0.300781 4.78125 -0.15625 C 4.644531 -0.0195312 4.304688 0.046875 3.765625 0.046875 Z M 5 -16.453125 C 4.945312 -16.171875 4.921875 -15.097656 4.921875 -13.234375 C 4.921875 -11.378906 4.957031 -9.335938 5.03125 -7.109375 C 6.519531 -7.191406 7.867188 -7.738281 9.078125 -8.75 C 10.285156 -9.757812 10.890625 -10.894531 10.890625 -12.15625 C 10.890625 -13.414062 10.382812 -14.453125 9.375 -15.265625 C 8.375 -16.085938 7.117188 -16.5 5.609375 -16.5 C 5.484375 -16.5 5.28125 -16.484375 5 -16.453125 Z M 5 -16.453125 "/></g></g></g><g fill="#0cabc6" fill-opacity="1"><g transform="translate(144.527305, 26.539877)"><g><path d="M 7.625 -7.125 L 7.6875 -11.609375 L 7.6875 -13.546875 C 7.6875 -14.003906 7.707031 -14.539062 7.75 -15.15625 C 7.789062 -15.769531 7.796875 -16.144531 7.765625 -16.28125 C 7.691406 -16.394531 7.015625 -16.441406 5.734375 -16.421875 L 2.046875 -16.390625 C 1.992188 -16.390625 1.867188 -16.378906 1.671875 -16.359375 C 1.484375 -16.347656 1.320312 -16.34375 1.1875 -16.34375 C 1.0625 -16.351562 0.929688 -16.378906 0.796875 -16.421875 C 0.460938 -16.472656 0.296875 -16.660156 0.296875 -16.984375 C 0.296875 -17.304688 0.320312 -17.5625 0.375 -17.75 C 0.425781 -17.9375 0.5 -18.070312 0.59375 -18.15625 C 0.6875 -18.238281 0.816406 -18.289062 0.984375 -18.3125 C 1.148438 -18.332031 1.351562 -18.335938 1.59375 -18.328125 C 1.832031 -18.316406 2.179688 -18.328125 2.640625 -18.359375 C 3.109375 -18.398438 4.410156 -18.421875 6.546875 -18.421875 L 11.84375 -18.390625 L 16.8125 -18.421875 L 17.921875 -18.4375 L 18.3125 -18.4375 C 18.644531 -18.4375 18.851562 -18.332031 18.9375 -18.125 C 18.957031 -18.0625 18.96875 -17.96875 18.96875 -17.84375 C 18.96875 -17.226562 18.878906 -16.847656 18.703125 -16.703125 C 18.585938 -16.585938 18.148438 -16.53125 17.390625 -16.53125 L 16.15625 -16.53125 C 15.332031 -16.53125 14.597656 -16.503906 13.953125 -16.453125 C 13.316406 -16.410156 12.316406 -16.390625 10.953125 -16.390625 C 10.679688 -16.390625 10.519531 -16.34375 10.46875 -16.25 C 10.414062 -16.15625 10.390625 -15.957031 10.390625 -15.65625 L 10.359375 -10.890625 L 10.359375 -7.046875 C 10.359375 -4.703125 10.335938 -3.179688 10.296875 -2.484375 C 10.253906 -1.796875 10.226562 -1.347656 10.21875 -1.140625 C 10.207031 -0.941406 10.195312 -0.816406 10.1875 -0.765625 C 10.1875 -0.722656 10.171875 -0.640625 10.140625 -0.515625 C 10.117188 -0.398438 10.082031 -0.328125 10.03125 -0.296875 C 9.988281 -0.273438 9.929688 -0.234375 9.859375 -0.171875 C 9.796875 -0.109375 9.707031 -0.0703125 9.59375 -0.0625 C 9.476562 -0.0507812 9.34375 -0.0351562 9.1875 -0.015625 C 9.03125 -0.00390625 8.800781 0 8.5 0 C 8.195312 0 8 -0.03125 7.90625 -0.09375 C 7.820312 -0.164062 7.757812 -0.351562 7.71875 -0.65625 C 7.675781 -0.96875 7.648438 -1.414062 7.640625 -2 C 7.628906 -2.59375 7.617188 -3.0625 7.609375 -3.40625 C 7.609375 -3.75 7.609375 -4.078125 7.609375 -4.390625 Z M 7.625 -7.125 "/></g></g></g><g fill="#0cabc6" fill-opacity="1"><g transform="translate(163.78797, 26.539877)"><g><path d="M 2.421875 -14.953125 L 2.390625 -17.109375 C 2.390625 -17.804688 2.425781 -18.222656 2.5 -18.359375 C 2.53125 -18.398438 2.695312 -18.421875 3 -18.421875 C 3.300781 -18.421875 3.5625 -18.421875 3.78125 -18.421875 L 4.3125 -18.421875 C 4.6875 -18.421875 4.898438 -18.367188 4.953125 -18.265625 C 5.003906 -18.171875 5.03125 -18.070312 5.03125 -17.96875 L 5.03125 -11.609375 L 5.046875 -7.453125 L 5.03125 -4.578125 L 5.03125 -1.703125 C 5.03125 -1.585938 5.03125 -1.421875 5.03125 -1.203125 C 5.039062 -0.984375 5.039062 -0.84375 5.03125 -0.78125 C 5.03125 -0.71875 5.015625 -0.617188 4.984375 -0.484375 C 4.960938 -0.359375 4.921875 -0.28125 4.859375 -0.25 C 4.804688 -0.21875 4.726562 -0.171875 4.625 -0.109375 C 4.46875 -0.0351562 4.125 0 3.59375 0 C 3.0625 0 2.71875 -0.03125 2.5625 -0.09375 C 2.414062 -0.15625 2.34375 -0.316406 2.34375 -0.578125 L 2.390625 -1.453125 L 2.375 -4.3125 L 2.34375 -7.765625 C 2.320312 -8.171875 2.3125 -8.625 2.3125 -9.125 Z M 2.421875 -14.953125 "/></g></g></g><g fill="#0cabc6" fill-opacity="1"><g transform="translate(171.155437, 26.539877)"><g><path d="M 9.734375 -16.609375 C 9.160156 -16.796875 8.460938 -16.890625 7.640625 -16.890625 C 6.828125 -16.890625 6.09375 -16.679688 5.4375 -16.265625 C 4.789062 -15.859375 4.46875 -15.269531 4.46875 -14.5 C 4.46875 -13.738281 4.695312 -13.078125 5.15625 -12.515625 C 5.613281 -11.960938 6.164062 -11.453125 6.8125 -10.984375 C 7.457031 -10.515625 8.097656 -10.019531 8.734375 -9.5 C 9.378906 -8.988281 9.929688 -8.347656 10.390625 -7.578125 C 10.847656 -6.804688 11.078125 -5.9375 11.078125 -4.96875 C 11.078125 -4.007812 10.675781 -3.035156 9.875 -2.046875 C 8.550781 -0.472656 6.375 0.3125 3.34375 0.3125 C 2.914062 0.3125 2.539062 0.289062 2.21875 0.25 C 1.894531 0.207031 1.644531 0.175781 1.46875 0.15625 C 1.289062 0.132812 1.109375 0.109375 0.921875 0.078125 C 0.503906 0.00390625 0.296875 -0.0976562 0.296875 -0.234375 C 0.296875 -1.160156 0.460938 -1.734375 0.796875 -1.953125 C 1.515625 -1.722656 2.25 -1.609375 3 -1.609375 C 6.644531 -1.609375 8.46875 -2.648438 8.46875 -4.734375 C 8.46875 -5.828125 7.695312 -6.941406 6.15625 -8.078125 C 5.507812 -8.546875 4.863281 -9.035156 4.21875 -9.546875 C 3.582031 -10.054688 3.035156 -10.691406 2.578125 -11.453125 C 2.117188 -12.222656 1.890625 -13.0625 1.890625 -13.96875 C 1.890625 -15.351562 2.488281 -16.492188 3.6875 -17.390625 C 4.894531 -18.285156 6.304688 -18.734375 7.921875 -18.734375 C 8.273438 -18.734375 8.742188 -18.691406 9.328125 -18.609375 C 9.910156 -18.535156 10.222656 -18.4375 10.265625 -18.3125 C 10.316406 -18.1875 10.34375 -18.046875 10.34375 -17.890625 C 10.34375 -17.734375 10.289062 -17.5 10.1875 -17.1875 C 10.082031 -16.882812 9.929688 -16.691406 9.734375 -16.609375 Z M 9.734375 -16.609375 "/></g></g></g><g fill="#0cabc6" fill-opacity="1"><g transform="translate(183.969575, 26.539877)"><g><path d="M 7.625 -7.125 L 7.6875 -11.609375 L 7.6875 -13.546875 C 7.6875 -14.003906 7.707031 -14.539062 7.75 -15.15625 C 7.789062 -15.769531 7.796875 -16.144531 7.765625 -16.28125 C 7.691406 -16.394531 7.015625 -16.441406 5.734375 -16.421875 L 2.046875 -16.390625 C 1.992188 -16.390625 1.867188 -16.378906 1.671875 -16.359375 C 1.484375 -16.347656 1.320312 -16.34375 1.1875 -16.34375 C 1.0625 -16.351562 0.929688 -16.378906 0.796875 -16.421875 C 0.460938 -16.472656 0.296875 -16.660156 0.296875 -16.984375 C 0.296875 -17.304688 0.320312 -17.5625 0.375 -17.75 C 0.425781 -17.9375 0.5 -18.070312 0.59375 -18.15625 C 0.6875 -18.238281 0.816406 -18.289062 0.984375 -18.3125 C 1.148438 -18.332031 1.351562 -18.335938 1.59375 -18.328125 C 1.832031 -18.316406 2.179688 -18.328125 2.640625 -18.359375 C 3.109375 -18.398438 4.410156 -18.421875 6.546875 -18.421875 L 11.84375 -18.390625 L 16.8125 -18.421875 L 17.921875 -18.4375 L 18.3125 -18.4375 C 18.644531 -18.4375 18.851562 -18.332031 18.9375 -18.125 C 18.957031 -18.0625 18.96875 -17.96875 18.96875 -17.84375 C 18.96875 -17.226562 18.878906 -16.847656 18.703125 -16.703125 C 18.585938 -16.585938 18.148438 -16.53125 17.390625 -16.53125 L 16.15625 -16.53125 C 15.332031 -16.53125 14.597656 -16.503906 13.953125 -16.453125 C 13.316406 -16.410156 12.316406 -16.390625 10.953125 -16.390625 C 10.679688 -16.390625 10.519531 -16.34375 10.46875 -16.25 C 10.414062 -16.15625 10.390625 -15.957031 10.390625 -15.65625 L 10.359375 -10.890625 L 10.359375 -7.046875 C 10.359375 -4.703125 10.335938 -3.179688 10.296875 -2.484375 C 10.253906 -1.796875 10.226562 -1.347656 10.21875 -1.140625 C 10.207031 -0.941406 10.195312 -0.816406 10.1875 -0.765625 C 10.1875 -0.722656 10.171875 -0.640625 10.140625 -0.515625 C 10.117188 -0.398438 10.082031 -0.328125 10.03125 -0.296875 C 9.988281 -0.273438 9.929688 -0.234375 9.859375 -0.171875 C 9.796875 -0.109375 9.707031 -0.0703125 9.59375 -0.0625 C 9.476562 -0.0507812 9.34375 -0.0351562 9.1875 -0.015625 C 9.03125 -0.00390625 8.800781 0 8.5 0 C 8.195312 0 8 -0.03125 7.90625 -0.09375 C 7.820312 -0.164062 7.757812 -0.351562 7.71875 -0.65625 C 7.675781 -0.96875 7.648438 -1.414062 7.640625 -2 C 7.628906 -2.59375 7.617188 -3.0625 7.609375 -3.40625 C 7.609375 -3.75 7.609375 -4.078125 7.609375 -4.390625 Z M 7.625 -7.125 "/></g></g></g><g fill="#0cabc6" fill-opacity="1"><g transform="translate(203.230251, 26.539877)"><g><path d="M 3.765625 0.046875 L 2.890625 0.03125 C 2.785156 0.03125 2.65625 0.0195312 2.5 0 C 2.394531 -0.820312 2.34375 -2 2.34375 -3.53125 L 2.3125 -7.03125 L 2.3125 -10.046875 C 2.3125 -11.484375 2.332031 -13.519531 2.375 -16.15625 L 2.375 -17.5 C 2.375 -17.789062 2.484375 -18.003906 2.703125 -18.140625 C 2.929688 -18.285156 3.160156 -18.367188 3.390625 -18.390625 C 3.617188 -18.410156 3.875 -18.421875 4.15625 -18.421875 L 4.6875 -18.421875 C 7.195312 -18.421875 9.28125 -17.90625 10.9375 -16.875 C 12.59375 -15.851562 13.421875 -14.460938 13.421875 -12.703125 C 13.421875 -11.585938 13.085938 -10.546875 12.421875 -9.578125 L 10.1875 -7.34375 C 10.1875 -7.269531 10.742188 -6.679688 11.859375 -5.578125 C 13.648438 -3.835938 14.695312 -2.800781 15 -2.46875 C 15.300781 -2.132812 15.503906 -1.910156 15.609375 -1.796875 C 15.722656 -1.679688 15.816406 -1.59375 15.890625 -1.53125 C 16.066406 -1.3125 16.148438 -1.140625 16.140625 -1.015625 C 16.128906 -0.898438 15.941406 -0.648438 15.578125 -0.265625 C 15.222656 0.117188 14.957031 0.3125 14.78125 0.3125 C 14.613281 0.3125 14.398438 0.175781 14.140625 -0.09375 C 13.890625 -0.363281 13.644531 -0.601562 13.40625 -0.8125 C 13.164062 -1.019531 12.71875 -1.46875 12.0625 -2.15625 C 11.40625 -2.84375 10.578125 -3.679688 9.578125 -4.671875 C 8.578125 -5.660156 8.039062 -6.15625 7.96875 -6.15625 L 5.046875 -5.546875 C 5.015625 -5.410156 5 -4.515625 5 -2.859375 C 5 -1.203125 4.925781 -0.300781 4.78125 -0.15625 C 4.644531 -0.0195312 4.304688 0.046875 3.765625 0.046875 Z M 5 -16.453125 C 4.945312 -16.171875 4.921875 -15.097656 4.921875 -13.234375 C 4.921875 -11.378906 4.957031 -9.335938 5.03125 -7.109375 C 6.519531 -7.191406 7.867188 -7.738281 9.078125 -8.75 C 10.285156 -9.757812 10.890625 -10.894531 10.890625 -12.15625 C 10.890625 -13.414062 10.382812 -14.453125 9.375 -15.265625 C 8.375 -16.085938 7.117188 -16.5 5.609375 -16.5 C 5.484375 -16.5 5.28125 -16.484375 5 -16.453125 Z M 5 -16.453125 "/></g></g></g><g fill="#0cabc6" fill-opacity="1"><g transform="translate(218.359877, 26.539877)"><g><path d="M 7.53125 -6.375 L 7.578125 -9.078125 C 7.578125 -9.304688 7.550781 -9.460938 7.5 -9.546875 C 7.445312 -9.640625 7.410156 -9.703125 7.390625 -9.734375 C 7.378906 -9.765625 7.347656 -9.804688 7.296875 -9.859375 C 7.253906 -9.921875 7.21875 -9.96875 7.1875 -10 C 7.164062 -10.03125 7.125 -10.078125 7.0625 -10.140625 C 7 -10.203125 6.953125 -10.242188 6.921875 -10.265625 C 6.816406 -10.347656 6.253906 -10.867188 5.234375 -11.828125 C 4.210938 -12.796875 3.648438 -13.335938 3.546875 -13.453125 C 3.441406 -13.566406 3.1875 -13.816406 2.78125 -14.203125 C 2.382812 -14.585938 2.0625 -14.898438 1.8125 -15.140625 C 1.570312 -15.378906 1.300781 -15.664062 1 -16 C 0.363281 -16.644531 0.046875 -17.070312 0.046875 -17.28125 C 0.0351562 -17.300781 0.03125 -17.320312 0.03125 -17.34375 C 0.03125 -17.476562 0.253906 -17.734375 0.703125 -18.109375 C 1.160156 -18.492188 1.503906 -18.703125 1.734375 -18.734375 C 1.992188 -18.734375 2.375 -18.4375 2.875 -17.84375 C 3.007812 -17.6875 3.929688 -16.734375 5.640625 -14.984375 C 7.347656 -13.234375 8.25 -12.304688 8.34375 -12.203125 C 8.445312 -12.097656 8.578125 -11.953125 8.734375 -11.765625 C 9.046875 -11.378906 9.253906 -11.1875 9.359375 -11.1875 C 9.472656 -11.1875 10.035156 -11.738281 11.046875 -12.84375 C 12.066406 -13.945312 12.78125 -14.753906 13.1875 -15.265625 C 13.601562 -15.773438 14.222656 -16.476562 15.046875 -17.375 C 15.867188 -18.28125 16.351562 -18.734375 16.5 -18.734375 C 16.65625 -18.734375 16.878906 -18.597656 17.171875 -18.328125 C 17.472656 -18.066406 17.628906 -17.894531 17.640625 -17.8125 C 17.648438 -17.726562 17.617188 -17.632812 17.546875 -17.53125 C 17.472656 -17.4375 17.367188 -17.320312 17.234375 -17.1875 C 17.109375 -17.0625 16.976562 -16.910156 16.84375 -16.734375 C 16.4375 -16.242188 15.578125 -15.296875 14.265625 -13.890625 C 11.554688 -11.066406 10.203125 -9.503906 10.203125 -9.203125 L 10.203125 -4.28125 L 10.265625 -1.96875 C 10.265625 -1.269531 10.234375 -0.84375 10.171875 -0.6875 C 10.109375 -0.53125 10.015625 -0.390625 9.890625 -0.265625 C 9.710938 -0.0859375 9.382812 0 8.90625 0 C 8.4375 0 8.128906 -0.00390625 7.984375 -0.015625 C 7.847656 -0.0234375 7.710938 -0.078125 7.578125 -0.171875 C 7.453125 -0.265625 7.390625 -0.414062 7.390625 -0.625 L 7.46875 -2.265625 Z M 7.53125 -6.375 "/></g></g></g><g fill="#0cabc6" fill-opacity="1"><g transform="translate(236.043997, 26.539877)"><g/></g></g></g></g></svg>
