<svg width="30" height="30" viewBox="0 0 30 30" fill="none" xmlns="http://www.w3.org/2000/svg">
<mask id="mask0_1_321" style="mask-type:luminance" maskUnits="userSpaceOnUse" x="0" y="0" width="30" height="30">
<path d="M30 0H0V30H30V0Z" fill="white"/>
</mask>
<g mask="url(#mask0_1_321)">
<mask id="mask1_1_321" style="mask-type:luminance" maskUnits="userSpaceOnUse" x="0" y="0" width="30" height="30">
<path d="M0.0585928 0.161754H29.8236V29.8382H0.0585928V0.161754Z" fill="white"/>
</mask>
<g mask="url(#mask1_1_321)">
<mask id="mask2_1_321" style="mask-type:luminance" maskUnits="userSpaceOnUse" x="0" y="0" width="30" height="30">
<path d="M14.9194 0.161754L29.7801 29.8382H0.0585928L14.9194 0.161754Z" fill="white"/>
</mask>
<g mask="url(#mask2_1_321)">
<mask id="mask3_1_321" style="mask-type:luminance" maskUnits="userSpaceOnUse" x="0" y="0" width="30" height="30">
<path d="M29.8387 -9.53674e-07H0V30H29.8387V-9.53674e-07Z" fill="white"/>
</mask>
<g mask="url(#mask3_1_321)">
<mask id="mask4_1_321" style="mask-type:luminance" maskUnits="userSpaceOnUse" x="0" y="0" width="30" height="30">
<path d="M0.0585928 0.161754H29.8129V29.8382H0.0585928V0.161754Z" fill="white"/>
</mask>
<g mask="url(#mask4_1_321)">
<mask id="mask5_1_321" style="mask-type:luminance" maskUnits="userSpaceOnUse" x="0" y="0" width="30" height="30">
<path d="M14.9194 0.161754L29.7801 29.8382H0.0585928L14.9194 0.161754Z" fill="white"/>
</mask>
<g mask="url(#mask5_1_321)">
<path d="M0.0585928 0.161754H29.8236V29.8382H0.0585928V0.161754Z" fill="#E3FEFF"/>
</g>
</g>
</g>
</g>
</g>
<mask id="mask6_1_321" style="mask-type:luminance" maskUnits="userSpaceOnUse" x="12" y="20" width="6" height="8">
<path d="M12.5807 20.6135H17.2581V27.4506H12.5807V20.6135Z" fill="white"/>
</mask>
<g mask="url(#mask6_1_321)">
<path d="M16.6954 26.6253C16.4938 26.9538 16.2525 27.2896 15.9154 27.4355C15.5059 27.5505 15.2608 26.9704 14.8576 27.0236C14.5168 27.1012 14.2584 27.5628 13.8817 27.4168C13.4325 27.1839 13.1395 26.6849 12.9385 26.1896C12.5139 25.0875 12.6751 23.8005 13.1389 22.7495C13.5125 21.9299 14.053 21.2109 14.6913 20.6437C14.7335 21.5201 14.6894 22.4008 14.7385 23.2772C14.7442 23.449 14.9553 23.5575 15.058 23.4138C15.1418 23.3411 15.1285 23.2146 15.1317 23.1089C15.1266 22.2893 15.1399 21.4697 15.1279 20.6516C15.9961 21.3648 16.6828 22.3835 16.9853 23.5619C17.2763 24.5641 17.2234 25.7359 16.6954 26.6253Z" fill="#0CABC6"/>
</g>
<mask id="mask7_1_321" style="mask-type:luminance" maskUnits="userSpaceOnUse" x="15" y="18" width="7" height="7">
<path d="M15.4839 18.957H21.451V24.4785H15.4839V18.957Z" fill="white"/>
</mask>
<g mask="url(#mask7_1_321)">
<path d="M20.1493 24.2607C19.307 24.5497 18.3802 24.3448 17.6285 23.848C17.4868 23.7689 17.4597 23.5813 17.4149 23.4274C17.1988 22.6315 16.8139 21.9047 16.3388 21.2742C16.1152 20.973 15.8512 20.7163 15.6174 20.4258C16.3804 20.5862 17.0464 21.0506 17.7337 21.4295C17.8238 21.3425 17.895 21.2354 17.9391 21.1103C17.6613 20.8126 17.3015 20.6523 16.9664 20.4589C16.553 20.2296 16.112 20.0793 15.6697 19.9449C16.2758 19.4172 17.0501 19.2079 17.7974 19.1231C18.7576 19.016 19.7707 19.2878 20.5324 19.9808C21.0295 20.433 21.4062 21.1038 21.451 21.8378C21.3735 22.2908 20.8814 22.3871 20.7189 22.7782C20.6804 23.1269 20.8424 23.4907 20.7044 23.8264C20.6004 24.0702 20.3629 24.1816 20.1493 24.2607Z" fill="#0CABC6"/>
</g>
<mask id="mask8_1_321" style="mask-type:luminance" maskUnits="userSpaceOnUse" x="8" y="18" width="7" height="7">
<path d="M8.52381 18.957H14.3548V24.4785H8.52381V18.957Z" fill="white"/>
</mask>
<g mask="url(#mask8_1_321)">
<path d="M12.323 23.7855C11.5934 24.2686 10.7233 24.5382 9.8847 24.3196C9.62197 24.2384 9.33279 24.1342 9.16457 23.8739C8.98941 23.5381 9.16016 23.1492 9.13306 22.7933C8.97051 22.3893 8.44695 22.3023 8.38584 21.822C8.39592 21.3353 8.60446 20.8824 8.85522 20.4999C9.57787 19.4689 10.7957 19.016 11.9241 19.1174C12.7123 19.2029 13.527 19.41 14.1816 19.9398C13.4299 20.1958 12.6682 20.4812 12.0237 21.0068C11.9071 21.1268 11.9834 21.3856 12.1352 21.4115C12.3185 21.3526 12.4779 21.2325 12.6436 21.1318C13.137 20.8162 13.6719 20.5876 14.2175 20.4208C13.7324 20.9758 13.2346 21.5337 12.8957 22.2246C12.6411 22.7121 12.4798 23.2499 12.323 23.7855Z" fill="#0CABC6"/>
</g>
<path d="M18.9926 18.6975C17.8232 18.471 16.6129 18.7895 15.5607 19.3827C15.8865 18.7565 16.342 18.2302 16.8353 17.7766C16.979 17.6867 16.9462 17.4559 16.8133 17.3739C16.6633 17.3207 16.5417 17.4552 16.4327 17.5508C15.9659 18.0037 15.5633 18.5358 15.201 19.0987C15.2873 18.3661 15.3081 17.6177 15.2035 16.8858C15.1266 16.4803 15.3478 16.1115 15.499 15.7642C16.0364 14.8109 17.0067 14.1495 18.0129 14.1862C18.2252 14.1955 18.4602 14.1833 18.6416 14.3292C18.8829 14.5672 18.8369 14.9827 19.0064 15.2682C19.266 15.591 19.7423 15.4759 19.9798 15.8318C20.2111 16.164 20.138 16.6205 20.0599 17.0001C19.9036 17.6874 19.5224 18.3186 18.9919 18.6975H18.9926Z" fill="#0CABC6"/>
<path d="M14.2818 19.3668C13.2705 18.8284 12.1358 18.4869 11.0156 18.681C10.7712 18.755 10.6105 18.4905 10.4524 18.3265C9.96724 17.7924 9.69065 17.0166 9.73979 16.2459C9.75996 15.9842 9.8721 15.6895 10.1109 15.6097C10.3774 15.4882 10.7605 15.5133 10.894 15.1654C11.0156 14.8483 10.9873 14.3379 11.3552 14.2422C12.7262 13.9216 14.2005 14.941 14.6245 16.4551C14.9168 17.3258 14.9005 18.292 14.7234 19.1914C14.2471 18.5005 13.7683 17.7658 13.0872 17.3229C13.0009 17.4099 12.856 17.5558 12.9599 17.6939C13.4337 18.2137 13.9522 18.7076 14.2824 19.3668H14.2818Z" fill="#0CABC6"/>
<path d="M14.8708 9.50369C14.8677 9.50369 14.8645 9.50081 14.8582 9.50081C14.8645 9.50369 14.8677 9.50369 14.8708 9.50369Z" fill="#F7C913"/>
<path d="M14.8003 10.5138L14.7946 10.503C14.7978 10.5102 14.7978 10.5138 14.8003 10.5138Z" fill="#F7C913"/>
<path d="M14.8979 8.89834C14.9011 8.90193 14.9011 8.90193 14.8979 8.89834C14.9011 8.89115 14.9011 8.87749 14.9011 8.85664L14.8979 8.89834Z" fill="#F7C913"/>
<path d="M14.724 12.6685V12.6541C14.724 12.6613 14.7215 12.6649 14.724 12.6685Z" fill="#F7C913"/>
<path d="M14.7763 11.3909C14.7795 11.3945 14.782 11.401 14.782 11.4082C14.7852 11.401 14.782 11.3945 14.7763 11.3909Z" fill="#F7C913"/>
<path d="M15.1298 8.58129L15.1147 8.59854C15.121 8.59566 15.1298 8.59207 15.1298 8.58129Z" fill="#F7C913"/>
<path d="M15.0699 7.96515H15.0662C15.0662 7.96947 15.0662 7.96947 15.0699 7.96515Z" fill="#F7C913"/>
<path d="M15.005 8.20528C15.005 8.20887 15.0082 8.21606 15.0113 8.22325C15.0113 8.21606 15.0113 8.20528 15.005 8.20528Z" fill="#F7C913"/>
<path d="M15.017 8.22972C15.017 8.22613 15.0139 8.22325 15.0139 8.22325C15.0113 8.22613 15.0139 8.22972 15.017 8.22972Z" fill="#F7C913"/>
<path d="M14.8003 20.487C14.8003 20.5042 14.8129 20.5179 14.8217 20.5358L14.8003 20.487Z" fill="#F7C913"/>
<path d="M14.7152 14.6175L14.7089 14.6139C14.7089 14.6175 14.7121 14.6175 14.7152 14.6175Z" fill="#F7C913"/>
<path d="M14.9376 20.5114L14.932 20.5215C14.9345 20.5179 14.9376 20.515 14.9376 20.5114Z" fill="#F7C913"/>
<path d="M15.1726 8.90553C15.1878 8.92278 15.1695 8.96089 15.1852 8.95729C15.1821 8.94004 15.1941 8.912 15.1726 8.90553Z" fill="#F7C913"/>
<path d="M14.9376 20.5114L14.9408 20.497C14.9376 20.497 14.9345 20.5006 14.932 20.5006C14.9345 20.5042 14.9345 20.5078 14.9376 20.5114Z" fill="#F7C913"/>
<path d="M14.7096 16.6478C14.7096 16.6435 14.7058 16.6435 14.7058 16.6435L14.7096 16.6478Z" fill="#F7C913"/>
<path d="M14.6844 16.7549C14.6818 16.7477 14.6818 16.7413 14.6787 16.7305C14.6755 16.7449 14.6787 16.7513 14.6844 16.7549Z" fill="#F7C913"/>
<path d="M14.8217 20.5359L14.8343 20.5632C14.8311 20.5531 14.828 20.5459 14.8217 20.5359Z" fill="#F7C913"/>
<path d="M14.7058 17.9146C14.7058 17.911 14.7058 17.9074 14.7026 17.9038C14.7026 17.911 14.7026 17.9146 14.7058 17.9146Z" fill="#F7C913"/>
<path d="M14.7852 11.3104C14.7852 11.3068 14.7883 11.3039 14.7883 11.3003C14.7852 11.3003 14.782 11.3003 14.7852 11.3104Z" fill="#F7C913"/>
<path d="M15.1726 12.0696C15.1695 12.0833 15.1789 12.1005 15.1909 12.1113C15.1909 12.0976 15.1878 12.0833 15.1726 12.0696Z" fill="#F7C913"/>
<path d="M15.2155 11.5124C15.2123 11.516 15.2092 11.5196 15.2092 11.5232C15.2123 11.5196 15.2155 11.516 15.2155 11.5124Z" fill="#F7C913"/>
<mask id="mask9_1_321" style="mask-type:luminance" maskUnits="userSpaceOnUse" x="14" y="7" width="2" height="14">
<path d="M14.5747 7.73005H15.4839V20.6135H14.5747V7.73005Z" fill="white"/>
</mask>
<g mask="url(#mask9_1_321)">
<path d="M15.3402 14.235C15.3314 14.0747 15.3005 13.8655 15.31 13.7059C15.2797 13.6707 15.2766 13.6189 15.2703 13.57L15.3131 13.5628L15.3005 13.5211C15.3131 13.5039 15.31 13.5528 15.3251 13.5247L15.298 13.5075C15.3131 13.5039 15.3068 13.3996 15.3377 13.4686V13.3054C15.3377 13.2702 15.3037 13.2846 15.3131 13.2429C15.3251 13.2357 15.322 13.2566 15.3377 13.253C15.368 13.1315 15.2552 13.1135 15.2766 12.9992L15.2823 13.0092C15.2703 12.9884 15.2734 12.9539 15.2671 12.9539C15.2243 12.9675 15.2886 12.9747 15.264 13.0092C15.2275 13.0056 15.2457 12.9675 15.2186 12.9675C15.2306 12.9395 15.2123 12.9258 15.2092 12.9014C15.2306 12.8633 15.2155 12.8043 15.2432 12.7763C15.2306 12.7555 15.1972 12.7346 15.1941 12.6929C15.2218 12.6613 15.2218 12.6994 15.2306 12.6577L15.2092 12.6505C15.2123 12.616 15.2186 12.6232 15.2275 12.6232C15.2275 12.5879 15.2004 12.5951 15.2123 12.5498L15.2338 12.5743C15.2243 12.5426 15.2306 12.529 15.2306 12.4837C15.2432 12.4837 15.2432 12.5045 15.2369 12.5153C15.2671 12.4909 15.2243 12.4736 15.2275 12.4593C15.2186 12.4628 15.2155 12.4945 15.1941 12.4801C15.1972 12.4557 15.1663 12.4312 15.1909 12.414L15.2123 12.4384C15.1972 12.3895 15.1878 12.414 15.1941 12.3586C15.1972 12.3622 15.2004 12.3586 15.206 12.3622C15.1789 12.327 15.2035 12.2817 15.206 12.2328L15.2123 12.2436C15.206 12.2227 15.1878 12.2119 15.1878 12.2019C15.1758 12.2299 15.1695 12.2227 15.1512 12.2263C15.1852 12.1882 15.1115 12.1666 15.1329 12.1041C15.1455 12.1041 15.1607 12.1221 15.1455 12.1393C15.1789 12.1602 15.2092 12.1638 15.2275 12.2019C15.2186 12.1774 15.2155 12.1494 15.2306 12.1566L15.1972 12.1494C15.1972 12.1357 15.1972 12.1249 15.1972 12.1113C15.1758 12.1041 15.1638 12.1393 15.1512 12.1077C15.1424 12.0696 15.1852 12.0868 15.1695 12.0832C15.1575 12.0315 15.1361 12.0624 15.1455 12.0135C15.1481 12.0171 15.1544 12.0279 15.1512 12.0315C15.1638 11.9963 15.1455 11.9445 15.1852 11.9337C15.1941 11.9409 15.206 11.9409 15.2035 11.9546H15.1972C15.2243 11.9927 15.1878 11.9236 15.2243 11.9337C15.2035 11.9373 15.2092 11.8848 15.2123 11.864L15.1878 11.8712C15.1178 11.7942 15.2369 11.8748 15.2275 11.8014C15.2123 11.7525 15.2218 11.8187 15.2035 11.7914C15.206 11.7597 15.2275 11.7461 15.2186 11.7008C15.2275 11.6864 15.2401 11.6619 15.2671 11.6591C15.2552 11.631 15.2797 11.5714 15.252 11.5577C15.2306 11.6066 15.2797 11.6066 15.2457 11.6619L15.2186 11.6447C15.2186 11.6066 15.206 11.5541 15.2155 11.5297C15.2092 11.5368 15.2035 11.5368 15.1972 11.5333C15.1878 11.4779 15.1607 11.4606 15.1695 11.4082C15.1941 11.401 15.1878 11.4326 15.1909 11.457C15.2092 11.4218 15.1909 11.4182 15.2004 11.3665C15.2218 11.3629 15.2004 11.4046 15.2186 11.4082L15.2123 11.3492H15.2155C15.1821 11.3384 15.2186 11.3039 15.2092 11.2651C15.2092 11.1781 15.1638 11.1644 15.1361 11.1155C15.1455 11.1019 15.1544 11.0983 15.1638 11.1055C15.1481 11.1263 15.1607 11.1227 15.1695 11.1299C15.1663 11.1019 15.2035 11.0638 15.2186 11.081C15.2092 11.0357 15.2004 11.0983 15.1878 11.0703L15.1909 11.0077C15.1726 11.0149 15.1695 11.0393 15.1544 11.0041C15.1481 10.9768 15.1544 10.9624 15.1544 10.9279C15.1638 10.9344 15.1821 10.9171 15.1821 10.9452C15.1878 10.9279 15.1909 10.8999 15.1726 10.8891C15.1575 10.9279 15.1575 10.8229 15.1298 10.8546L15.1455 10.8165C15.1455 10.8265 15.1575 10.8265 15.1544 10.8409C15.1821 10.8301 15.1455 10.8093 15.1455 10.7956C15.1512 10.7812 15.1544 10.7431 15.1638 10.7431C15.1575 10.7295 15.1607 10.6978 15.1758 10.6942C15.1695 10.677 15.1575 10.6943 15.1481 10.6878L15.1512 10.6245C15.1663 10.6216 15.2092 10.6144 15.2123 10.6245C15.1972 10.6008 15.1663 10.618 15.1695 10.5799C15.2004 10.6008 15.1909 10.531 15.2275 10.562C15.2489 10.5411 15.2489 10.4822 15.2401 10.4477C15.2155 10.4261 15.2275 10.4822 15.2035 10.4822C15.1941 10.388 15.1298 10.3844 15.1424 10.3154L15.1361 10.3326C15.1241 10.2909 15.1273 10.2938 15.1059 10.2701C15.1361 10.2801 15.1852 10.2212 15.1789 10.1514C15.1638 10.1443 15.1512 10.1896 15.1273 10.1795L15.1241 10.1342C15.1273 10.1306 15.1298 10.1342 15.1361 10.1407C15.1273 10.099 15.1758 10.0645 15.1392 10.0508L15.1821 10.0084L15.1638 10.0264C15.1481 10.0192 15.1455 9.97387 15.1392 9.9638C15.1241 9.91492 15.1361 9.89766 15.1544 9.87322C15.1424 9.87969 15.1147 9.90054 15.1115 9.86603C15.1607 9.86603 15.1298 9.7891 15.1544 9.7891C15.1544 9.77544 15.1695 9.7474 15.1481 9.74381L15.1789 9.7474C15.1361 9.74381 15.1392 9.68845 15.1329 9.64675C15.1878 9.65682 15.1298 9.60146 15.1789 9.58061C15.1392 9.57342 15.1638 9.50728 15.1298 9.49721C15.1273 9.46558 15.1638 9.46917 15.1758 9.45839L15.1607 9.44473C15.1789 9.42747 15.1821 9.36852 15.1941 9.3297L15.1607 9.29519L15.1758 9.28081C15.1663 9.27434 15.1638 9.2463 15.1481 9.26356L15.1424 9.23624C15.1059 9.23624 15.1329 9.21179 15.1178 9.17297C15.1241 9.1665 15.1329 9.1665 15.1361 9.17297C15.1361 9.15571 15.1544 9.1629 15.1663 9.15212C15.1575 9.1665 15.0996 9.08598 15.0844 9.13487C15.0693 9.13846 15.0567 9.11042 15.0662 9.09317L15.0996 9.08238L15.0662 9.06153C15.0599 9.03421 15.0813 9.02343 15.0876 8.99899C15.0901 9.02343 15.1512 9.05147 15.1512 8.99251C15.1544 9.02343 15.1726 9.03781 15.1821 9.05506C15.1821 9.04068 15.1852 9.03781 15.2004 9.05506C15.1909 9.00977 15.1789 9.04068 15.1758 8.99251C15.206 8.99539 15.2155 8.98173 15.2243 8.94003L15.2035 8.97167C15.2004 8.97167 15.1972 8.96807 15.1941 8.96448C15.1909 8.97454 15.1852 8.97814 15.1758 8.98173C15.1758 8.97167 15.1392 8.92925 15.1575 8.91918C15.1115 8.96448 15.121 8.83938 15.0933 8.8667C15.0844 8.86023 15.0844 8.8286 15.0964 8.825C15.1178 8.86311 15.1298 8.79696 15.1512 8.80056C15.1424 8.7869 15.1298 8.83219 15.1178 8.81134C15.1147 8.7869 15.1329 8.77324 15.1424 8.75886L15.1481 8.76964L15.1607 8.73441C15.1455 8.72794 15.1361 8.76964 15.1273 8.73441C15.1329 8.72794 15.1273 8.69272 15.1361 8.69272C15.1575 8.70709 15.1852 8.69631 15.1878 8.72435C15.1852 8.69991 15.1821 8.62657 15.1544 8.65821V8.63017C15.1424 8.64742 15.121 8.69631 15.1147 8.64095H15.121L15.0996 8.60213L15.1147 8.58487C15.1084 8.58487 15.0996 8.57769 15.0996 8.56403C15.1084 8.56043 15.1115 8.54677 15.1241 8.54677C15.1241 8.50507 15.1084 8.50867 15.0996 8.50148C15.0964 8.47703 15.1027 8.46984 15.121 8.48063C15.1241 8.44899 15.121 8.39364 15.1361 8.37279C15.1241 8.33109 15.1298 8.38285 15.1084 8.35553C15.1607 8.31671 15.1298 8.21606 15.121 8.14632C15.075 8.16357 15.1147 8.12907 15.075 8.11469C15.0901 8.12907 15.1084 8.04854 15.1241 8.11181L15.1178 8.07299C15.1424 8.04854 15.1361 8.13554 15.1695 8.09743C15.1695 8.05573 15.1178 8.02769 15.1361 7.97953C15.1663 7.99678 15.1273 7.9407 15.1607 7.95508C15.1726 7.96515 15.1695 7.97953 15.1695 7.99319L15.1758 7.986C15.1852 7.89541 15.1392 7.95868 15.1147 7.91338C15.1115 7.85731 15.1392 7.86809 15.1544 7.86809C15.1607 7.8609 15.1544 7.82927 15.1481 7.81561C15.1663 7.85012 15.1273 7.87815 15.1084 7.86449C15.1455 7.84005 15.1115 7.7811 15.0964 7.76672C15.0567 7.84724 15.0933 7.8228 15.0536 7.89541C15.0662 7.90619 15.0996 7.9026 15.0844 7.94789C15.0693 7.91985 15.0662 7.95149 15.0599 7.95868C15.0781 7.95149 15.0693 7.98959 15.075 8.00325C15.0599 8.01763 15.0321 7.97593 15.0233 8.02122L15.0693 8.02769C15.063 8.04567 15.0353 8.02122 15.0479 8.05933C15.0233 8.03848 15.0114 8.06652 15.0051 8.01403C14.9685 8.07299 15.0265 8.10822 15.0416 8.15351C15.0384 8.14991 15.0321 8.14632 15.0296 8.14273C15.0416 8.15351 15.0416 8.17076 15.0416 8.18442C15.0321 8.21606 15.0202 8.15998 15.0082 8.16717V8.21965H15.0051C15.0114 8.23331 15.0139 8.2441 15.0051 8.25057C14.9899 8.23691 14.9773 8.22972 14.9654 8.21965L14.9956 8.27142C14.9805 8.26495 14.9717 8.31671 14.9591 8.27861L14.9654 8.35841L14.9345 8.3656C14.9408 8.38285 14.9471 8.38645 14.9502 8.362C14.9439 8.39004 15.0019 8.48063 14.9439 8.46625C14.9685 8.52952 14.9591 8.55037 14.9742 8.62657C14.9471 8.57121 14.9408 8.69272 14.9257 8.63017C14.9137 8.66468 14.9439 8.67187 14.9502 8.69991C14.9376 8.72794 14.9074 8.71357 14.8979 8.68553L14.9105 8.72075H14.9042L14.9225 8.74879C14.9074 8.77971 14.8923 8.75526 14.8891 8.7869L14.9162 8.79409L14.9011 8.81494C14.9137 8.80775 14.9194 8.825 14.9194 8.84945H14.9137L14.9257 8.88755C14.9105 8.86023 14.9194 8.91199 14.9011 8.90193C14.9011 8.92637 14.9011 8.92637 14.9042 8.96807L14.9225 8.96088C14.9376 9.01624 14.8954 8.96448 14.8954 9.00977L14.9162 9.00617C14.8828 9.07232 14.9345 9.11761 14.9137 9.1665C14.9074 9.13846 14.8828 9.14565 14.8891 9.14565C14.8954 9.18735 14.8923 9.25709 14.9162 9.29878C14.886 9.31604 14.8765 9.31963 14.8646 9.36133C14.8677 9.39225 14.8709 9.39944 14.886 9.41022C14.874 9.44113 14.8923 9.50081 14.8709 9.50081C14.8891 9.50728 14.8677 9.52813 14.8828 9.54538L14.874 9.54898L14.8954 9.54538C14.8494 9.60146 14.9225 9.63956 14.8797 9.69564L14.874 9.68486L14.8828 9.7093C14.874 9.71289 14.8677 9.70211 14.8557 9.70211L14.8526 9.81355L14.8677 9.7927C14.8709 9.81714 14.8891 9.8308 14.8765 9.85884C14.8463 9.81355 14.8765 9.89407 14.8526 9.90413L14.8431 9.87969C14.8463 9.91132 14.8463 9.91132 14.8646 9.90773C14.8709 9.94943 14.8249 9.93577 14.8463 9.97387V9.94583C14.8583 9.93936 14.8765 9.95662 14.874 9.97746C14.8709 9.98106 14.8614 9.99472 14.8583 9.98106C14.8677 10.012 14.8557 10.0645 14.8646 10.0781C14.8583 10.0954 14.8431 10.0889 14.8375 10.0817C14.8557 10.1514 14.8343 10.1133 14.8526 10.1831H14.84L14.8583 10.2104L14.8343 10.2456L14.8494 10.2313C14.8526 10.2557 14.8583 10.2701 14.8526 10.2974L14.8343 10.2873C14.8431 10.3535 14.8034 10.3635 14.828 10.4232C14.8249 10.4261 14.8186 10.416 14.816 10.4124C14.8431 10.4714 14.7852 10.4541 14.8186 10.5138C14.8129 10.5102 14.8066 10.5167 14.8003 10.5138L14.8129 10.5411L14.7883 10.5375L14.8249 10.5584L14.8003 10.5763L14.8129 10.5864C14.7669 10.6144 14.8003 10.6561 14.7669 10.6942L14.7978 10.6878C14.8583 10.7848 14.7637 10.9107 14.7915 11.025L14.7669 11.0214L14.7946 11.0703C14.7763 11.0947 14.7732 11.0566 14.7606 11.0638C14.7732 11.1155 14.7946 11.0846 14.8034 11.1436C14.7883 11.1745 14.7852 11.1328 14.7795 11.1191C14.7915 11.1745 14.8034 11.2586 14.7915 11.3003C14.7946 11.3003 14.7978 11.3039 14.8003 11.3003C14.8097 11.3384 14.8003 11.3873 14.8003 11.429C14.7883 11.429 14.7883 11.4182 14.7852 11.4082C14.7852 11.4218 14.7763 11.4427 14.7883 11.457L14.7669 11.4427C14.7637 11.4743 14.782 11.5368 14.7581 11.544C14.7669 11.5404 14.7852 11.5404 14.782 11.5685C14.7455 11.5821 14.7978 11.6447 14.7795 11.6864C14.77 11.6799 14.77 11.6483 14.7669 11.6591C14.7581 11.6799 14.7732 11.7008 14.7852 11.7216L14.77 11.7144L14.7915 11.8187C14.7549 11.8331 14.7978 11.9165 14.77 11.9093C14.77 11.9474 14.7852 11.8783 14.7915 11.9236C14.7763 11.9373 14.7978 11.9653 14.7763 11.9617L14.7732 11.9581L14.77 11.9862L14.7455 11.9653C14.7518 11.9927 14.7732 12.0135 14.7915 12.0135C14.7795 12.0415 14.7883 12.0768 14.7669 12.0904L14.7606 12.0797C14.77 12.153 14.697 12.2019 14.7367 12.2608C14.7335 12.2644 14.7272 12.2644 14.7272 12.2544L14.7241 12.2989L14.7058 12.2889L14.7398 12.3687H14.7272C14.7215 12.4176 14.7272 12.4974 14.7335 12.5606L14.7272 12.5498C14.7455 12.6196 14.7152 12.6196 14.7304 12.6685C14.7272 12.6649 14.7272 12.6649 14.7241 12.6613V12.7066L14.7121 12.6958C14.7367 12.731 14.6787 12.7936 14.7001 12.7727C14.7121 12.7936 14.7241 12.8252 14.7398 12.8317C14.7398 12.8841 14.7241 12.846 14.7152 12.877C14.7152 12.9151 14.7335 12.9187 14.7241 12.9711H14.7121C14.7152 12.9956 14.7215 13.0092 14.7241 13.0409L14.7184 13.0301C14.7423 13.0826 14.6844 13.0962 14.7367 13.1379C14.7272 13.1588 14.7335 13.2012 14.7089 13.2012C14.7241 13.2673 14.7304 13.3191 14.7398 13.3817C14.7001 13.3924 14.7423 13.396 14.7215 13.4341L14.7423 13.4305C14.7455 13.5211 14.6938 13.629 14.7026 13.7303L14.6818 13.7332L14.7058 13.7541C14.697 13.8619 14.6875 14.005 14.6875 14.092C14.7001 14.12 14.7241 14.1653 14.7152 14.2106L14.7121 14.207C14.7241 14.2868 14.7335 14.3702 14.7215 14.4543C14.7121 14.4471 14.7058 14.4572 14.7001 14.4471C14.7241 14.468 14.7001 14.4996 14.7001 14.5169L14.7152 14.496C14.7367 14.5205 14.7152 14.555 14.7001 14.5686L14.7215 14.6075C14.7184 14.611 14.7152 14.6139 14.7121 14.6139L14.7241 14.6211L14.697 14.642C14.7026 14.6527 14.7089 14.7009 14.7367 14.7189C14.7272 14.7218 14.7215 14.757 14.7152 14.729L14.7058 14.8756L14.7152 14.854C14.7367 14.8512 14.7486 14.8929 14.7398 14.9173C14.7215 14.8893 14.7089 14.9137 14.6938 14.9274C14.7058 14.9482 14.7121 14.9101 14.7241 14.9202C14.7398 14.9446 14.7455 14.9971 14.7367 15.0079L14.7272 14.9935C14.7367 15.0252 14.7001 15.0424 14.7001 15.074C14.7184 15.1014 14.7001 15.1258 14.7367 15.1186C14.7423 15.161 14.7121 15.1366 14.7089 15.1503C14.7272 15.1711 14.7152 15.2301 14.697 15.2372C14.7486 15.2617 14.6787 15.3523 14.7215 15.3595L14.697 15.394C14.7089 15.394 14.7367 15.4012 14.7398 15.4285C14.7272 15.4565 14.7058 15.4493 14.6938 15.4565L14.7367 15.4738C14.6907 15.6269 14.7215 15.8253 14.6818 15.9929C14.6907 16.0655 14.7121 16.1596 14.7058 16.2466L14.7001 16.2366L14.6875 16.3236L14.7089 16.261C14.7152 16.2783 14.7215 16.2955 14.7215 16.3128C14.7026 16.407 14.6818 16.5321 14.7026 16.6507C14.7549 16.7269 14.6573 16.6996 14.6938 16.7722C14.6875 16.7657 14.6818 16.7657 14.6755 16.7585C14.6938 16.8355 14.7001 16.8771 14.7304 16.957C14.6818 16.9462 14.7304 17.0094 14.7058 17.0022L14.7272 17.0094C14.7152 17.0267 14.7089 17.0684 14.697 17.0612L14.7215 17.0964L14.7001 17.1C14.697 17.1446 14.7152 17.2424 14.6724 17.2668C14.7026 17.3783 14.6938 17.5594 14.6875 17.6982C14.7058 17.719 14.7058 17.7614 14.7089 17.7924L14.6844 17.8276C14.6938 17.8585 14.7241 17.893 14.7089 17.9246C14.7058 17.9246 14.7026 17.9246 14.7026 17.9211C14.7089 17.9563 14.6938 17.9872 14.7184 18.0188C14.7184 18.0569 14.7026 18.0914 14.6818 18.0814C14.7241 18.085 14.6755 18.1576 14.6755 18.1576C14.6755 18.1576 14.5747 20.0376 14.8003 20.497C14.8217 20.5042 14.8343 20.5459 14.8583 20.5287C14.8677 20.5632 14.8312 20.5775 14.8494 20.584C14.8646 20.5387 14.9042 20.5984 14.9288 20.5531L14.9345 20.5804C14.9471 20.5876 14.9162 20.5459 14.9439 20.5495L14.9042 20.5423C14.9105 20.5179 14.9194 20.5078 14.932 20.5006C14.9162 20.4798 14.8646 20.4661 14.8891 20.4136V20.4273C14.8891 20.3856 14.9137 20.4036 14.9194 20.3928V20.4036L14.9376 20.3683C14.9288 20.3964 14.9591 20.4381 14.9559 20.4136C14.9685 20.3647 14.9471 20.4273 14.9408 20.3892C14.9376 20.3647 14.9591 20.3719 14.9717 20.3755V20.3338C14.9899 20.3338 14.9717 20.3611 14.9899 20.3439L14.9717 20.2921C15.017 20.2813 14.9502 20.236 14.9924 20.2116C15.0019 20.2504 15.0082 20.208 15.0233 20.2152L15.0202 20.1246C15.0265 20.1145 15.0353 20.1491 15.0321 20.1354C15.0447 20.1181 15.0202 20.1074 15.0233 20.0966C15.0353 20.0901 15.0233 20.0276 15.0536 20.0304C15.075 19.9679 15.017 20.0031 15.0321 19.947C15.0504 19.9406 15.0353 19.9923 15.0567 19.9679L15.0504 19.9089C15.0599 19.9161 15.0813 19.9197 15.075 19.9434C15.0996 19.7802 15.1941 19.6932 15.1695 19.5437C15.1909 19.5229 15.1852 19.5574 15.1972 19.5746C15.1695 19.4668 15.2432 19.4215 15.2432 19.3309H15.2243C15.2797 19.2022 15.2457 19.0491 15.2703 18.9031L15.252 18.9132C15.2338 18.8923 15.2338 18.8614 15.2243 18.837C15.2338 18.8334 15.2615 18.8542 15.2552 18.8125C15.2489 18.819 15.2432 18.8406 15.2338 18.8334C15.2797 18.7083 15.2671 18.4466 15.2917 18.2417C15.2797 17.9663 15.3131 17.6637 15.3005 17.3919C15.3005 17.4336 15.2583 17.4164 15.2671 17.3854C15.3402 17.2984 15.2552 17.2352 15.3068 17.1482C15.2823 16.9915 15.3465 16.8491 15.2917 16.7032L15.3131 16.6996C15.322 16.6787 15.3068 16.6715 15.3068 16.6471H15.3131C15.322 16.5917 15.3005 16.5256 15.31 16.494L15.2854 16.4904C15.2823 16.4594 15.3037 16.4731 15.2917 16.4415H15.3037L15.2823 16.4034C15.3251 16.407 15.2854 16.3128 15.3037 16.2855C15.298 16.243 15.2797 16.1632 15.2854 16.1007C15.3068 16.0899 15.3068 16.0101 15.3163 15.9612C15.31 15.8642 15.3037 15.7247 15.31 15.6025L15.2823 15.6061L15.2797 15.5751C15.2854 15.5751 15.2886 15.5716 15.2917 15.5751C15.322 15.5507 15.2823 15.5018 15.3005 15.4738C15.2766 15.4917 15.298 15.4946 15.298 15.5155C15.2854 15.5435 15.2583 15.5155 15.2734 15.481H15.2797L15.264 15.4565C15.2854 15.4529 15.2949 15.4321 15.3163 15.4285C15.31 15.3242 15.2766 15.2509 15.2854 15.1402C15.31 15.1503 15.2797 15.0597 15.3194 15.0841C15.3037 15.018 15.2854 15.0949 15.2583 15.0633C15.2583 15.046 15.2489 15.0252 15.2615 15.0216C15.2703 15.0287 15.2854 15.0079 15.2886 15.0216L15.2854 14.9763C15.2886 14.9727 15.2949 14.9835 15.298 14.9863C15.2734 14.8965 15.3251 14.8267 15.3005 14.7462C15.2854 14.7397 15.298 14.7778 15.2823 14.7706C15.252 14.6908 15.31 14.7009 15.2886 14.6247L15.31 14.6384C15.2949 14.6139 15.2797 14.6039 15.2949 14.5658C15.3194 14.5586 15.3131 14.6003 15.3251 14.6175C15.3251 14.5895 15.3194 14.5205 15.298 14.5413C15.2886 14.5097 15.31 14.496 15.3194 14.4788C15.3131 14.4788 15.3037 14.5097 15.2917 14.4888C15.3037 14.4435 15.3037 14.3738 15.3068 14.322C15.3131 14.322 15.322 14.3184 15.3251 14.322C15.2949 14.2904 15.3465 14.2976 15.3402 14.235Z" fill="#F7C913"/>
</g>
<path d="M15.2186 11.3176L15.2155 11.3384C15.2218 11.3384 15.2274 11.3384 15.2337 11.3492L15.2186 11.3176Z" fill="#F7C913"/>
<path d="M15.2035 12.3651C15.206 12.3687 15.206 12.3723 15.2092 12.3723C15.2092 12.3687 15.206 12.3687 15.2035 12.3651Z" fill="#F7C913"/>
<path d="M15.2457 12.6196C15.24 12.6023 15.2337 12.616 15.2274 12.6268C15.2306 12.6296 15.2369 12.6268 15.2457 12.6196Z" fill="#F7C913"/>
<path d="M15.1544 10.7259C15.1575 10.7295 15.1607 10.7331 15.1638 10.7331C15.1607 10.7259 15.1575 10.7259 15.1544 10.7259Z" fill="#F7C913"/>
<path d="M15.1726 9.08598C15.1726 9.08958 15.1695 9.08958 15.1695 9.09317C15.1695 9.09317 15.1726 9.08958 15.1726 9.08598Z" fill="#F7C913"/>
<path d="M15.1361 9.17657C15.1361 9.18017 15.1361 9.18736 15.1392 9.19383C15.1392 9.18736 15.1361 9.18017 15.1361 9.17657Z" fill="#F7C913"/>
<path d="M15.1638 11.1227C15.1638 11.1299 15.1663 11.1328 15.1695 11.14C15.1695 11.1299 15.1663 11.1263 15.1638 11.1227Z" fill="#F7C913"/>
<path d="M15.1424 9.21467V9.23624C15.1455 9.23624 15.1455 9.23624 15.1481 9.23624L15.1424 9.21467Z" fill="#F7C913"/>
<path d="M15.1758 9.05866C15.1758 9.06873 15.1758 9.07951 15.1726 9.08598C15.1789 9.07592 15.1789 9.06513 15.1758 9.05866Z" fill="#F7C913"/>
<path d="M15.1241 10.1234C15.1298 10.1342 15.1361 10.1443 15.1241 10.1234V10.1234Z" fill="#F7C913"/>
<path d="M15.1852 8.95729C15.1852 8.96089 15.1878 8.96448 15.1878 8.96808C15.1878 8.96448 15.1909 8.96089 15.1909 8.9537C15.1878 8.95729 15.1852 8.95729 15.1852 8.95729Z" fill="#F7C913"/>
<path d="M15.1607 9.78264C15.1512 9.77545 15.1455 9.77186 15.1424 9.77186C15.1424 9.77904 15.1455 9.78264 15.1607 9.78264Z" fill="#F7C913"/>
<mask id="mask10_1_321" style="mask-type:luminance" maskUnits="userSpaceOnUse" x="15" y="8" width="2" height="2">
<path d="M15.5072 8.48639H16.6262V9.76323H15.5072V8.48639Z" fill="white"/>
</mask>
<g mask="url(#mask10_1_321)">
<mask id="mask11_1_321" style="mask-type:luminance" maskUnits="userSpaceOnUse" x="15" y="8" width="2" height="2">
<path d="M16.0667 8.48639C15.7573 8.48639 15.5072 8.77253 15.5072 9.12481C15.5072 9.47781 15.7573 9.76323 16.0667 9.76323C16.3754 9.76323 16.6262 9.47781 16.6262 9.12481C16.6262 8.77253 16.3754 8.48639 16.0667 8.48639Z" fill="white"/>
</mask>
<g mask="url(#mask11_1_321)">
<mask id="mask12_1_321" style="mask-type:luminance" maskUnits="userSpaceOnUse" x="15" y="8" width="2" height="2">
<path d="M16.7742 8.46626H15.4839V9.93865H16.7742V8.46626Z" fill="white"/>
</mask>
<g mask="url(#mask12_1_321)">
<mask id="mask13_1_321" style="mask-type:luminance" maskUnits="userSpaceOnUse" x="15" y="8" width="2" height="2">
<path d="M15.5072 8.48639H16.6261V9.76323H15.5072V8.48639Z" fill="white"/>
</mask>
<g mask="url(#mask13_1_321)">
<mask id="mask14_1_321" style="mask-type:luminance" maskUnits="userSpaceOnUse" x="15" y="8" width="2" height="2">
<path d="M16.0667 8.48639C15.7573 8.48639 15.5072 8.77253 15.5072 9.12481C15.5072 9.47781 15.7573 9.76323 16.0667 9.76323C16.3754 9.76323 16.6261 9.47781 16.6261 9.12481C16.6261 8.77253 16.3754 8.48639 16.0667 8.48639Z" fill="white"/>
</mask>
<g mask="url(#mask14_1_321)">
<path d="M15.5072 8.48639H16.6261V9.76323H15.5072V8.48639Z" fill="#F7C913"/>
</g>
</g>
</g>
</g>
</g>
<mask id="mask15_1_321" style="mask-type:luminance" maskUnits="userSpaceOnUse" x="13" y="10" width="2" height="2">
<path d="M13.3209 10.1148H14.4405V11.3924H13.3209V10.1148Z" fill="white"/>
</mask>
<g mask="url(#mask15_1_321)">
<mask id="mask16_1_321" style="mask-type:luminance" maskUnits="userSpaceOnUse" x="13" y="10" width="2" height="2">
<path d="M13.8804 10.1148C13.5717 10.1148 13.3209 10.4009 13.3209 10.7532C13.3209 11.1062 13.5717 11.3924 13.8804 11.3924C14.1898 11.3924 14.4405 11.1062 14.4405 10.7532C14.4405 10.4009 14.1898 10.1148 13.8804 10.1148Z" fill="white"/>
</mask>
<g mask="url(#mask16_1_321)">
<mask id="mask17_1_321" style="mask-type:luminance" maskUnits="userSpaceOnUse" x="13" y="9" width="2" height="3">
<path d="M14.5161 9.93864H13.2258V11.411H14.5161V9.93864Z" fill="white"/>
</mask>
<g mask="url(#mask17_1_321)">
<mask id="mask18_1_321" style="mask-type:luminance" maskUnits="userSpaceOnUse" x="13" y="10" width="2" height="2">
<path d="M13.3209 10.1148H14.4405V11.3924H13.3209V10.1148Z" fill="white"/>
</mask>
<g mask="url(#mask18_1_321)">
<mask id="mask19_1_321" style="mask-type:luminance" maskUnits="userSpaceOnUse" x="13" y="10" width="2" height="2">
<path d="M13.8804 10.1148C13.5717 10.1148 13.3209 10.4009 13.3209 10.7532C13.3209 11.1062 13.5717 11.3924 13.8804 11.3924C14.1898 11.3924 14.4405 11.1062 14.4405 10.7532C14.4405 10.4009 14.1898 10.1148 13.8804 10.1148Z" fill="white"/>
</mask>
<g mask="url(#mask19_1_321)">
<path d="M13.3209 10.1148H14.4405V11.3924H13.3209V10.1148Z" fill="#F7C913"/>
</g>
</g>
</g>
</g>
</g>
<mask id="mask20_1_321" style="mask-type:luminance" maskUnits="userSpaceOnUse" x="13" y="8" width="2" height="2">
<path d="M13.3209 8.48639H14.4405V9.76323H13.3209V8.48639Z" fill="white"/>
</mask>
<g mask="url(#mask20_1_321)">
<mask id="mask21_1_321" style="mask-type:luminance" maskUnits="userSpaceOnUse" x="13" y="8" width="2" height="2">
<path d="M13.8804 8.48639C13.5717 8.48639 13.3209 8.77253 13.3209 9.12481C13.3209 9.47781 13.5717 9.76323 13.8804 9.76323C14.1898 9.76323 14.4405 9.47781 14.4405 9.12481C14.4405 8.77253 14.1898 8.48639 13.8804 8.48639Z" fill="white"/>
</mask>
<g mask="url(#mask21_1_321)">
<mask id="mask22_1_321" style="mask-type:luminance" maskUnits="userSpaceOnUse" x="13" y="8" width="2" height="2">
<path d="M14.5161 8.46626H13.2258V9.93865H14.5161V8.46626Z" fill="white"/>
</mask>
<g mask="url(#mask22_1_321)">
<mask id="mask23_1_321" style="mask-type:luminance" maskUnits="userSpaceOnUse" x="13" y="8" width="2" height="2">
<path d="M13.3209 8.48639H14.4405V9.76323H13.3209V8.48639Z" fill="white"/>
</mask>
<g mask="url(#mask23_1_321)">
<mask id="mask24_1_321" style="mask-type:luminance" maskUnits="userSpaceOnUse" x="13" y="8" width="2" height="2">
<path d="M13.8804 8.48639C13.5717 8.48639 13.3209 8.77253 13.3209 9.12481C13.3209 9.47781 13.5717 9.76323 13.8804 9.76323C14.1898 9.76323 14.4405 9.47781 14.4405 9.12481C14.4405 8.77253 14.1898 8.48639 13.8804 8.48639Z" fill="white"/>
</mask>
<g mask="url(#mask24_1_321)">
<path d="M13.3209 8.48639H14.4405V9.76323H13.3209V8.48639Z" fill="#F7C913"/>
</g>
</g>
</g>
</g>
</g>
<mask id="mask25_1_321" style="mask-type:luminance" maskUnits="userSpaceOnUse" x="14" y="6" width="2" height="2">
<path d="M14.576 6.42806H15.6956V7.7049H14.576V6.42806Z" fill="white"/>
</mask>
<g mask="url(#mask25_1_321)">
<mask id="mask26_1_321" style="mask-type:luminance" maskUnits="userSpaceOnUse" x="14" y="6" width="2" height="2">
<path d="M15.1355 6.42806C14.8267 6.42806 14.576 6.71348 14.576 7.06648C14.576 7.41876 14.8267 7.7049 15.1355 7.7049C15.4448 7.7049 15.6956 7.41876 15.6956 7.06648C15.6956 6.71348 15.4448 6.42806 15.1355 6.42806Z" fill="white"/>
</mask>
<g mask="url(#mask26_1_321)">
<mask id="mask27_1_321" style="mask-type:luminance" maskUnits="userSpaceOnUse" x="14" y="6" width="2" height="2">
<path d="M15.8065 6.25767H14.5161V7.73006H15.8065V6.25767Z" fill="white"/>
</mask>
<g mask="url(#mask27_1_321)">
<mask id="mask28_1_321" style="mask-type:luminance" maskUnits="userSpaceOnUse" x="14" y="6" width="2" height="2">
<path d="M14.576 6.42805H15.6956V7.7049H14.576V6.42805Z" fill="white"/>
</mask>
<g mask="url(#mask28_1_321)">
<mask id="mask29_1_321" style="mask-type:luminance" maskUnits="userSpaceOnUse" x="14" y="6" width="2" height="2">
<path d="M15.1355 6.42805C14.8267 6.42805 14.576 6.71347 14.576 7.06647C14.576 7.41876 14.8267 7.7049 15.1355 7.7049C15.4448 7.7049 15.6956 7.41876 15.6956 7.06647C15.6956 6.71347 15.4448 6.42805 15.1355 6.42805Z" fill="white"/>
</mask>
<g mask="url(#mask29_1_321)">
<path d="M14.576 6.42805H15.6956V7.7049H14.576V6.42805Z" fill="#F7C913"/>
</g>
</g>
</g>
</g>
</g>
<mask id="mask30_1_321" style="mask-type:luminance" maskUnits="userSpaceOnUse" x="15" y="10" width="2" height="2">
<path d="M15.5072 10.1148H16.6262V11.3924H15.5072V10.1148Z" fill="white"/>
</mask>
<g mask="url(#mask30_1_321)">
<mask id="mask31_1_321" style="mask-type:luminance" maskUnits="userSpaceOnUse" x="15" y="10" width="2" height="2">
<path d="M16.0667 10.1148C15.7573 10.1148 15.5072 10.4009 15.5072 10.7532C15.5072 11.1062 15.7573 11.3924 16.0667 11.3924C16.3754 11.3924 16.6262 11.1062 16.6262 10.7532C16.6262 10.4009 16.3754 10.1148 16.0667 10.1148Z" fill="white"/>
</mask>
<g mask="url(#mask31_1_321)">
<mask id="mask32_1_321" style="mask-type:luminance" maskUnits="userSpaceOnUse" x="15" y="9" width="2" height="3">
<path d="M16.7742 9.93864H15.4839V11.411H16.7742V9.93864Z" fill="white"/>
</mask>
<g mask="url(#mask32_1_321)">
<mask id="mask33_1_321" style="mask-type:luminance" maskUnits="userSpaceOnUse" x="15" y="10" width="2" height="2">
<path d="M15.5072 10.1148H16.6261V11.3924H15.5072V10.1148Z" fill="white"/>
</mask>
<g mask="url(#mask33_1_321)">
<mask id="mask34_1_321" style="mask-type:luminance" maskUnits="userSpaceOnUse" x="15" y="10" width="2" height="2">
<path d="M16.0667 10.1148C15.7573 10.1148 15.5072 10.4009 15.5072 10.7532C15.5072 11.1062 15.7573 11.3924 16.0667 11.3924C16.3754 11.3924 16.6261 11.1062 16.6261 10.7532C16.6261 10.4009 16.3754 10.1148 16.0667 10.1148Z" fill="white"/>
</mask>
<g mask="url(#mask34_1_321)">
<path d="M15.5072 10.1148H16.6261V11.3924H15.5072V10.1148Z" fill="#F7C913"/>
</g>
</g>
</g>
</g>
</g>
</g>
</svg>
