<svg xmlns="http://www.w3.org/2000/svg" xmlns:xlink="http://www.w3.org/1999/xlink" width="500" zoomAndPan="magnify" viewBox="0 0 375 374.999991" height="500" preserveAspectRatio="xMidYMid meet" version="1.0"><defs><g/><clipPath id="500c979731"><path d="M 2.136719 0.933594 L 247 0.933594 L 247 215.066406 L 2.136719 215.066406 Z M 2.136719 0.933594 " clip-rule="nonzero"/></clipPath><clipPath id="17e82e8a22"><path d="M 124.5 0.933594 L 246.863281 215.066406 L 2.136719 215.066406 Z M 124.5 0.933594 " clip-rule="nonzero"/></clipPath><clipPath id="941d3b49a7"><path d="M 0.136719 0.933594 L 245 0.933594 L 245 215.066406 L 0.136719 215.066406 Z M 0.136719 0.933594 " clip-rule="nonzero"/></clipPath><clipPath id="06dca4e1a0"><path d="M 122.5 0.933594 L 244.863281 215.066406 L 0.136719 215.066406 Z M 122.5 0.933594 " clip-rule="nonzero"/></clipPath><clipPath id="1a5ec2a5dc"><rect x="0" width="245" y="0" height="216"/></clipPath><clipPath id="946e8bcbd5"><path d="M 106 148 L 143 148 L 143 197.859375 L 106 197.859375 Z M 106 148 " clip-rule="nonzero"/></clipPath><clipPath id="73862fd50a"><path d="M 130 137 L 178.289062 137 L 178.289062 176 L 130 176 Z M 130 137 " clip-rule="nonzero"/></clipPath><clipPath id="8562919a91"><path d="M 71.058594 137 L 119 137 L 119 176 L 71.058594 176 Z M 71.058594 137 " clip-rule="nonzero"/></clipPath><clipPath id="b7788c2b92"><path d="M 126 102.039062 L 168 102.039062 L 168 140 L 126 140 Z M 126 102.039062 " clip-rule="nonzero"/></clipPath><clipPath id="f7ea110b79"><path d="M 81 102.039062 L 124 102.039062 L 124 140 L 81 140 Z M 81 102.039062 " clip-rule="nonzero"/></clipPath><clipPath id="aa17ce6753"><path d="M 123 147 L 124 147 L 124 148.851562 L 123 148.851562 Z M 123 147 " clip-rule="nonzero"/></clipPath><clipPath id="7f45e1a7ea"><path d="M 122 55.308594 L 128.519531 55.308594 L 128.519531 148.851562 L 122 148.851562 Z M 122 55.308594 " clip-rule="nonzero"/></clipPath><clipPath id="26712c2b91"><path d="M 129.339844 61 L 138.550781 61 L 138.550781 70.214844 L 129.339844 70.214844 Z M 129.339844 61 " clip-rule="nonzero"/></clipPath><clipPath id="55ba257dd0"><path d="M 133.945312 61 C 131.402344 61 129.339844 63.0625 129.339844 65.605469 C 129.339844 68.152344 131.402344 70.214844 133.945312 70.214844 C 136.488281 70.214844 138.550781 68.152344 138.550781 65.605469 C 138.550781 63.0625 136.488281 61 133.945312 61 Z M 133.945312 61 " clip-rule="nonzero"/></clipPath><clipPath id="3b8411a7d8"><path d="M 0.339844 0 L 9.550781 0 L 9.550781 9.214844 L 0.339844 9.214844 Z M 0.339844 0 " clip-rule="nonzero"/></clipPath><clipPath id="6560459105"><path d="M 4.945312 0 C 2.402344 0 0.339844 2.0625 0.339844 4.605469 C 0.339844 7.152344 2.402344 9.214844 4.945312 9.214844 C 7.488281 9.214844 9.550781 7.152344 9.550781 4.605469 C 9.550781 2.0625 7.488281 0 4.945312 0 Z M 4.945312 0 " clip-rule="nonzero"/></clipPath><clipPath id="257d678f5b"><rect x="0" width="10" y="0" height="10"/></clipPath><clipPath id="e32157611f"><path d="M 111.339844 72.75 L 120.554688 72.75 L 120.554688 81.964844 L 111.339844 81.964844 Z M 111.339844 72.75 " clip-rule="nonzero"/></clipPath><clipPath id="43a72869c2"><path d="M 115.949219 72.75 C 113.402344 72.75 111.339844 74.8125 111.339844 77.359375 C 111.339844 79.902344 113.402344 81.964844 115.949219 81.964844 C 118.492188 81.964844 120.554688 79.902344 120.554688 77.359375 C 120.554688 74.8125 118.492188 72.75 115.949219 72.75 Z M 115.949219 72.75 " clip-rule="nonzero"/></clipPath><clipPath id="b0991ad210"><path d="M 0.339844 0.75 L 9.554688 0.75 L 9.554688 9.964844 L 0.339844 9.964844 Z M 0.339844 0.75 " clip-rule="nonzero"/></clipPath><clipPath id="c48f8e375a"><path d="M 4.949219 0.75 C 2.402344 0.75 0.339844 2.8125 0.339844 5.359375 C 0.339844 7.902344 2.402344 9.964844 4.949219 9.964844 C 7.492188 9.964844 9.554688 7.902344 9.554688 5.359375 C 9.554688 2.8125 7.492188 0.75 4.949219 0.75 Z M 4.949219 0.75 " clip-rule="nonzero"/></clipPath><clipPath id="6a94d61c59"><rect x="0" width="10" y="0" height="10"/></clipPath><clipPath id="dbe43dfd80"><path d="M 111.339844 61 L 120.554688 61 L 120.554688 70.214844 L 111.339844 70.214844 Z M 111.339844 61 " clip-rule="nonzero"/></clipPath><clipPath id="cc280f0dd6"><path d="M 115.949219 61 C 113.402344 61 111.339844 63.0625 111.339844 65.605469 C 111.339844 68.152344 113.402344 70.214844 115.949219 70.214844 C 118.492188 70.214844 120.554688 68.152344 120.554688 65.605469 C 120.554688 63.0625 118.492188 61 115.949219 61 Z M 115.949219 61 " clip-rule="nonzero"/></clipPath><clipPath id="f80ce7fdb6"><path d="M 0.339844 0 L 9.554688 0 L 9.554688 9.214844 L 0.339844 9.214844 Z M 0.339844 0 " clip-rule="nonzero"/></clipPath><clipPath id="de21c5eba5"><path d="M 4.949219 0 C 2.402344 0 0.339844 2.0625 0.339844 4.605469 C 0.339844 7.152344 2.402344 9.214844 4.949219 9.214844 C 7.492188 9.214844 9.554688 7.152344 9.554688 4.605469 C 9.554688 2.0625 7.492188 0 4.949219 0 Z M 4.949219 0 " clip-rule="nonzero"/></clipPath><clipPath id="79bb823a21"><rect x="0" width="10" y="0" height="10"/></clipPath><clipPath id="5bb8583241"><path d="M 121.675781 46.144531 L 130.890625 46.144531 L 130.890625 55.359375 L 121.675781 55.359375 Z M 121.675781 46.144531 " clip-rule="nonzero"/></clipPath><clipPath id="1ee8c23a56"><path d="M 126.28125 46.144531 C 123.738281 46.144531 121.675781 48.207031 121.675781 50.753906 C 121.675781 53.296875 123.738281 55.359375 126.28125 55.359375 C 128.824219 55.359375 130.890625 53.296875 130.890625 50.753906 C 130.890625 48.207031 128.824219 46.144531 126.28125 46.144531 Z M 126.28125 46.144531 " clip-rule="nonzero"/></clipPath><clipPath id="a5d439614e"><path d="M 0.675781 0.144531 L 9.890625 0.144531 L 9.890625 9.359375 L 0.675781 9.359375 Z M 0.675781 0.144531 " clip-rule="nonzero"/></clipPath><clipPath id="7bc3546a7b"><path d="M 5.28125 0.144531 C 2.738281 0.144531 0.675781 2.207031 0.675781 4.753906 C 0.675781 7.296875 2.738281 9.359375 5.28125 9.359375 C 7.824219 9.359375 9.890625 7.296875 9.890625 4.753906 C 9.890625 2.207031 7.824219 0.144531 5.28125 0.144531 Z M 5.28125 0.144531 " clip-rule="nonzero"/></clipPath><clipPath id="c3ad45ccf2"><rect x="0" width="10" y="0" height="10"/></clipPath><clipPath id="b1b8fad10a"><path d="M 129.339844 72.75 L 138.550781 72.75 L 138.550781 81.964844 L 129.339844 81.964844 Z M 129.339844 72.75 " clip-rule="nonzero"/></clipPath><clipPath id="bdbe5bf4ff"><path d="M 133.945312 72.75 C 131.402344 72.75 129.339844 74.8125 129.339844 77.359375 C 129.339844 79.902344 131.402344 81.964844 133.945312 81.964844 C 136.488281 81.964844 138.550781 79.902344 138.550781 77.359375 C 138.550781 74.8125 136.488281 72.75 133.945312 72.75 Z M 133.945312 72.75 " clip-rule="nonzero"/></clipPath><clipPath id="e8def25abe"><path d="M 0.339844 0.75 L 9.550781 0.75 L 9.550781 9.964844 L 0.339844 9.964844 Z M 0.339844 0.75 " clip-rule="nonzero"/></clipPath><clipPath id="59460514d8"><path d="M 4.945312 0.75 C 2.402344 0.75 0.339844 2.8125 0.339844 5.359375 C 0.339844 7.902344 2.402344 9.964844 4.945312 9.964844 C 7.488281 9.964844 9.550781 7.902344 9.550781 5.359375 C 9.550781 2.8125 7.488281 0.75 4.945312 0.75 Z M 4.945312 0.75 " clip-rule="nonzero"/></clipPath><clipPath id="0c12cdac2a"><rect x="0" width="10" y="0" height="10"/></clipPath><clipPath id="f905951297"><rect x="0" width="254" y="0" height="256"/></clipPath></defs><g transform="matrix(1, 0, 0, 1, 63, 62)"><g clip-path="url(#f905951297)"><g clip-path="url(#500c979731)"><g clip-path="url(#17e82e8a22)"><g transform="matrix(1, 0, 0, 1, 2, 0)"><g clip-path="url(#1a5ec2a5dc)"><g clip-path="url(#941d3b49a7)"><g clip-path="url(#06dca4e1a0)"><path fill="#e3feff" d="M 0.136719 0.933594 L 245.222656 0.933594 L 245.222656 215.066406 L 0.136719 215.066406 Z M 0.136719 0.933594 " fill-opacity="1" fill-rule="nonzero"/></g></g></g></g></g></g><g clip-path="url(#946e8bcbd5)"><path fill="#0cabc6" d="M 139.132812 191.902344 C 137.472656 194.269531 135.480469 196.691406 132.707031 197.746094 C 129.335938 198.578125 127.316406 194.390625 123.996094 194.777344 C 121.191406 195.335938 119.058594 198.667969 115.957031 197.613281 C 112.261719 195.933594 109.847656 192.328125 108.191406 188.753906 C 104.695312 180.804688 106.027344 171.515625 109.84375 163.933594 C 112.917969 158.011719 117.367188 152.824219 122.625 148.730469 C 122.976562 155.058594 122.613281 161.410156 123.015625 167.738281 C 123.058594 168.976562 124.800781 169.761719 125.648438 168.722656 C 126.339844 168.199219 126.230469 167.285156 126.25 166.523438 C 126.210938 160.609375 126.320312 154.695312 126.222656 148.789062 C 133.375 153.9375 139.027344 161.289062 141.515625 169.792969 C 143.917969 177.023438 143.480469 185.480469 139.132812 191.902344 Z M 139.132812 191.902344 " fill-opacity="1" fill-rule="nonzero"/></g><g clip-path="url(#73862fd50a)"><path fill="#0cabc6" d="M 167.574219 174.835938 C 160.636719 176.921875 153 175.441406 146.8125 171.859375 C 145.648438 171.289062 145.425781 169.933594 145.054688 168.824219 C 143.273438 163.078125 140.105469 157.832031 136.195312 153.28125 C 134.351562 151.113281 132.175781 149.257812 130.253906 147.160156 C 136.535156 148.316406 142.023438 151.667969 147.679688 154.40625 C 148.421875 153.777344 149.011719 153.003906 149.375 152.101562 C 147.082031 149.953125 144.121094 148.792969 141.359375 147.398438 C 137.957031 145.746094 134.328125 144.65625 130.683594 143.691406 C 135.675781 139.878906 142.050781 138.371094 148.207031 137.761719 C 156.109375 136.984375 164.453125 138.949219 170.726562 143.949219 C 174.820312 147.214844 177.921875 152.050781 178.289062 157.347656 C 177.65625 160.621094 173.601562 161.316406 172.261719 164.136719 C 171.945312 166.652344 173.28125 169.277344 172.140625 171.703125 C 171.289062 173.460938 169.332031 174.261719 167.574219 174.832031 Z M 167.574219 174.835938 " fill-opacity="1" fill-rule="nonzero"/></g><g clip-path="url(#8562919a91)"><path fill="#0cabc6" d="M 103.121094 171.402344 C 97.113281 174.894531 89.953125 176.839844 83.042969 175.261719 C 80.882812 174.675781 78.5 173.925781 77.113281 172.042969 C 75.671875 169.617188 77.078125 166.8125 76.851562 164.246094 C 75.515625 161.332031 71.203125 160.703125 70.703125 157.238281 C 70.785156 153.726562 72.5 150.453125 74.566406 147.695312 C 80.515625 140.253906 90.546875 136.988281 99.839844 137.71875 C 106.328125 138.335938 113.039062 139.832031 118.429688 143.65625 C 112.242188 145.5 105.964844 147.558594 100.660156 151.355469 C 99.699219 152.21875 100.328125 154.089844 101.578125 154.273438 C 103.085938 153.847656 104.398438 152.984375 105.765625 152.257812 C 109.828125 149.976562 114.230469 148.328125 118.726562 147.121094 C 114.730469 151.128906 110.632812 155.15625 107.835938 160.140625 C 105.742188 163.660156 104.417969 167.539062 103.121094 171.402344 Z M 103.121094 171.402344 " fill-opacity="1" fill-rule="nonzero"/></g><g clip-path="url(#b7788c2b92)"><path fill="#0cabc6" d="M 158.046875 134.6875 C 148.417969 133.054688 138.453125 135.355469 129.785156 139.632812 C 132.46875 135.113281 136.21875 131.316406 140.285156 128.042969 C 141.464844 127.390625 141.191406 125.726562 140.097656 125.140625 C 138.867188 124.753906 137.863281 125.726562 136.96875 126.410156 C 133.121094 129.683594 129.804688 133.523438 126.824219 137.582031 C 127.535156 132.296875 127.703125 126.894531 126.84375 121.617188 C 126.210938 118.683594 128.03125 116.023438 129.28125 113.519531 C 133.699219 106.640625 141.691406 101.867188 149.976562 102.132812 C 151.730469 102.195312 153.664062 102.109375 155.15625 103.164062 C 157.144531 104.878906 156.765625 107.878906 158.160156 109.9375 C 160.296875 112.269531 164.222656 111.441406 166.175781 114.007812 C 168.078125 116.40625 167.480469 119.699219 166.835938 122.4375 C 165.546875 127.394531 162.40625 131.957031 158.042969 134.6875 Z M 158.046875 134.6875 " fill-opacity="1" fill-rule="nonzero"/></g><g clip-path="url(#f7ea110b79)"><path fill="#0cabc6" d="M 119.253906 139.519531 C 110.925781 135.632812 101.585938 133.167969 92.355469 134.566406 C 90.347656 135.105469 89.019531 133.191406 87.71875 132.011719 C 83.722656 128.15625 81.445312 122.554688 81.851562 116.996094 C 82.015625 115.105469 82.941406 112.980469 84.90625 112.40625 C 87.101562 111.53125 90.253906 111.710938 91.355469 109.199219 C 92.359375 106.910156 92.125 103.226562 95.15625 102.535156 C 106.441406 100.222656 118.585938 107.578125 122.078125 118.507812 C 124.484375 124.792969 124.347656 131.761719 122.890625 138.253906 C 118.96875 133.265625 115.023438 127.960938 109.417969 124.769531 C 108.707031 125.394531 107.511719 126.449219 108.371094 127.445312 C 112.273438 131.195312 116.539062 134.757812 119.257812 139.519531 Z M 119.253906 139.519531 " fill-opacity="1" fill-rule="nonzero"/></g><path fill="#f7c913" d="M 124.113281 68.320312 C 124.089844 68.320312 124.066406 68.296875 124.015625 68.296875 C 124.066406 68.320312 124.089844 68.320312 124.113281 68.320312 Z M 124.113281 68.320312 " fill-opacity="1" fill-rule="nonzero"/><path fill="#f7c913" d="M 123.535156 75.609375 L 123.488281 75.535156 C 123.511719 75.585938 123.511719 75.609375 123.535156 75.609375 Z M 123.535156 75.609375 " fill-opacity="1" fill-rule="nonzero"/><path fill="#f7c913" d="M 124.339844 63.945312 C 124.367188 63.972656 124.367188 63.972656 124.339844 63.945312 C 124.367188 63.894531 124.367188 63.796875 124.367188 63.644531 Z M 124.339844 63.945312 " fill-opacity="1" fill-rule="nonzero"/><path fill="#f7c913" d="M 122.910156 91.167969 L 122.910156 91.070312 C 122.910156 91.117188 122.882812 91.144531 122.910156 91.167969 Z M 122.910156 91.167969 " fill-opacity="1" fill-rule="nonzero"/><path fill="#f7c913" d="M 123.335938 81.945312 C 123.359375 81.96875 123.386719 82.019531 123.386719 82.070312 C 123.410156 82.019531 123.386719 81.96875 123.335938 81.945312 Z M 123.335938 81.945312 " fill-opacity="1" fill-rule="nonzero"/><path fill="#f7c913" d="M 126.25 61.660156 L 126.125 61.785156 C 126.175781 61.757812 126.25 61.734375 126.25 61.660156 Z M 126.25 61.660156 " fill-opacity="1" fill-rule="nonzero"/><path fill="#f7c913" d="M 125.75 57.210938 C 125.75 57.210938 125.722656 57.210938 125.722656 57.210938 C 125.722656 57.234375 125.722656 57.234375 125.75 57.210938 Z M 125.75 57.210938 " fill-opacity="1" fill-rule="nonzero"/><path fill="#f7c913" d="M 125.222656 58.945312 C 125.222656 58.96875 125.246094 59.019531 125.269531 59.070312 C 125.269531 59.019531 125.269531 58.945312 125.222656 58.945312 Z M 125.222656 58.945312 " fill-opacity="1" fill-rule="nonzero"/><path fill="#f7c913" d="M 125.320312 59.121094 C 125.320312 59.09375 125.296875 59.070312 125.296875 59.070312 C 125.269531 59.09375 125.296875 59.121094 125.320312 59.121094 Z M 125.320312 59.121094 " fill-opacity="1" fill-rule="nonzero"/><path fill="#f7c913" d="M 123.535156 147.625 C 123.535156 147.75 123.636719 147.851562 123.710938 147.976562 Z M 123.535156 147.625 " fill-opacity="1" fill-rule="nonzero"/><path fill="#f7c913" d="M 122.832031 105.246094 L 122.78125 105.21875 C 122.78125 105.246094 122.808594 105.246094 122.832031 105.246094 Z M 122.832031 105.246094 " fill-opacity="1" fill-rule="nonzero"/><path fill="#f7c913" d="M 124.667969 147.800781 L 124.617188 147.878906 C 124.644531 147.851562 124.667969 147.828125 124.667969 147.800781 Z M 124.667969 147.800781 " fill-opacity="1" fill-rule="nonzero"/><path fill="#f7c913" d="M 126.601562 63.996094 C 126.730469 64.121094 126.578125 64.398438 126.703125 64.375 C 126.679688 64.25 126.78125 64.046875 126.601562 63.996094 Z M 126.601562 63.996094 " fill-opacity="1" fill-rule="nonzero"/><path fill="#f7c913" d="M 124.667969 147.800781 L 124.691406 147.703125 C 124.667969 147.703125 124.644531 147.726562 124.617188 147.726562 C 124.644531 147.75 124.644531 147.777344 124.667969 147.800781 Z M 124.667969 147.800781 " fill-opacity="1" fill-rule="nonzero"/><path fill="#f7c913" d="M 122.78125 119.902344 C 122.78125 119.875 122.757812 119.875 122.757812 119.875 Z M 122.78125 119.902344 " fill-opacity="1" fill-rule="nonzero"/><path fill="#f7c913" d="M 122.582031 120.679688 C 122.554688 120.628906 122.554688 120.578125 122.53125 120.503906 C 122.507812 120.605469 122.53125 120.65625 122.582031 120.679688 Z M 122.582031 120.679688 " fill-opacity="1" fill-rule="nonzero"/><g clip-path="url(#aa17ce6753)"><path fill="#f7c913" d="M 123.710938 147.976562 L 123.8125 148.179688 C 123.789062 148.105469 123.761719 148.054688 123.710938 147.976562 Z M 123.710938 147.976562 " fill-opacity="1" fill-rule="nonzero"/></g><path fill="#f7c913" d="M 122.757812 129.050781 C 122.757812 129.023438 122.757812 129 122.730469 128.976562 C 122.730469 129.023438 122.730469 129.050781 122.757812 129.050781 Z M 122.757812 129.050781 " fill-opacity="1" fill-rule="nonzero"/><path fill="#f7c913" d="M 123.410156 81.367188 C 123.410156 81.339844 123.4375 81.316406 123.4375 81.289062 C 123.410156 81.289062 123.386719 81.289062 123.410156 81.367188 Z M 123.410156 81.367188 " fill-opacity="1" fill-rule="nonzero"/><path fill="#f7c913" d="M 126.601562 86.847656 C 126.578125 86.945312 126.652344 87.070312 126.753906 87.148438 C 126.753906 87.046875 126.730469 86.945312 126.601562 86.847656 Z M 126.601562 86.847656 " fill-opacity="1" fill-rule="nonzero"/><path fill="#f7c913" d="M 126.703125 87.800781 C 126.703125 87.800781 126.703125 87.777344 126.730469 87.777344 C 126.703125 87.777344 126.703125 87.800781 126.703125 87.800781 Z M 126.703125 87.800781 " fill-opacity="1" fill-rule="nonzero"/><path fill="#f7c913" d="M 126.957031 82.824219 C 126.929688 82.847656 126.90625 82.875 126.90625 82.898438 C 126.929688 82.875 126.957031 82.847656 126.957031 82.824219 Z M 126.957031 82.824219 " fill-opacity="1" fill-rule="nonzero"/><g clip-path="url(#7f45e1a7ea)"><path fill="#f7c913" d="M 127.984375 102.480469 C 127.910156 101.324219 127.660156 99.816406 127.734375 98.660156 C 127.484375 98.410156 127.457031 98.03125 127.40625 97.679688 L 127.757812 97.628906 L 127.660156 97.328125 C 127.757812 97.203125 127.734375 97.554688 127.859375 97.351562 L 127.632812 97.226562 C 127.757812 97.203125 127.710938 96.449219 127.960938 96.949219 L 127.960938 95.769531 C 127.960938 95.519531 127.683594 95.617188 127.757812 95.316406 C 127.859375 95.265625 127.835938 95.417969 127.960938 95.390625 C 128.210938 94.511719 127.28125 94.386719 127.457031 93.558594 L 127.507812 93.632812 C 127.40625 93.480469 127.433594 93.230469 127.382812 93.230469 C 127.03125 93.332031 127.558594 93.382812 127.359375 93.632812 C 127.054688 93.609375 127.207031 93.332031 126.980469 93.332031 C 127.082031 93.128906 126.929688 93.03125 126.90625 92.851562 C 127.082031 92.578125 126.957031 92.148438 127.179688 91.949219 C 127.082031 91.796875 126.804688 91.648438 126.78125 91.34375 C 127.003906 91.117188 127.003906 91.394531 127.082031 91.09375 L 126.90625 91.042969 C 126.929688 90.792969 126.980469 90.84375 127.054688 90.84375 C 127.054688 90.589844 126.828125 90.640625 126.929688 90.316406 L 127.105469 90.492188 C 127.03125 90.265625 127.082031 90.164062 127.082031 89.835938 C 127.179688 89.835938 127.179688 89.988281 127.132812 90.0625 C 127.382812 89.886719 127.03125 89.761719 127.054688 89.660156 C 126.980469 89.6875 126.957031 89.914062 126.78125 89.8125 C 126.804688 89.636719 126.554688 89.460938 126.753906 89.335938 L 126.929688 89.511719 C 126.804688 89.160156 126.730469 89.335938 126.78125 88.933594 C 126.804688 88.957031 126.828125 88.933594 126.878906 88.957031 C 126.652344 88.707031 126.855469 88.378906 126.878906 88.027344 L 126.929688 88.101562 C 126.878906 87.953125 126.730469 87.875 126.730469 87.800781 C 126.628906 88.003906 126.578125 87.953125 126.425781 87.976562 C 126.703125 87.699219 126.101562 87.550781 126.277344 87.097656 C 126.378906 87.097656 126.503906 87.222656 126.378906 87.347656 C 126.652344 87.5 126.90625 87.523438 127.054688 87.800781 C 126.980469 87.625 126.957031 87.425781 127.082031 87.472656 L 126.804688 87.425781 C 126.804688 87.324219 126.804688 87.25 126.804688 87.148438 C 126.628906 87.097656 126.527344 87.347656 126.425781 87.121094 C 126.351562 86.847656 126.703125 86.972656 126.578125 86.945312 C 126.476562 86.570312 126.300781 86.796875 126.378906 86.445312 C 126.402344 86.46875 126.453125 86.542969 126.425781 86.570312 C 126.527344 86.316406 126.378906 85.941406 126.703125 85.867188 C 126.78125 85.914062 126.878906 85.914062 126.855469 86.015625 L 126.804688 86.015625 C 127.03125 86.292969 126.730469 85.789062 127.03125 85.867188 C 126.855469 85.890625 126.90625 85.511719 126.929688 85.363281 L 126.730469 85.414062 C 126.152344 84.859375 127.132812 85.4375 127.054688 84.910156 C 126.929688 84.558594 127.003906 85.035156 126.855469 84.835938 C 126.878906 84.609375 127.054688 84.507812 126.980469 84.179688 C 127.054688 84.082031 127.15625 83.90625 127.382812 83.878906 C 127.28125 83.679688 127.484375 83.25 127.257812 83.152344 C 127.082031 83.503906 127.484375 83.503906 127.207031 83.90625 L 126.980469 83.777344 C 126.980469 83.503906 126.878906 83.125 126.957031 82.949219 C 126.90625 83 126.855469 83 126.804688 82.976562 C 126.730469 82.574219 126.503906 82.445312 126.578125 82.070312 C 126.78125 82.019531 126.730469 82.246094 126.753906 82.421875 C 126.90625 82.171875 126.753906 82.144531 126.828125 81.769531 C 127.003906 81.742188 126.828125 82.042969 126.980469 82.070312 L 126.929688 81.644531 C 126.929688 81.644531 126.957031 81.644531 126.957031 81.644531 C 126.679688 81.566406 126.980469 81.316406 126.90625 81.039062 C 126.90625 80.410156 126.527344 80.308594 126.300781 79.957031 C 126.378906 79.859375 126.453125 79.832031 126.527344 79.882812 C 126.402344 80.035156 126.503906 80.007812 126.578125 80.058594 C 126.554688 79.859375 126.855469 79.582031 126.980469 79.707031 C 126.90625 79.378906 126.828125 79.832031 126.730469 79.632812 L 126.753906 79.179688 C 126.601562 79.230469 126.578125 79.40625 126.453125 79.152344 C 126.402344 78.953125 126.453125 78.851562 126.453125 78.601562 C 126.527344 78.652344 126.679688 78.527344 126.679688 78.726562 C 126.730469 78.601562 126.753906 78.398438 126.601562 78.324219 C 126.476562 78.601562 126.476562 77.847656 126.25 78.074219 L 126.378906 77.796875 C 126.378906 77.871094 126.476562 77.871094 126.453125 77.972656 C 126.679688 77.898438 126.378906 77.746094 126.378906 77.644531 C 126.425781 77.546875 126.453125 77.269531 126.527344 77.269531 C 126.476562 77.167969 126.503906 76.941406 126.628906 76.917969 C 126.578125 76.792969 126.476562 76.917969 126.402344 76.867188 L 126.425781 76.414062 C 126.554688 76.390625 126.90625 76.339844 126.929688 76.414062 C 126.804688 76.238281 126.554688 76.363281 126.578125 76.085938 C 126.828125 76.238281 126.753906 75.734375 127.054688 75.960938 C 127.230469 75.8125 127.230469 75.382812 127.15625 75.132812 C 126.957031 74.980469 127.054688 75.382812 126.855469 75.382812 C 126.78125 74.703125 126.25 74.679688 126.351562 74.175781 L 126.300781 74.304688 C 126.203125 74 126.226562 74.027344 126.050781 73.851562 C 126.300781 73.925781 126.703125 73.5 126.652344 72.996094 C 126.527344 72.945312 126.425781 73.273438 126.226562 73.195312 L 126.203125 72.871094 C 126.226562 72.84375 126.25 72.871094 126.300781 72.921875 C 126.226562 72.617188 126.628906 72.367188 126.328125 72.265625 L 126.679688 71.964844 L 126.527344 72.089844 C 126.402344 72.039062 126.378906 71.714844 126.328125 71.636719 C 126.203125 71.285156 126.300781 71.160156 126.453125 70.984375 C 126.351562 71.035156 126.125 71.1875 126.101562 70.933594 C 126.503906 70.933594 126.25 70.382812 126.453125 70.382812 C 126.453125 70.28125 126.578125 70.078125 126.402344 70.054688 L 126.652344 70.078125 C 126.300781 70.054688 126.328125 69.652344 126.277344 69.351562 C 126.730469 69.425781 126.25 69.023438 126.652344 68.875 C 126.328125 68.824219 126.527344 68.34375 126.25 68.269531 C 126.226562 68.042969 126.527344 68.070312 126.628906 67.992188 L 126.503906 67.894531 C 126.652344 67.765625 126.679688 67.339844 126.78125 67.0625 L 126.503906 66.8125 L 126.628906 66.710938 C 126.554688 66.660156 126.527344 66.460938 126.402344 66.585938 L 126.351562 66.382812 C 126.050781 66.382812 126.277344 66.207031 126.152344 65.933594 C 126.203125 65.882812 126.277344 65.882812 126.300781 65.933594 C 126.300781 65.804688 126.453125 65.855469 126.554688 65.78125 C 126.476562 65.882812 126 65.304688 125.875 65.65625 C 125.75 65.679688 125.648438 65.480469 125.722656 65.355469 L 126 65.277344 L 125.722656 65.128906 C 125.671875 64.925781 125.847656 64.851562 125.898438 64.675781 C 125.925781 64.851562 126.425781 65.050781 126.425781 64.625 C 126.453125 64.851562 126.601562 64.953125 126.679688 65.078125 C 126.679688 64.976562 126.703125 64.953125 126.828125 65.078125 C 126.753906 64.75 126.652344 64.976562 126.628906 64.625 C 126.878906 64.648438 126.957031 64.550781 127.03125 64.25 L 126.855469 64.472656 C 126.828125 64.472656 126.804688 64.449219 126.78125 64.425781 C 126.753906 64.5 126.703125 64.523438 126.628906 64.550781 C 126.628906 64.472656 126.328125 64.171875 126.476562 64.097656 C 126.101562 64.425781 126.175781 63.519531 125.949219 63.71875 C 125.875 63.671875 125.875 63.445312 125.976562 63.417969 C 126.152344 63.695312 126.25 63.21875 126.425781 63.242188 C 126.351562 63.140625 126.25 63.46875 126.152344 63.316406 C 126.125 63.140625 126.277344 63.042969 126.351562 62.941406 L 126.402344 63.015625 L 126.503906 62.765625 C 126.378906 62.714844 126.300781 63.015625 126.226562 62.765625 C 126.277344 62.714844 126.226562 62.464844 126.300781 62.464844 C 126.476562 62.5625 126.703125 62.488281 126.730469 62.691406 C 126.703125 62.511719 126.679688 61.984375 126.453125 62.210938 L 126.453125 62.011719 C 126.351562 62.136719 126.175781 62.488281 126.125 62.085938 L 126.175781 62.085938 L 126 61.808594 L 126.125 61.683594 C 126.074219 61.683594 126 61.632812 126 61.535156 C 126.074219 61.507812 126.101562 61.40625 126.203125 61.40625 C 126.203125 61.105469 126.074219 61.132812 126 61.082031 C 125.976562 60.90625 126.023438 60.855469 126.175781 60.929688 C 126.203125 60.703125 126.175781 60.300781 126.300781 60.152344 C 126.203125 59.847656 126.25 60.226562 126.074219 60.023438 C 126.503906 59.75 126.25 59.019531 126.175781 58.515625 C 125.800781 58.644531 126.125 58.390625 125.800781 58.289062 C 125.925781 58.390625 126.074219 57.8125 126.203125 58.265625 L 126.152344 57.988281 C 126.351562 57.8125 126.300781 58.441406 126.578125 58.164062 C 126.578125 57.863281 126.152344 57.664062 126.300781 57.308594 C 126.554688 57.4375 126.226562 57.035156 126.503906 57.132812 C 126.601562 57.210938 126.578125 57.308594 126.578125 57.410156 L 126.628906 57.359375 C 126.703125 56.707031 126.328125 57.160156 126.125 56.832031 C 126.101562 56.429688 126.328125 56.507812 126.453125 56.507812 C 126.503906 56.457031 126.453125 56.230469 126.402344 56.128906 C 126.554688 56.378906 126.226562 56.582031 126.074219 56.480469 C 126.378906 56.304688 126.101562 55.878906 125.976562 55.777344 C 125.648438 56.355469 125.949219 56.179688 125.625 56.707031 C 125.722656 56.78125 126 56.757812 125.875 57.085938 C 125.75 56.882812 125.722656 57.109375 125.671875 57.160156 C 125.824219 57.109375 125.75 57.386719 125.800781 57.488281 C 125.671875 57.585938 125.445312 57.285156 125.371094 57.613281 L 125.75 57.664062 C 125.699219 57.789062 125.472656 57.613281 125.574219 57.886719 C 125.371094 57.738281 125.269531 57.9375 125.222656 57.5625 C 124.917969 57.988281 125.398438 58.242188 125.523438 58.566406 C 125.496094 58.542969 125.445312 58.515625 125.421875 58.492188 C 125.523438 58.566406 125.523438 58.691406 125.523438 58.792969 C 125.445312 59.019531 125.347656 58.617188 125.246094 58.667969 L 125.246094 59.042969 C 125.246094 59.042969 125.222656 59.042969 125.222656 59.042969 C 125.269531 59.144531 125.296875 59.222656 125.222656 59.269531 C 125.09375 59.171875 124.996094 59.121094 124.894531 59.042969 L 125.144531 59.421875 C 125.019531 59.371094 124.945312 59.75 124.84375 59.472656 L 124.894531 60.050781 L 124.644531 60.101562 C 124.691406 60.226562 124.742188 60.25 124.769531 60.074219 C 124.71875 60.277344 125.195312 60.929688 124.71875 60.828125 C 124.917969 61.28125 124.84375 61.433594 124.96875 61.984375 C 124.742188 61.582031 124.691406 62.464844 124.566406 62.011719 C 124.46875 62.261719 124.71875 62.3125 124.769531 62.515625 C 124.667969 62.714844 124.417969 62.613281 124.339844 62.414062 L 124.441406 62.664062 L 124.390625 62.664062 L 124.542969 62.867188 C 124.417969 63.09375 124.289062 62.914062 124.265625 63.140625 L 124.492188 63.191406 L 124.367188 63.34375 C 124.46875 63.292969 124.515625 63.417969 124.515625 63.59375 L 124.46875 63.59375 L 124.566406 63.871094 C 124.441406 63.671875 124.515625 64.046875 124.367188 63.972656 C 124.367188 64.148438 124.367188 64.148438 124.390625 64.449219 L 124.542969 64.398438 C 124.667969 64.800781 124.316406 64.425781 124.316406 64.75 L 124.492188 64.726562 C 124.214844 65.203125 124.644531 65.53125 124.46875 65.882812 C 124.417969 65.679688 124.214844 65.730469 124.265625 65.730469 C 124.316406 66.03125 124.289062 66.535156 124.492188 66.835938 C 124.242188 66.960938 124.164062 66.988281 124.066406 67.289062 C 124.089844 67.515625 124.113281 67.566406 124.242188 67.640625 C 124.140625 67.867188 124.289062 68.296875 124.113281 68.296875 C 124.265625 68.34375 124.089844 68.496094 124.214844 68.621094 L 124.140625 68.648438 L 124.316406 68.621094 C 123.9375 69.023438 124.542969 69.300781 124.191406 69.703125 L 124.140625 69.628906 L 124.214844 69.804688 C 124.140625 69.828125 124.089844 69.753906 123.988281 69.753906 L 123.964844 70.558594 L 124.089844 70.40625 C 124.113281 70.582031 124.265625 70.683594 124.164062 70.882812 C 123.914062 70.558594 124.164062 71.136719 123.964844 71.210938 L 123.890625 71.035156 C 123.914062 71.261719 123.914062 71.261719 124.066406 71.234375 C 124.113281 71.539062 123.738281 71.4375 123.914062 71.714844 L 123.914062 71.511719 C 124.015625 71.460938 124.164062 71.589844 124.140625 71.738281 C 124.113281 71.765625 124.039062 71.863281 124.015625 71.765625 C 124.089844 71.988281 123.988281 72.367188 124.066406 72.46875 C 124.015625 72.59375 123.890625 72.542969 123.839844 72.492188 C 123.988281 72.996094 123.8125 72.71875 123.964844 73.222656 L 123.863281 73.222656 L 124.015625 73.421875 L 123.8125 73.675781 L 123.9375 73.574219 C 123.964844 73.75 124.015625 73.851562 123.964844 74.050781 L 123.8125 73.976562 C 123.890625 74.453125 123.5625 74.527344 123.761719 74.957031 C 123.738281 74.980469 123.6875 74.90625 123.664062 74.882812 C 123.890625 75.308594 123.410156 75.183594 123.6875 75.609375 C 123.636719 75.585938 123.585938 75.636719 123.535156 75.609375 L 123.636719 75.8125 L 123.4375 75.785156 L 123.738281 75.9375 L 123.535156 76.0625 L 123.636719 76.136719 C 123.261719 76.339844 123.535156 76.640625 123.261719 76.917969 L 123.511719 76.867188 C 124.015625 77.570312 123.234375 78.476562 123.460938 79.304688 L 123.261719 79.28125 L 123.488281 79.632812 C 123.335938 79.808594 123.308594 79.53125 123.210938 79.582031 C 123.308594 79.957031 123.488281 79.730469 123.5625 80.160156 C 123.4375 80.386719 123.410156 80.085938 123.359375 79.984375 C 123.460938 80.386719 123.5625 80.988281 123.460938 81.289062 C 123.488281 81.289062 123.511719 81.316406 123.535156 81.289062 C 123.613281 81.566406 123.535156 81.917969 123.535156 82.222656 C 123.4375 82.222656 123.4375 82.144531 123.410156 82.070312 C 123.410156 82.171875 123.335938 82.320312 123.4375 82.421875 L 123.261719 82.320312 C 123.234375 82.546875 123.386719 83 123.183594 83.050781 C 123.261719 83.023438 123.410156 83.023438 123.386719 83.226562 C 123.085938 83.328125 123.511719 83.777344 123.359375 84.082031 C 123.285156 84.03125 123.285156 83.804688 123.261719 83.878906 C 123.183594 84.03125 123.308594 84.179688 123.410156 84.332031 L 123.285156 84.28125 L 123.460938 85.035156 C 123.160156 85.136719 123.511719 85.738281 123.285156 85.691406 C 123.285156 85.964844 123.410156 85.464844 123.460938 85.789062 C 123.335938 85.890625 123.511719 86.089844 123.335938 86.066406 L 123.308594 86.042969 L 123.285156 86.242188 L 123.085938 86.089844 C 123.132812 86.292969 123.308594 86.445312 123.460938 86.445312 C 123.359375 86.644531 123.4375 86.894531 123.261719 86.996094 L 123.210938 86.921875 C 123.285156 87.449219 122.683594 87.800781 123.007812 88.226562 C 122.984375 88.253906 122.933594 88.253906 122.933594 88.179688 L 122.910156 88.503906 L 122.757812 88.429688 L 123.035156 89.007812 L 122.933594 89.007812 C 122.882812 89.359375 122.933594 89.9375 122.984375 90.390625 L 122.933594 90.316406 C 123.085938 90.816406 122.832031 90.816406 122.957031 91.167969 C 122.933594 91.144531 122.933594 91.144531 122.910156 91.117188 L 122.910156 91.445312 L 122.808594 91.371094 C 123.007812 91.621094 122.53125 92.074219 122.707031 91.921875 C 122.808594 92.074219 122.910156 92.300781 123.035156 92.351562 C 123.035156 92.726562 122.910156 92.453125 122.832031 92.675781 C 122.832031 92.953125 122.984375 92.980469 122.910156 93.355469 L 122.808594 93.355469 C 122.832031 93.53125 122.882812 93.632812 122.910156 93.859375 L 122.859375 93.785156 C 123.058594 94.160156 122.582031 94.261719 123.007812 94.5625 C 122.933594 94.714844 122.984375 95.015625 122.78125 95.015625 C 122.910156 95.492188 122.957031 95.871094 123.035156 96.324219 C 122.707031 96.398438 123.058594 96.421875 122.882812 96.699219 L 123.058594 96.675781 C 123.085938 97.328125 122.65625 98.105469 122.730469 98.835938 L 122.554688 98.859375 L 122.757812 99.011719 C 122.683594 99.792969 122.605469 100.820312 122.605469 101.449219 C 122.707031 101.652344 122.910156 101.976562 122.832031 102.304688 L 122.808594 102.28125 C 122.910156 102.859375 122.984375 103.460938 122.882812 104.0625 C 122.808594 104.015625 122.757812 104.089844 122.707031 104.015625 C 122.910156 104.164062 122.707031 104.390625 122.707031 104.515625 L 122.832031 104.367188 C 123.007812 104.542969 122.832031 104.792969 122.707031 104.894531 L 122.882812 105.171875 C 122.859375 105.195312 122.832031 105.21875 122.808594 105.21875 L 122.910156 105.269531 L 122.683594 105.421875 C 122.730469 105.496094 122.78125 105.847656 123.007812 105.976562 C 122.933594 106 122.882812 106.25 122.832031 106.050781 L 122.757812 107.105469 L 122.832031 106.957031 C 123.007812 106.929688 123.109375 107.230469 123.035156 107.40625 C 122.882812 107.207031 122.78125 107.382812 122.65625 107.484375 C 122.757812 107.632812 122.808594 107.355469 122.910156 107.433594 C 123.035156 107.609375 123.085938 107.984375 123.007812 108.0625 L 122.933594 107.960938 C 123.007812 108.1875 122.707031 108.3125 122.707031 108.539062 C 122.859375 108.738281 122.707031 108.914062 123.007812 108.867188 C 123.058594 109.167969 122.808594 108.992188 122.78125 109.089844 C 122.933594 109.242188 122.832031 109.667969 122.683594 109.71875 C 123.109375 109.894531 122.53125 110.550781 122.882812 110.601562 L 122.683594 110.851562 C 122.78125 110.851562 123.007812 110.902344 123.035156 111.101562 C 122.933594 111.304688 122.757812 111.253906 122.65625 111.304688 L 123.007812 111.429688 C 122.632812 112.535156 122.882812 113.96875 122.554688 115.175781 C 122.632812 115.703125 122.808594 116.382812 122.757812 117.007812 L 122.707031 116.933594 L 122.605469 117.5625 L 122.78125 117.109375 C 122.832031 117.234375 122.882812 117.363281 122.882812 117.488281 C 122.730469 118.164062 122.554688 119.070312 122.730469 119.925781 C 123.160156 120.480469 122.355469 120.277344 122.65625 120.804688 C 122.605469 120.753906 122.554688 120.753906 122.507812 120.703125 C 122.65625 121.257812 122.707031 121.558594 122.957031 122.136719 C 122.554688 122.0625 122.957031 122.515625 122.757812 122.464844 L 122.933594 122.515625 C 122.832031 122.640625 122.78125 122.941406 122.683594 122.890625 L 122.882812 123.144531 L 122.707031 123.167969 C 122.683594 123.496094 122.832031 124.199219 122.480469 124.375 C 122.730469 125.179688 122.65625 126.484375 122.605469 127.492188 C 122.757812 127.640625 122.757812 127.945312 122.78125 128.171875 L 122.582031 128.421875 C 122.65625 128.648438 122.910156 128.898438 122.78125 129.125 C 122.757812 129.125 122.730469 129.125 122.730469 129.101562 C 122.78125 129.351562 122.65625 129.578125 122.859375 129.804688 C 122.859375 130.082031 122.730469 130.332031 122.554688 130.257812 C 122.910156 130.28125 122.507812 130.808594 122.507812 130.808594 C 122.507812 130.808594 121.675781 144.382812 123.535156 147.703125 C 123.710938 147.75 123.8125 148.054688 124.015625 147.925781 C 124.089844 148.179688 123.789062 148.28125 123.9375 148.328125 C 124.066406 148.003906 124.390625 148.429688 124.59375 148.105469 L 124.644531 148.304688 C 124.742188 148.355469 124.492188 148.054688 124.71875 148.078125 L 124.390625 148.027344 C 124.441406 147.851562 124.515625 147.777344 124.617188 147.726562 C 124.492188 147.574219 124.066406 147.476562 124.265625 147.097656 L 124.265625 147.199219 C 124.265625 146.898438 124.46875 147.023438 124.515625 146.949219 L 124.515625 147.023438 L 124.667969 146.769531 C 124.59375 146.972656 124.84375 147.273438 124.820312 147.097656 C 124.917969 146.746094 124.742188 147.199219 124.691406 146.921875 C 124.667969 146.746094 124.84375 146.796875 124.945312 146.820312 L 124.945312 146.519531 C 125.09375 146.519531 124.945312 146.722656 125.09375 146.59375 L 124.945312 146.21875 C 125.320312 146.144531 124.769531 145.816406 125.121094 145.640625 C 125.195312 145.917969 125.246094 145.613281 125.371094 145.664062 L 125.347656 145.011719 C 125.398438 144.9375 125.472656 145.1875 125.445312 145.085938 C 125.546875 144.960938 125.347656 144.886719 125.371094 144.8125 C 125.472656 144.761719 125.371094 144.308594 125.625 144.332031 C 125.800781 143.878906 125.320312 144.132812 125.445312 143.730469 C 125.597656 143.679688 125.472656 144.058594 125.648438 143.878906 L 125.597656 143.453125 C 125.671875 143.503906 125.847656 143.527344 125.800781 143.703125 C 126 142.523438 126.78125 141.894531 126.578125 140.8125 C 126.753906 140.664062 126.703125 140.914062 126.804688 141.039062 C 126.578125 140.261719 127.179688 139.933594 127.179688 139.28125 L 127.03125 139.28125 C 127.484375 138.351562 127.207031 137.246094 127.40625 136.1875 L 127.257812 136.265625 C 127.105469 136.113281 127.105469 135.886719 127.03125 135.710938 C 127.105469 135.6875 127.332031 135.835938 127.28125 135.535156 C 127.230469 135.585938 127.179688 135.738281 127.105469 135.6875 C 127.484375 134.78125 127.382812 132.894531 127.582031 131.414062 C 127.484375 129.425781 127.757812 127.242188 127.660156 125.28125 C 127.660156 125.582031 127.308594 125.457031 127.382812 125.230469 C 127.984375 124.601562 127.28125 124.148438 127.710938 123.519531 C 127.507812 122.390625 128.035156 121.359375 127.582031 120.300781 L 127.757812 120.277344 C 127.835938 120.125 127.710938 120.078125 127.710938 119.902344 L 127.757812 119.902344 C 127.835938 119.5 127.660156 119.019531 127.734375 118.792969 L 127.535156 118.769531 C 127.507812 118.542969 127.683594 118.644531 127.582031 118.417969 L 127.683594 118.417969 L 127.507812 118.140625 C 127.859375 118.164062 127.535156 117.488281 127.683594 117.285156 C 127.632812 116.984375 127.484375 116.40625 127.535156 115.953125 C 127.710938 115.878906 127.710938 115.300781 127.785156 114.949219 C 127.734375 114.246094 127.683594 113.238281 127.734375 112.359375 L 127.507812 112.382812 L 127.484375 112.160156 C 127.535156 112.160156 127.558594 112.132812 127.582031 112.160156 C 127.835938 111.984375 127.507812 111.628906 127.660156 111.429688 C 127.457031 111.554688 127.632812 111.582031 127.632812 111.730469 C 127.535156 111.933594 127.308594 111.730469 127.433594 111.480469 L 127.484375 111.480469 L 127.359375 111.304688 C 127.535156 111.277344 127.609375 111.128906 127.785156 111.101562 C 127.734375 110.347656 127.457031 109.820312 127.535156 109.015625 C 127.734375 109.089844 127.484375 108.4375 127.808594 108.613281 C 127.683594 108.136719 127.535156 108.691406 127.308594 108.464844 C 127.308594 108.335938 127.230469 108.1875 127.332031 108.160156 C 127.40625 108.210938 127.535156 108.0625 127.558594 108.160156 L 127.535156 107.835938 C 127.558594 107.808594 127.609375 107.886719 127.632812 107.910156 C 127.433594 107.257812 127.859375 106.753906 127.660156 106.175781 C 127.535156 106.125 127.632812 106.402344 127.507812 106.351562 C 127.257812 105.773438 127.734375 105.847656 127.558594 105.296875 L 127.734375 105.398438 C 127.609375 105.21875 127.484375 105.144531 127.609375 104.867188 C 127.808594 104.820312 127.757812 105.121094 127.859375 105.246094 C 127.859375 105.042969 127.808594 104.542969 127.632812 104.691406 C 127.558594 104.464844 127.734375 104.367188 127.808594 104.242188 C 127.757812 104.242188 127.683594 104.464844 127.582031 104.316406 C 127.683594 103.988281 127.683594 103.484375 127.710938 103.109375 C 127.757812 103.109375 127.835938 103.085938 127.859375 103.109375 C 127.609375 102.882812 128.035156 102.933594 127.984375 102.480469 Z M 127.984375 102.480469 " fill-opacity="1" fill-rule="nonzero"/></g><path fill="#f7c913" d="M 126.980469 81.417969 L 126.957031 81.566406 C 127.003906 81.566406 127.054688 81.566406 127.105469 81.644531 Z M 126.980469 81.417969 " fill-opacity="1" fill-rule="nonzero"/><path fill="#f7c913" d="M 126.855469 88.984375 C 126.878906 89.007812 126.878906 89.03125 126.90625 89.03125 C 126.90625 89.007812 126.878906 89.007812 126.855469 88.984375 Z M 126.855469 88.984375 " fill-opacity="1" fill-rule="nonzero"/><path fill="#f7c913" d="M 127.207031 90.816406 C 127.15625 90.691406 127.105469 90.792969 127.054688 90.867188 C 127.082031 90.894531 127.132812 90.867188 127.207031 90.816406 Z M 127.207031 90.816406 " fill-opacity="1" fill-rule="nonzero"/><path fill="#f7c913" d="M 126.453125 77.144531 C 126.476562 77.167969 126.503906 77.195312 126.527344 77.195312 C 126.503906 77.144531 126.476562 77.144531 126.453125 77.144531 Z M 126.453125 77.144531 " fill-opacity="1" fill-rule="nonzero"/><path fill="#f7c913" d="M 126.601562 65.304688 C 126.601562 65.328125 126.578125 65.328125 126.578125 65.355469 C 126.578125 65.355469 126.601562 65.328125 126.601562 65.304688 Z M 126.601562 65.304688 " fill-opacity="1" fill-rule="nonzero"/><path fill="#f7c913" d="M 126.300781 65.957031 C 126.300781 65.984375 126.300781 66.03125 126.328125 66.082031 C 126.328125 66.03125 126.300781 65.984375 126.300781 65.957031 Z M 126.300781 65.957031 " fill-opacity="1" fill-rule="nonzero"/><path fill="#f7c913" d="M 126.527344 80.007812 C 126.527344 80.058594 126.554688 80.085938 126.578125 80.132812 C 126.578125 80.058594 126.554688 80.035156 126.527344 80.007812 Z M 126.527344 80.007812 " fill-opacity="1" fill-rule="nonzero"/><path fill="#f7c913" d="M 126.351562 66.234375 L 126.351562 66.382812 C 126.378906 66.382812 126.378906 66.382812 126.402344 66.382812 Z M 126.351562 66.234375 " fill-opacity="1" fill-rule="nonzero"/><path fill="#f7c913" d="M 126.628906 65.101562 C 126.628906 65.179688 126.628906 65.253906 126.601562 65.304688 C 126.652344 65.226562 126.652344 65.152344 126.628906 65.101562 Z M 126.628906 65.101562 " fill-opacity="1" fill-rule="nonzero"/><path fill="#f7c913" d="M 126.203125 72.792969 C 126.203125 72.792969 126.203125 72.820312 126.203125 72.792969 C 126.300781 72.945312 126.25 72.871094 126.203125 72.792969 Z M 126.203125 72.792969 " fill-opacity="1" fill-rule="nonzero"/><path fill="#f7c913" d="M 126.703125 66.960938 L 126.753906 67.039062 Z M 126.703125 66.960938 " fill-opacity="1" fill-rule="nonzero"/><path fill="#f7c913" d="M 126.703125 64.375 C 126.703125 64.398438 126.730469 64.425781 126.730469 64.449219 C 126.730469 64.425781 126.753906 64.398438 126.753906 64.347656 C 126.730469 64.375 126.703125 64.375 126.703125 64.375 Z M 126.703125 64.375 " fill-opacity="1" fill-rule="nonzero"/><path fill="#f7c913" d="M 126.503906 70.332031 C 126.425781 70.28125 126.378906 70.253906 126.351562 70.253906 C 126.351562 70.304688 126.378906 70.332031 126.503906 70.332031 Z M 126.503906 70.332031 " fill-opacity="1" fill-rule="nonzero"/><g clip-path="url(#26712c2b91)"><g clip-path="url(#55ba257dd0)"><g transform="matrix(1, 0, 0, 1, 129, 61)"><g clip-path="url(#257d678f5b)"><g clip-path="url(#3b8411a7d8)"><g clip-path="url(#6560459105)"><path fill="#f7c913" d="M 0.339844 0 L 9.550781 0 L 9.550781 9.214844 L 0.339844 9.214844 Z M 0.339844 0 " fill-opacity="1" fill-rule="nonzero"/></g></g></g></g></g></g><g clip-path="url(#e32157611f)"><g clip-path="url(#43a72869c2)"><g transform="matrix(1, 0, 0, 1, 111, 72)"><g clip-path="url(#6a94d61c59)"><g clip-path="url(#b0991ad210)"><g clip-path="url(#c48f8e375a)"><path fill="#f7c913" d="M 0.339844 0.75 L 9.554688 0.75 L 9.554688 9.964844 L 0.339844 9.964844 Z M 0.339844 0.75 " fill-opacity="1" fill-rule="nonzero"/></g></g></g></g></g></g><g clip-path="url(#dbe43dfd80)"><g clip-path="url(#cc280f0dd6)"><g transform="matrix(1, 0, 0, 1, 111, 61)"><g clip-path="url(#79bb823a21)"><g clip-path="url(#f80ce7fdb6)"><g clip-path="url(#de21c5eba5)"><path fill="#f7c913" d="M 0.339844 0 L 9.554688 0 L 9.554688 9.214844 L 0.339844 9.214844 Z M 0.339844 0 " fill-opacity="1" fill-rule="nonzero"/></g></g></g></g></g></g><g clip-path="url(#5bb8583241)"><g clip-path="url(#1ee8c23a56)"><g transform="matrix(1, 0, 0, 1, 121, 46)"><g clip-path="url(#c3ad45ccf2)"><g clip-path="url(#a5d439614e)"><g clip-path="url(#7bc3546a7b)"><path fill="#f7c913" d="M 0.675781 0.144531 L 9.890625 0.144531 L 9.890625 9.359375 L 0.675781 9.359375 Z M 0.675781 0.144531 " fill-opacity="1" fill-rule="nonzero"/></g></g></g></g></g></g><g clip-path="url(#b1b8fad10a)"><g clip-path="url(#bdbe5bf4ff)"><g transform="matrix(1, 0, 0, 1, 129, 72)"><g clip-path="url(#0c12cdac2a)"><g clip-path="url(#e8def25abe)"><g clip-path="url(#59460514d8)"><path fill="#f7c913" d="M 0.339844 0.75 L 9.550781 0.75 L 9.550781 9.964844 L 0.339844 9.964844 Z M 0.339844 0.75 " fill-opacity="1" fill-rule="nonzero"/></g></g></g></g></g></g><g fill="#0cabc6" fill-opacity="1"><g transform="translate(0.729251, 245.031848)"><g><path d="M 2.515625 -1.78125 L 2.40625 -13.765625 C 2.40625 -16.253906 2.441406 -17.988281 2.515625 -18.96875 C 2.535156 -19.113281 2.921875 -19.1875 3.671875 -19.1875 C 4.421875 -19.1875 4.851562 -19.140625 4.96875 -19.046875 C 5.082031 -18.960938 5.140625 -18.816406 5.140625 -18.609375 C 5.140625 -14.742188 5.175781 -12.144531 5.25 -10.8125 C 5.65625 -11.101562 6.925781 -12.269531 9.0625 -14.3125 C 11.195312 -16.363281 12.484375 -17.59375 12.921875 -18 C 13.359375 -18.40625 13.640625 -18.675781 13.765625 -18.8125 C 13.898438 -18.957031 14.007812 -19.070312 14.09375 -19.15625 C 14.351562 -19.375 14.5625 -19.484375 14.71875 -19.484375 C 14.882812 -19.484375 15.09375 -19.351562 15.34375 -19.09375 C 15.601562 -18.832031 15.734375 -18.632812 15.734375 -18.5 C 15.734375 -18.375 15.675781 -18.25 15.5625 -18.125 C 15.457031 -18 15.3125 -17.847656 15.125 -17.671875 C 14.945312 -17.492188 14.832031 -17.378906 14.78125 -17.328125 C 13.082031 -15.535156 10.898438 -13.390625 8.234375 -10.890625 C 7.691406 -10.421875 7.421875 -10.132812 7.421875 -10.03125 C 7.421875 -9.925781 7.507812 -9.8125 7.6875 -9.6875 C 7.875 -9.5625 8.09375 -9.421875 8.34375 -9.265625 C 8.601562 -9.109375 8.875 -8.921875 9.15625 -8.703125 C 9.4375 -8.484375 10.054688 -7.957031 11.015625 -7.125 C 11.972656 -6.300781 12.582031 -5.785156 12.84375 -5.578125 C 15.957031 -2.972656 17.515625 -1.460938 17.515625 -1.046875 C 17.515625 -0.835938 17.3125 -0.554688 16.90625 -0.203125 C 16.507812 0.148438 16.226562 0.328125 16.0625 0.328125 C 15.90625 0.328125 15.753906 0.289062 15.609375 0.21875 C 15.460938 0.144531 15.34375 0.0703125 15.25 0 C 14.832031 -0.40625 14.578125 -0.632812 14.484375 -0.6875 L 14.515625 -0.6875 L 13.1875 -1.8125 C 12.332031 -2.539062 11.25 -3.457031 9.9375 -4.5625 C 8.625 -5.675781 7.753906 -6.414062 7.328125 -6.78125 C 6.910156 -7.15625 6.628906 -7.40625 6.484375 -7.53125 C 6.335938 -7.65625 6.21875 -7.753906 6.125 -7.828125 C 5.90625 -8.066406 5.660156 -8.222656 5.390625 -8.296875 C 5.265625 -8.222656 5.203125 -7.640625 5.203125 -6.546875 C 5.203125 -6.546875 5.21875 -5.601562 5.25 -3.71875 L 5.359375 -1.34375 C 5.359375 -0.78125 5.269531 -0.414062 5.09375 -0.25 C 4.925781 -0.0820312 4.59375 0 4.09375 0 C 3.59375 0 3.242188 -0.03125 3.046875 -0.09375 C 2.859375 -0.15625 2.726562 -0.296875 2.65625 -0.515625 C 2.5625 -0.796875 2.515625 -1.21875 2.515625 -1.78125 Z M 2.515625 -1.78125 "/></g></g></g><g fill="#0cabc6" fill-opacity="1"><g transform="translate(18.552211, 245.031848)"><g><path d="M 12.015625 -8.484375 L 7.25 -8.515625 C 5.300781 -4.972656 4.207031 -3.007812 3.96875 -2.625 C 3.726562 -2.238281 3.5 -1.8125 3.28125 -1.34375 C 2.769531 -0.226562 2.351562 0.328125 2.03125 0.328125 C 1.238281 0.328125 0.679688 0.144531 0.359375 -0.21875 C 0.335938 -0.257812 0.328125 -0.316406 0.328125 -0.390625 C 0.328125 -0.460938 0.382812 -0.601562 0.5 -0.8125 C 0.625 -1.019531 0.816406 -1.304688 1.078125 -1.671875 C 1.347656 -2.035156 1.523438 -2.289062 1.609375 -2.4375 C 3.804688 -6.320312 5.789062 -9.773438 7.5625 -12.796875 C 9.34375 -15.816406 10.359375 -17.554688 10.609375 -18.015625 C 10.859375 -18.484375 11.070312 -18.835938 11.25 -19.078125 C 11.582031 -19.273438 11.960938 -19.375 12.390625 -19.375 C 12.816406 -19.375 13.09375 -19.351562 13.21875 -19.3125 C 13.34375 -19.28125 13.453125 -19.210938 13.546875 -19.109375 C 13.640625 -19.015625 13.707031 -18.929688 13.75 -18.859375 C 13.800781 -18.785156 13.867188 -18.648438 13.953125 -18.453125 C 14.046875 -18.253906 14.191406 -17.929688 14.390625 -17.484375 C 14.597656 -17.046875 15.25 -15.78125 16.34375 -13.6875 C 17.4375 -11.601562 18.164062 -10.148438 18.53125 -9.328125 C 18.894531 -8.515625 19.25 -7.707031 19.59375 -6.90625 C 20.332031 -5.238281 20.992188 -3.878906 21.578125 -2.828125 C 22.171875 -1.785156 22.46875 -1.097656 22.46875 -0.765625 C 22.46875 -0.566406 22.191406 -0.332031 21.640625 -0.0625 C 21.085938 0.195312 20.695312 0.328125 20.46875 0.328125 C 20.09375 0.328125 19.738281 -0.164062 19.40625 -1.15625 L 18.890625 -2.1875 C 18.546875 -2.9375 18.078125 -3.914062 17.484375 -5.125 C 16.898438 -6.34375 16.347656 -7.488281 15.828125 -8.5625 C 15.398438 -8.550781 14.96875 -8.546875 14.53125 -8.546875 C 14.113281 -8.503906 13.273438 -8.484375 12.015625 -8.484375 Z M 8.296875 -10.375 L 11.28125 -10.40625 L 14.953125 -10.40625 C 14.765625 -10.769531 14.546875 -11.222656 14.296875 -11.765625 C 14.054688 -12.316406 13.910156 -12.632812 13.859375 -12.71875 C 13.816406 -12.800781 13.75 -12.941406 13.65625 -13.140625 C 13.5625 -13.335938 13.46875 -13.523438 13.375 -13.703125 C 13.289062 -13.890625 13.1875 -14.109375 13.0625 -14.359375 C 12.945312 -14.617188 12.832031 -14.851562 12.71875 -15.0625 C 12.613281 -15.28125 12.507812 -15.476562 12.40625 -15.65625 C 12.164062 -16.070312 12 -16.28125 11.90625 -16.28125 C 11.8125 -16.28125 11.691406 -16.1875 11.546875 -16 C 11.398438 -15.8125 11.234375 -15.5625 11.046875 -15.25 C 10.859375 -14.9375 10.679688 -14.632812 10.515625 -14.34375 C 10.015625 -13.425781 9.722656 -12.90625 9.640625 -12.78125 C 9.566406 -12.65625 9.46875 -12.484375 9.34375 -12.265625 C 9.226562 -12.046875 9.066406 -11.753906 8.859375 -11.390625 C 8.648438 -11.023438 8.460938 -10.6875 8.296875 -10.375 Z M 8.296875 -10.375 "/></g></g></g><g fill="#0cabc6" fill-opacity="1"><g transform="translate(41.33056, 245.031848)"><g><path d="M 2.46875 -6.015625 L 2.4375 -9.390625 C 2.53125 -13.617188 2.578125 -16.039062 2.578125 -16.65625 C 2.578125 -17.269531 2.566406 -17.722656 2.546875 -18.015625 C 2.523438 -18.304688 2.523438 -18.5 2.546875 -18.59375 C 2.566406 -18.695312 2.601562 -18.832031 2.65625 -19 C 2.75 -19.25 3.039062 -19.375 3.53125 -19.375 C 3.789062 -19.375 4.191406 -19.082031 4.734375 -18.5 C 5.503906 -17.789062 6.378906 -16.925781 7.359375 -15.90625 C 8.347656 -14.882812 8.988281 -14.238281 9.28125 -13.96875 C 9.570312 -13.707031 11.21875 -12.046875 14.21875 -8.984375 C 17.21875 -5.929688 18.847656 -4.269531 19.109375 -4 C 19.203125 -4.726562 19.25 -5.601562 19.25 -6.625 L 19.265625 -10.078125 C 19.265625 -12.046875 19.300781 -15.035156 19.375 -19.046875 C 20.269531 -19.179688 20.789062 -19.25 20.9375 -19.25 C 21.082031 -19.25 21.191406 -19.207031 21.265625 -19.125 C 21.335938 -19.039062 21.375 -18.816406 21.375 -18.453125 L 21.21875 -9.875 C 21.21875 -7.445312 21.179688 -5.03125 21.109375 -2.625 L 21.078125 -1.5 C 21.078125 -0.769531 21.015625 -0.289062 20.890625 -0.0625 C 20.765625 0.164062 20.472656 0.28125 20.015625 0.28125 C 19.722656 0.28125 19.441406 0.164062 19.171875 -0.0625 C 18.910156 -0.289062 18.710938 -0.460938 18.578125 -0.578125 C 18.453125 -0.703125 18.296875 -0.863281 18.109375 -1.0625 C 17.929688 -1.269531 17.804688 -1.410156 17.734375 -1.484375 L 14.953125 -4.328125 C 10.328125 -9.035156 7.585938 -11.8125 6.734375 -12.65625 C 5.890625 -13.507812 5.421875 -13.992188 5.328125 -14.109375 C 5.242188 -14.234375 5.164062 -14.332031 5.09375 -14.40625 C 4.90625 -14.582031 4.734375 -14.671875 4.578125 -14.671875 C 4.460938 -14.671875 4.40625 -14.5 4.40625 -14.15625 L 4.46875 -9.390625 L 4.375 -1.53125 L 4.375 -0.84375 C 4.375 -0.226562 3.9375 0.078125 3.0625 0.078125 C 2.769531 0.078125 2.585938 0.00390625 2.515625 -0.140625 C 2.441406 -0.285156 2.40625 -0.625 2.40625 -1.15625 Z M 2.46875 -6.015625 "/></g></g></g><g fill="#0cabc6" fill-opacity="1"><g transform="translate(65.121889, 245.031848)"><g><path d="M 12.015625 -8.484375 L 7.25 -8.515625 C 5.300781 -4.972656 4.207031 -3.007812 3.96875 -2.625 C 3.726562 -2.238281 3.5 -1.8125 3.28125 -1.34375 C 2.769531 -0.226562 2.351562 0.328125 2.03125 0.328125 C 1.238281 0.328125 0.679688 0.144531 0.359375 -0.21875 C 0.335938 -0.257812 0.328125 -0.316406 0.328125 -0.390625 C 0.328125 -0.460938 0.382812 -0.601562 0.5 -0.8125 C 0.625 -1.019531 0.816406 -1.304688 1.078125 -1.671875 C 1.347656 -2.035156 1.523438 -2.289062 1.609375 -2.4375 C 3.804688 -6.320312 5.789062 -9.773438 7.5625 -12.796875 C 9.34375 -15.816406 10.359375 -17.554688 10.609375 -18.015625 C 10.859375 -18.484375 11.070312 -18.835938 11.25 -19.078125 C 11.582031 -19.273438 11.960938 -19.375 12.390625 -19.375 C 12.816406 -19.375 13.09375 -19.351562 13.21875 -19.3125 C 13.34375 -19.28125 13.453125 -19.210938 13.546875 -19.109375 C 13.640625 -19.015625 13.707031 -18.929688 13.75 -18.859375 C 13.800781 -18.785156 13.867188 -18.648438 13.953125 -18.453125 C 14.046875 -18.253906 14.191406 -17.929688 14.390625 -17.484375 C 14.597656 -17.046875 15.25 -15.78125 16.34375 -13.6875 C 17.4375 -11.601562 18.164062 -10.148438 18.53125 -9.328125 C 18.894531 -8.515625 19.25 -7.707031 19.59375 -6.90625 C 20.332031 -5.238281 20.992188 -3.878906 21.578125 -2.828125 C 22.171875 -1.785156 22.46875 -1.097656 22.46875 -0.765625 C 22.46875 -0.566406 22.191406 -0.332031 21.640625 -0.0625 C 21.085938 0.195312 20.695312 0.328125 20.46875 0.328125 C 20.09375 0.328125 19.738281 -0.164062 19.40625 -1.15625 L 18.890625 -2.1875 C 18.546875 -2.9375 18.078125 -3.914062 17.484375 -5.125 C 16.898438 -6.34375 16.347656 -7.488281 15.828125 -8.5625 C 15.398438 -8.550781 14.96875 -8.546875 14.53125 -8.546875 C 14.113281 -8.503906 13.273438 -8.484375 12.015625 -8.484375 Z M 8.296875 -10.375 L 11.28125 -10.40625 L 14.953125 -10.40625 C 14.765625 -10.769531 14.546875 -11.222656 14.296875 -11.765625 C 14.054688 -12.316406 13.910156 -12.632812 13.859375 -12.71875 C 13.816406 -12.800781 13.75 -12.941406 13.65625 -13.140625 C 13.5625 -13.335938 13.46875 -13.523438 13.375 -13.703125 C 13.289062 -13.890625 13.1875 -14.109375 13.0625 -14.359375 C 12.945312 -14.617188 12.832031 -14.851562 12.71875 -15.0625 C 12.613281 -15.28125 12.507812 -15.476562 12.40625 -15.65625 C 12.164062 -16.070312 12 -16.28125 11.90625 -16.28125 C 11.8125 -16.28125 11.691406 -16.1875 11.546875 -16 C 11.398438 -15.8125 11.234375 -15.5625 11.046875 -15.25 C 10.859375 -14.9375 10.679688 -14.632812 10.515625 -14.34375 C 10.015625 -13.425781 9.722656 -12.90625 9.640625 -12.78125 C 9.566406 -12.65625 9.46875 -12.484375 9.34375 -12.265625 C 9.226562 -12.046875 9.066406 -11.753906 8.859375 -11.390625 C 8.648438 -11.023438 8.460938 -10.6875 8.296875 -10.375 Z M 8.296875 -10.375 "/></g></g></g><g fill="#0cabc6" fill-opacity="1"><g transform="translate(87.900238, 245.031848)"><g><path d="M 2.515625 -1.78125 L 2.40625 -13.765625 C 2.40625 -16.253906 2.441406 -17.988281 2.515625 -18.96875 C 2.535156 -19.113281 2.921875 -19.1875 3.671875 -19.1875 C 4.421875 -19.1875 4.851562 -19.140625 4.96875 -19.046875 C 5.082031 -18.960938 5.140625 -18.816406 5.140625 -18.609375 C 5.140625 -14.742188 5.175781 -12.144531 5.25 -10.8125 C 5.65625 -11.101562 6.925781 -12.269531 9.0625 -14.3125 C 11.195312 -16.363281 12.484375 -17.59375 12.921875 -18 C 13.359375 -18.40625 13.640625 -18.675781 13.765625 -18.8125 C 13.898438 -18.957031 14.007812 -19.070312 14.09375 -19.15625 C 14.351562 -19.375 14.5625 -19.484375 14.71875 -19.484375 C 14.882812 -19.484375 15.09375 -19.351562 15.34375 -19.09375 C 15.601562 -18.832031 15.734375 -18.632812 15.734375 -18.5 C 15.734375 -18.375 15.675781 -18.25 15.5625 -18.125 C 15.457031 -18 15.3125 -17.847656 15.125 -17.671875 C 14.945312 -17.492188 14.832031 -17.378906 14.78125 -17.328125 C 13.082031 -15.535156 10.898438 -13.390625 8.234375 -10.890625 C 7.691406 -10.421875 7.421875 -10.132812 7.421875 -10.03125 C 7.421875 -9.925781 7.507812 -9.8125 7.6875 -9.6875 C 7.875 -9.5625 8.09375 -9.421875 8.34375 -9.265625 C 8.601562 -9.109375 8.875 -8.921875 9.15625 -8.703125 C 9.4375 -8.484375 10.054688 -7.957031 11.015625 -7.125 C 11.972656 -6.300781 12.582031 -5.785156 12.84375 -5.578125 C 15.957031 -2.972656 17.515625 -1.460938 17.515625 -1.046875 C 17.515625 -0.835938 17.3125 -0.554688 16.90625 -0.203125 C 16.507812 0.148438 16.226562 0.328125 16.0625 0.328125 C 15.90625 0.328125 15.753906 0.289062 15.609375 0.21875 C 15.460938 0.144531 15.34375 0.0703125 15.25 0 C 14.832031 -0.40625 14.578125 -0.632812 14.484375 -0.6875 L 14.515625 -0.6875 L 13.1875 -1.8125 C 12.332031 -2.539062 11.25 -3.457031 9.9375 -4.5625 C 8.625 -5.675781 7.753906 -6.414062 7.328125 -6.78125 C 6.910156 -7.15625 6.628906 -7.40625 6.484375 -7.53125 C 6.335938 -7.65625 6.21875 -7.753906 6.125 -7.828125 C 5.90625 -8.066406 5.660156 -8.222656 5.390625 -8.296875 C 5.265625 -8.222656 5.203125 -7.640625 5.203125 -6.546875 C 5.203125 -6.546875 5.21875 -5.601562 5.25 -3.71875 L 5.359375 -1.34375 C 5.359375 -0.78125 5.269531 -0.414062 5.09375 -0.25 C 4.925781 -0.0820312 4.59375 0 4.09375 0 C 3.59375 0 3.242188 -0.03125 3.046875 -0.09375 C 2.859375 -0.15625 2.726562 -0.296875 2.65625 -0.515625 C 2.5625 -0.796875 2.515625 -1.21875 2.515625 -1.78125 Z M 2.515625 -1.78125 "/></g></g></g><g fill="#0cabc6" fill-opacity="1"><g transform="translate(105.723198, 245.031848)"><g/></g><g transform="translate(112.567652, 245.031848)"><g><path d="M 12.015625 -8.484375 L 7.25 -8.515625 C 5.300781 -4.972656 4.207031 -3.007812 3.96875 -2.625 C 3.726562 -2.238281 3.5 -1.8125 3.28125 -1.34375 C 2.769531 -0.226562 2.351562 0.328125 2.03125 0.328125 C 1.238281 0.328125 0.679688 0.144531 0.359375 -0.21875 C 0.335938 -0.257812 0.328125 -0.316406 0.328125 -0.390625 C 0.328125 -0.460938 0.382812 -0.601562 0.5 -0.8125 C 0.625 -1.019531 0.816406 -1.304688 1.078125 -1.671875 C 1.347656 -2.035156 1.523438 -2.289062 1.609375 -2.4375 C 3.804688 -6.320312 5.789062 -9.773438 7.5625 -12.796875 C 9.34375 -15.816406 10.359375 -17.554688 10.609375 -18.015625 C 10.859375 -18.484375 11.070312 -18.835938 11.25 -19.078125 C 11.582031 -19.273438 11.960938 -19.375 12.390625 -19.375 C 12.816406 -19.375 13.09375 -19.351562 13.21875 -19.3125 C 13.34375 -19.28125 13.453125 -19.210938 13.546875 -19.109375 C 13.640625 -19.015625 13.707031 -18.929688 13.75 -18.859375 C 13.800781 -18.785156 13.867188 -18.648438 13.953125 -18.453125 C 14.046875 -18.253906 14.191406 -17.929688 14.390625 -17.484375 C 14.597656 -17.046875 15.25 -15.78125 16.34375 -13.6875 C 17.4375 -11.601562 18.164062 -10.148438 18.53125 -9.328125 C 18.894531 -8.515625 19.25 -7.707031 19.59375 -6.90625 C 20.332031 -5.238281 20.992188 -3.878906 21.578125 -2.828125 C 22.171875 -1.785156 22.46875 -1.097656 22.46875 -0.765625 C 22.46875 -0.566406 22.191406 -0.332031 21.640625 -0.0625 C 21.085938 0.195312 20.695312 0.328125 20.46875 0.328125 C 20.09375 0.328125 19.738281 -0.164062 19.40625 -1.15625 L 18.890625 -2.1875 C 18.546875 -2.9375 18.078125 -3.914062 17.484375 -5.125 C 16.898438 -6.34375 16.347656 -7.488281 15.828125 -8.5625 C 15.398438 -8.550781 14.96875 -8.546875 14.53125 -8.546875 C 14.113281 -8.503906 13.273438 -8.484375 12.015625 -8.484375 Z M 8.296875 -10.375 L 11.28125 -10.40625 L 14.953125 -10.40625 C 14.765625 -10.769531 14.546875 -11.222656 14.296875 -11.765625 C 14.054688 -12.316406 13.910156 -12.632812 13.859375 -12.71875 C 13.816406 -12.800781 13.75 -12.941406 13.65625 -13.140625 C 13.5625 -13.335938 13.46875 -13.523438 13.375 -13.703125 C 13.289062 -13.890625 13.1875 -14.109375 13.0625 -14.359375 C 12.945312 -14.617188 12.832031 -14.851562 12.71875 -15.0625 C 12.613281 -15.28125 12.507812 -15.476562 12.40625 -15.65625 C 12.164062 -16.070312 12 -16.28125 11.90625 -16.28125 C 11.8125 -16.28125 11.691406 -16.1875 11.546875 -16 C 11.398438 -15.8125 11.234375 -15.5625 11.046875 -15.25 C 10.859375 -14.9375 10.679688 -14.632812 10.515625 -14.34375 C 10.015625 -13.425781 9.722656 -12.90625 9.640625 -12.78125 C 9.566406 -12.65625 9.46875 -12.484375 9.34375 -12.265625 C 9.226562 -12.046875 9.066406 -11.753906 8.859375 -11.390625 C 8.648438 -11.023438 8.460938 -10.6875 8.296875 -10.375 Z M 8.296875 -10.375 "/></g></g></g><g fill="#0cabc6" fill-opacity="1"><g transform="translate(135.346001, 245.031848)"><g><path d="M 3.921875 0.0625 L 3.015625 0.03125 C 2.898438 0.03125 2.757812 0.0195312 2.59375 0 C 2.488281 -0.851562 2.4375 -2.078125 2.4375 -3.671875 L 2.40625 -7.3125 L 2.40625 -10.453125 C 2.40625 -11.953125 2.425781 -14.070312 2.46875 -16.8125 L 2.46875 -18.203125 C 2.46875 -18.515625 2.582031 -18.742188 2.8125 -18.890625 C 3.050781 -19.035156 3.289062 -19.113281 3.53125 -19.125 C 3.769531 -19.144531 4.035156 -19.15625 4.328125 -19.15625 L 4.875 -19.15625 C 7.476562 -19.15625 9.644531 -18.617188 11.375 -17.546875 C 13.101562 -16.484375 13.96875 -15.039062 13.96875 -13.21875 C 13.96875 -12.050781 13.617188 -10.96875 12.921875 -9.96875 L 10.59375 -7.640625 C 10.59375 -7.566406 11.175781 -6.953125 12.34375 -5.796875 C 14.207031 -3.992188 15.289062 -2.914062 15.59375 -2.5625 C 15.90625 -2.21875 16.117188 -1.988281 16.234375 -1.875 C 16.359375 -1.757812 16.457031 -1.664062 16.53125 -1.59375 C 16.71875 -1.375 16.804688 -1.195312 16.796875 -1.0625 C 16.785156 -0.9375 16.59375 -0.671875 16.21875 -0.265625 C 15.84375 0.128906 15.566406 0.328125 15.390625 0.328125 C 15.203125 0.328125 14.972656 0.1875 14.703125 -0.09375 C 14.441406 -0.375 14.1875 -0.625 13.9375 -0.84375 C 13.695312 -1.0625 13.234375 -1.523438 12.546875 -2.234375 C 11.867188 -2.953125 11.007812 -3.828125 9.96875 -4.859375 C 8.925781 -5.890625 8.367188 -6.40625 8.296875 -6.40625 L 5.25 -5.78125 C 5.21875 -5.632812 5.203125 -4.695312 5.203125 -2.96875 C 5.203125 -1.25 5.128906 -0.3125 4.984375 -0.15625 C 4.835938 -0.0078125 4.484375 0.0625 3.921875 0.0625 Z M 5.203125 -17.109375 C 5.148438 -16.816406 5.125 -15.703125 5.125 -13.765625 C 5.125 -11.835938 5.160156 -9.710938 5.234375 -7.390625 C 6.785156 -7.484375 8.1875 -8.050781 9.4375 -9.09375 C 10.695312 -10.144531 11.328125 -11.328125 11.328125 -12.640625 C 11.328125 -13.960938 10.800781 -15.046875 9.75 -15.890625 C 8.707031 -16.742188 7.398438 -17.171875 5.828125 -17.171875 C 5.703125 -17.171875 5.492188 -17.148438 5.203125 -17.109375 Z M 5.203125 -17.109375 "/></g></g></g><g fill="#0cabc6" fill-opacity="1"><g transform="translate(150.540695, 245.031848)"><g><path d="M 7.9375 -7.421875 L 8 -12.078125 L 8 -14.09375 C 8 -14.570312 8.019531 -15.128906 8.0625 -15.765625 C 8.101562 -16.398438 8.109375 -16.789062 8.078125 -16.9375 C 8.003906 -17.050781 7.300781 -17.097656 5.96875 -17.078125 L 2.140625 -17.046875 C 2.078125 -17.046875 1.945312 -17.035156 1.75 -17.015625 C 1.550781 -17.003906 1.382812 -17.003906 1.25 -17.015625 C 1.113281 -17.023438 0.972656 -17.046875 0.828125 -17.078125 C 0.472656 -17.140625 0.296875 -17.335938 0.296875 -17.671875 C 0.296875 -18.003906 0.320312 -18.265625 0.375 -18.453125 C 0.4375 -18.648438 0.515625 -18.796875 0.609375 -18.890625 C 0.710938 -18.984375 0.847656 -19.035156 1.015625 -19.046875 C 1.191406 -19.066406 1.40625 -19.070312 1.65625 -19.0625 C 1.90625 -19.050781 2.269531 -19.0625 2.75 -19.09375 C 3.238281 -19.132812 4.59375 -19.15625 6.8125 -19.15625 L 12.3125 -19.140625 L 17.5 -19.15625 L 18.640625 -19.1875 L 19.046875 -19.1875 C 19.398438 -19.1875 19.617188 -19.078125 19.703125 -18.859375 C 19.722656 -18.785156 19.734375 -18.6875 19.734375 -18.5625 C 19.734375 -17.925781 19.644531 -17.535156 19.46875 -17.390625 C 19.332031 -17.253906 18.875 -17.1875 18.09375 -17.1875 L 16.8125 -17.1875 C 15.945312 -17.1875 15.179688 -17.160156 14.515625 -17.109375 C 13.847656 -17.066406 12.804688 -17.046875 11.390625 -17.046875 C 11.117188 -17.046875 10.953125 -16.992188 10.890625 -16.890625 C 10.835938 -16.796875 10.8125 -16.59375 10.8125 -16.28125 L 10.78125 -11.328125 L 10.78125 -7.34375 C 10.78125 -4.894531 10.757812 -3.304688 10.71875 -2.578125 C 10.675781 -1.859375 10.648438 -1.394531 10.640625 -1.1875 C 10.628906 -0.976562 10.617188 -0.847656 10.609375 -0.796875 C 10.597656 -0.753906 10.578125 -0.671875 10.546875 -0.546875 C 10.523438 -0.421875 10.488281 -0.34375 10.4375 -0.3125 C 10.394531 -0.289062 10.335938 -0.242188 10.265625 -0.171875 C 10.191406 -0.109375 10.09375 -0.0703125 9.96875 -0.0625 C 9.851562 -0.0625 9.710938 -0.0507812 9.546875 -0.03125 C 9.390625 -0.0078125 9.15625 0 8.84375 0 C 8.53125 0 8.328125 -0.0351562 8.234375 -0.109375 C 8.148438 -0.179688 8.082031 -0.375 8.03125 -0.6875 C 7.988281 -1.007812 7.960938 -1.476562 7.953125 -2.09375 C 7.941406 -2.707031 7.929688 -3.191406 7.921875 -3.546875 C 7.910156 -3.898438 7.90625 -4.242188 7.90625 -4.578125 Z M 7.9375 -7.421875 "/></g></g></g><g fill="#0cabc6" fill-opacity="1"><g transform="translate(170.581259, 245.031848)"><g><path d="M 2.515625 -15.546875 L 2.484375 -17.796875 C 2.484375 -18.523438 2.519531 -18.960938 2.59375 -19.109375 C 2.632812 -19.140625 2.8125 -19.15625 3.125 -19.15625 C 3.4375 -19.15625 3.707031 -19.15625 3.9375 -19.15625 L 4.484375 -19.15625 C 4.867188 -19.15625 5.085938 -19.101562 5.140625 -19 C 5.203125 -18.90625 5.234375 -18.804688 5.234375 -18.703125 L 5.234375 -12.078125 L 5.25 -7.75 L 5.234375 -4.765625 L 5.234375 -1.78125 C 5.234375 -1.65625 5.234375 -1.476562 5.234375 -1.25 C 5.242188 -1.019531 5.242188 -0.875 5.234375 -0.8125 C 5.234375 -0.75 5.21875 -0.644531 5.1875 -0.5 C 5.15625 -0.363281 5.113281 -0.28125 5.0625 -0.25 C 5.007812 -0.226562 4.925781 -0.179688 4.8125 -0.109375 C 4.65625 -0.0351562 4.296875 0 3.734375 0 C 3.179688 0 2.828125 -0.03125 2.671875 -0.09375 C 2.515625 -0.15625 2.4375 -0.328125 2.4375 -0.609375 L 2.484375 -1.5 L 2.46875 -4.484375 L 2.4375 -8.078125 C 2.414062 -8.492188 2.40625 -8.96875 2.40625 -9.5 Z M 2.515625 -15.546875 "/></g></g></g><g fill="#0cabc6" fill-opacity="1"><g transform="translate(178.247048, 245.031848)"><g><path d="M 10.125 -17.28125 C 9.519531 -17.476562 8.789062 -17.578125 7.9375 -17.578125 C 7.09375 -17.578125 6.332031 -17.359375 5.65625 -16.921875 C 4.988281 -16.492188 4.65625 -15.882812 4.65625 -15.09375 C 4.65625 -14.300781 4.890625 -13.613281 5.359375 -13.03125 C 5.835938 -12.445312 6.414062 -11.910156 7.09375 -11.421875 C 7.769531 -10.941406 8.4375 -10.429688 9.09375 -9.890625 C 9.757812 -9.359375 10.332031 -8.6875 10.8125 -7.875 C 11.289062 -7.070312 11.53125 -6.171875 11.53125 -5.171875 C 11.53125 -4.171875 11.109375 -3.160156 10.265625 -2.140625 C 8.898438 -0.492188 6.640625 0.328125 3.484375 0.328125 C 3.035156 0.328125 2.644531 0.300781 2.3125 0.25 C 1.976562 0.207031 1.71875 0.175781 1.53125 0.15625 C 1.351562 0.144531 1.160156 0.117188 0.953125 0.078125 C 0.515625 0.00390625 0.296875 -0.101562 0.296875 -0.25 C 0.296875 -1.21875 0.472656 -1.8125 0.828125 -2.03125 C 1.566406 -1.789062 2.332031 -1.671875 3.125 -1.671875 C 6.914062 -1.671875 8.8125 -2.753906 8.8125 -4.921875 C 8.8125 -6.054688 8.007812 -7.21875 6.40625 -8.40625 C 5.726562 -8.894531 5.054688 -9.40625 4.390625 -9.9375 C 3.722656 -10.46875 3.148438 -11.128906 2.671875 -11.921875 C 2.203125 -12.710938 1.96875 -13.582031 1.96875 -14.53125 C 1.96875 -15.976562 2.59375 -17.164062 3.84375 -18.09375 C 5.09375 -19.019531 6.554688 -19.484375 8.234375 -19.484375 C 8.597656 -19.484375 9.085938 -19.441406 9.703125 -19.359375 C 10.316406 -19.285156 10.644531 -19.179688 10.6875 -19.046875 C 10.738281 -18.921875 10.765625 -18.773438 10.765625 -18.609375 C 10.765625 -18.453125 10.707031 -18.210938 10.59375 -17.890625 C 10.488281 -17.566406 10.332031 -17.363281 10.125 -17.28125 Z M 10.125 -17.28125 "/></g></g></g><g fill="#0cabc6" fill-opacity="1"><g transform="translate(191.580053, 245.031848)"><g><path d="M 7.9375 -7.421875 L 8 -12.078125 L 8 -14.09375 C 8 -14.570312 8.019531 -15.128906 8.0625 -15.765625 C 8.101562 -16.398438 8.109375 -16.789062 8.078125 -16.9375 C 8.003906 -17.050781 7.300781 -17.097656 5.96875 -17.078125 L 2.140625 -17.046875 C 2.078125 -17.046875 1.945312 -17.035156 1.75 -17.015625 C 1.550781 -17.003906 1.382812 -17.003906 1.25 -17.015625 C 1.113281 -17.023438 0.972656 -17.046875 0.828125 -17.078125 C 0.472656 -17.140625 0.296875 -17.335938 0.296875 -17.671875 C 0.296875 -18.003906 0.320312 -18.265625 0.375 -18.453125 C 0.4375 -18.648438 0.515625 -18.796875 0.609375 -18.890625 C 0.710938 -18.984375 0.847656 -19.035156 1.015625 -19.046875 C 1.191406 -19.066406 1.40625 -19.070312 1.65625 -19.0625 C 1.90625 -19.050781 2.269531 -19.0625 2.75 -19.09375 C 3.238281 -19.132812 4.59375 -19.15625 6.8125 -19.15625 L 12.3125 -19.140625 L 17.5 -19.15625 L 18.640625 -19.1875 L 19.046875 -19.1875 C 19.398438 -19.1875 19.617188 -19.078125 19.703125 -18.859375 C 19.722656 -18.785156 19.734375 -18.6875 19.734375 -18.5625 C 19.734375 -17.925781 19.644531 -17.535156 19.46875 -17.390625 C 19.332031 -17.253906 18.875 -17.1875 18.09375 -17.1875 L 16.8125 -17.1875 C 15.945312 -17.1875 15.179688 -17.160156 14.515625 -17.109375 C 13.847656 -17.066406 12.804688 -17.046875 11.390625 -17.046875 C 11.117188 -17.046875 10.953125 -16.992188 10.890625 -16.890625 C 10.835938 -16.796875 10.8125 -16.59375 10.8125 -16.28125 L 10.78125 -11.328125 L 10.78125 -7.34375 C 10.78125 -4.894531 10.757812 -3.304688 10.71875 -2.578125 C 10.675781 -1.859375 10.648438 -1.394531 10.640625 -1.1875 C 10.628906 -0.976562 10.617188 -0.847656 10.609375 -0.796875 C 10.597656 -0.753906 10.578125 -0.671875 10.546875 -0.546875 C 10.523438 -0.421875 10.488281 -0.34375 10.4375 -0.3125 C 10.394531 -0.289062 10.335938 -0.242188 10.265625 -0.171875 C 10.191406 -0.109375 10.09375 -0.0703125 9.96875 -0.0625 C 9.851562 -0.0625 9.710938 -0.0507812 9.546875 -0.03125 C 9.390625 -0.0078125 9.15625 0 8.84375 0 C 8.53125 0 8.328125 -0.0351562 8.234375 -0.109375 C 8.148438 -0.179688 8.082031 -0.375 8.03125 -0.6875 C 7.988281 -1.007812 7.960938 -1.476562 7.953125 -2.09375 C 7.941406 -2.707031 7.929688 -3.191406 7.921875 -3.546875 C 7.910156 -3.898438 7.90625 -4.242188 7.90625 -4.578125 Z M 7.9375 -7.421875 "/></g></g></g><g fill="#0cabc6" fill-opacity="1"><g transform="translate(211.620627, 245.031848)"><g><path d="M 3.921875 0.0625 L 3.015625 0.03125 C 2.898438 0.03125 2.757812 0.0195312 2.59375 0 C 2.488281 -0.851562 2.4375 -2.078125 2.4375 -3.671875 L 2.40625 -7.3125 L 2.40625 -10.453125 C 2.40625 -11.953125 2.425781 -14.070312 2.46875 -16.8125 L 2.46875 -18.203125 C 2.46875 -18.515625 2.582031 -18.742188 2.8125 -18.890625 C 3.050781 -19.035156 3.289062 -19.113281 3.53125 -19.125 C 3.769531 -19.144531 4.035156 -19.15625 4.328125 -19.15625 L 4.875 -19.15625 C 7.476562 -19.15625 9.644531 -18.617188 11.375 -17.546875 C 13.101562 -16.484375 13.96875 -15.039062 13.96875 -13.21875 C 13.96875 -12.050781 13.617188 -10.96875 12.921875 -9.96875 L 10.59375 -7.640625 C 10.59375 -7.566406 11.175781 -6.953125 12.34375 -5.796875 C 14.207031 -3.992188 15.289062 -2.914062 15.59375 -2.5625 C 15.90625 -2.21875 16.117188 -1.988281 16.234375 -1.875 C 16.359375 -1.757812 16.457031 -1.664062 16.53125 -1.59375 C 16.71875 -1.375 16.804688 -1.195312 16.796875 -1.0625 C 16.785156 -0.9375 16.59375 -0.671875 16.21875 -0.265625 C 15.84375 0.128906 15.566406 0.328125 15.390625 0.328125 C 15.203125 0.328125 14.972656 0.1875 14.703125 -0.09375 C 14.441406 -0.375 14.1875 -0.625 13.9375 -0.84375 C 13.695312 -1.0625 13.234375 -1.523438 12.546875 -2.234375 C 11.867188 -2.953125 11.007812 -3.828125 9.96875 -4.859375 C 8.925781 -5.890625 8.367188 -6.40625 8.296875 -6.40625 L 5.25 -5.78125 C 5.21875 -5.632812 5.203125 -4.695312 5.203125 -2.96875 C 5.203125 -1.25 5.128906 -0.3125 4.984375 -0.15625 C 4.835938 -0.0078125 4.484375 0.0625 3.921875 0.0625 Z M 5.203125 -17.109375 C 5.148438 -16.816406 5.125 -15.703125 5.125 -13.765625 C 5.125 -11.835938 5.160156 -9.710938 5.234375 -7.390625 C 6.785156 -7.484375 8.1875 -8.050781 9.4375 -9.09375 C 10.695312 -10.144531 11.328125 -11.328125 11.328125 -12.640625 C 11.328125 -13.960938 10.800781 -15.046875 9.75 -15.890625 C 8.707031 -16.742188 7.398438 -17.171875 5.828125 -17.171875 C 5.703125 -17.171875 5.492188 -17.148438 5.203125 -17.109375 Z M 5.203125 -17.109375 "/></g></g></g><g fill="#0cabc6" fill-opacity="1"><g transform="translate(227.362879, 245.031848)"><g><path d="M 7.828125 -6.625 L 7.890625 -9.4375 C 7.890625 -9.675781 7.859375 -9.84375 7.796875 -9.9375 C 7.742188 -10.03125 7.707031 -10.09375 7.6875 -10.125 C 7.675781 -10.164062 7.644531 -10.210938 7.59375 -10.265625 C 7.550781 -10.316406 7.515625 -10.359375 7.484375 -10.390625 C 7.460938 -10.429688 7.414062 -10.484375 7.34375 -10.546875 C 7.28125 -10.617188 7.234375 -10.660156 7.203125 -10.671875 C 7.085938 -10.765625 6.5 -11.3125 5.4375 -12.3125 C 4.382812 -13.320312 3.800781 -13.882812 3.6875 -14 C 3.582031 -14.125 3.316406 -14.382812 2.890625 -14.78125 C 2.472656 -15.1875 2.132812 -15.507812 1.875 -15.75 C 1.625 -16 1.347656 -16.296875 1.046875 -16.640625 C 0.390625 -17.316406 0.0625 -17.765625 0.0625 -17.984375 C 0.0390625 -18.003906 0.03125 -18.023438 0.03125 -18.046875 C 0.03125 -18.191406 0.265625 -18.457031 0.734375 -18.84375 C 1.210938 -19.238281 1.570312 -19.453125 1.8125 -19.484375 C 2.082031 -19.484375 2.472656 -19.175781 2.984375 -18.5625 C 3.128906 -18.394531 4.09375 -17.398438 5.875 -15.578125 C 7.65625 -13.765625 8.59375 -12.800781 8.6875 -12.6875 C 8.789062 -12.582031 8.925781 -12.429688 9.09375 -12.234375 C 9.414062 -11.835938 9.628906 -11.640625 9.734375 -11.640625 C 9.847656 -11.640625 10.429688 -12.210938 11.484375 -13.359375 C 12.546875 -14.503906 13.289062 -15.34375 13.71875 -15.875 C 14.15625 -16.40625 14.800781 -17.140625 15.65625 -18.078125 C 16.507812 -19.015625 17.015625 -19.484375 17.171875 -19.484375 C 17.328125 -19.484375 17.5625 -19.347656 17.875 -19.078125 C 18.1875 -18.804688 18.347656 -18.625 18.359375 -18.53125 C 18.367188 -18.4375 18.335938 -18.335938 18.265625 -18.234375 C 18.191406 -18.140625 18.082031 -18.023438 17.9375 -17.890625 C 17.800781 -17.753906 17.660156 -17.59375 17.515625 -17.40625 C 17.097656 -16.894531 16.207031 -15.910156 14.84375 -14.453125 C 12.03125 -11.515625 10.625 -9.890625 10.625 -9.578125 L 10.625 -4.46875 L 10.671875 -2.046875 C 10.671875 -1.316406 10.640625 -0.867188 10.578125 -0.703125 C 10.515625 -0.546875 10.421875 -0.40625 10.296875 -0.28125 C 10.109375 -0.09375 9.769531 0 9.28125 0 C 8.789062 0 8.472656 -0.00390625 8.328125 -0.015625 C 8.179688 -0.0234375 8.035156 -0.078125 7.890625 -0.171875 C 7.753906 -0.273438 7.6875 -0.4375 7.6875 -0.65625 L 7.78125 -2.359375 Z M 7.828125 -6.625 "/></g></g></g><g fill="#0cabc6" fill-opacity="1"><g transform="translate(245.76306, 245.031848)"><g/></g></g></g></g></svg>